<svg xmlns="http://www.w3.org/2000/svg" xmlns:xlink="http://www.w3.org/1999/xlink" viewBox="0 0 237.08 213.51">
  <defs>
    <linearGradient id="linear-gradient" x1="62.54" y1="201.6" x2="241" y2="201.6" gradientUnits="userSpaceOnUse">
      <stop offset="0" stop-color="#f4b548"/>
      <stop offset="0.33" stop-color="#ffe38b"/>
      <stop offset="0.55" stop-color="#ffe38b"/>
      <stop offset="1" stop-color="#f4b548"/>
    </linearGradient>
  </defs>
  <g style="isolation: isolate">
    <g id="Layer_1" data-name="Layer 1">
      <g>
        <path d="M72.92,101.74c-16.4-1.77-30.15.85-30.69,5.86S54.55,118.12,71,119.9s30.15-.85,30.69-5.87S89.33,103.52,72.92,101.74Z" transform="translate(-16.46 -15.85)" fill="#fadc8c"/>
        <g>
          <path d="M55.6,130l2-12.5c-5.23-1.4-9.48-3.17-12.19-5.08l-2.28,13Z" transform="translate(-16.46 -15.85)" fill="#ffe38b" opacity="0.7" style="mix-blend-mode: multiply"/>
          <g>
            <path d="M48.75,114.28l-1.64,9.33,9,3.33,1.55-9.47A50.76,50.76,0,0,1,48.75,114.28Z" transform="translate(-16.46 -15.85)" fill="#ffe38b" opacity="0.7" style="mix-blend-mode: multiply"/>
            <path d="M48.75,114.28l-1.64,9.33,9,3.33,1.55-9.47A50.76,50.76,0,0,1,48.75,114.28Z" transform="translate(-16.46 -15.85)" fill="#ffe38b" opacity="0.7" style="mix-blend-mode: multiply"/>
          </g>
          <path d="M90.56,130l.65-10.27a71.93,71.93,0,0,1-15.68.58l-.46,10.58Z" transform="translate(-16.46 -15.85)" fill="#ffe38b" opacity="0.7" style="mix-blend-mode: multiply"/>
          <g>
            <path d="M88.18,120.09a78,78,0,0,1-12.65.19l-.34,7.79,12.54-.72Z" transform="translate(-16.46 -15.85)" fill="#ffe38b" opacity="0.7" style="mix-blend-mode: multiply"/>
            <path d="M88.18,120.09a78,78,0,0,1-12.65.19l-.34,7.79,12.54-.72Z" transform="translate(-16.46 -15.85)" fill="#ffe38b" opacity="0.7" style="mix-blend-mode: multiply"/>
          </g>
          <path d="M91.21,119.7,90.56,130l-15.49.89.46-10.58c-1.5-.09-3-.21-4.57-.38a88.73,88.73,0,0,1-13.31-2.43l-2,12.5-12.42-4.61,2.28-13c-2.22-1.55-3.41-3.2-3.23-4.79L28,188.07c-.65,6.08,14.93,12.74,34.82,14.89s36.54-1,37.19-7.1a3.85,3.85,0,0,0,0-.59L101.65,114C101.36,116.69,97.35,118.69,91.21,119.7Z" transform="translate(-16.46 -15.85)" fill="#fadc8c"/>
          <path d="M91.21,119.7,90.56,130l-15.49.89.46-10.58c-1.32-.08-2.66-.2-4-.33-1.06,6.21-1.58,12.63-.07,18.36.9,3.45,3.84,4.49,5.35,7.44a10.21,10.21,0,0,1,1,5.38c-.17,17.61-4.23,34.91-4.86,52.48,15.12.29,26.54-2.74,27.08-7.75a3.85,3.85,0,0,0,0-.59L101.65,114C101.36,116.69,97.35,118.69,91.21,119.7Z" transform="translate(-16.46 -15.85)" fill="#fadc8c" style="mix-blend-mode: multiply"/>
        </g>
        <path d="M226.78,53.19c-12.81-.2-23.29,2.61-23.4,6.27s10.19,6.78,23,7,23.29-2.61,23.4-6.27S239.59,53.4,226.78,53.19Z" transform="translate(-16.46 -15.85)" fill="#fadc8c"/>
        <path d="M242.05,65l.13,7.46-11.94,1.68-.3-7.68c-1.16,0-2.35,0-3.56,0a74.44,74.44,0,0,1-10.45-.88l-.82,9.16-9.9-2.5,1-9.52c-1.81-1-2.84-2.08-2.8-3.24l-6.08,93.47c-.13,4.44,12.35,8.22,27.88,8.47s28.22-3.16,28.36-7.6c0-.14,0-.28,0-.42l-3.73-93.21C249.72,62.11,246.74,63.81,242.05,65Z" transform="translate(-16.46 -15.85)" fill="#fadc8c"/>
        <g style="mix-blend-mode: multiply">
          <path d="M253.51,153.38l-3.73-93.21c-.06,1.94-3,3.64-7.73,4.78l.13,7.46-7.68,1.08c.37,7.85,1.25,15.71,2.05,23.54A199.42,199.42,0,0,1,238,118c0,7.3-.52,14.58-.57,21.87a.9.9,0,0,1-1.53.63c-2.9-3.24-5.44-6.89-8.59-9.9a46.36,46.36,0,0,0-11.09-7.42c-5.4-2.76-11-5.15-16.46-7.7l-2.43,37.42c-.13,4.44,12.35,8.22,27.88,8.47s28.22-3.16,28.36-7.6C253.54,153.66,253.52,153.52,253.51,153.38Z" transform="translate(-16.46 -15.85)" fill="#fadc8c"/>
        </g>
        <path d="M172.86,149.31c13.76-5.21,44.56-15.66,53.09-18.55-2.51-2.64-6.15-4.13-11.44-7.44-8.15-5.1-32.6-19.37-32.6-19.37l-10-5.34L98.09,117.75l-.29,10.74c12.75,6.89,29.49,16,39.26,21.47C151.82,158.86,156.81,155.39,172.86,149.31Z" transform="translate(-16.46 -15.85)" fill="#f9ca67"/>
        <path d="M172.86,149.31c13.76-5.21,44.56-15.66,53.09-18.55-2.51-2.64-6.15-4.13-11.44-7.44-8.15-5.1-32.6-19.37-32.6-19.37l-10-5.34L98.09,117.75l-.29,10.74c12.75,6.89,29.49,16,39.26,21.47C151.82,158.86,156.81,155.39,172.86,149.31Z" transform="translate(-16.46 -15.85)" fill="#fadc8c"/>
        <g style="mix-blend-mode: multiply">
          <path d="M172.86,149.31c13.76-5.21,44.56-15.66,53.09-18.55-2.51-2.64-6.15-4.13-11.44-7.44-8.15-5.1-32.6-19.37-32.6-19.37l-10-5.34L98.09,117.75l-.29,10.74c12.75,6.89,29.49,16,39.26,21.47C151.82,158.86,156.81,155.39,172.86,149.31Z" transform="translate(-16.46 -15.85)" fill="#fadc8c"/>
        </g>
        <path d="M137.06,150c-9.77-5.5-26.51-14.58-39.26-21.47l-1.89,71.76s45.73,24,52,27.72a9.21,9.21,0,0,0,4.06,1.2l-.65-73.85C147.26,155.08,142.93,153.5,137.06,150Z" transform="translate(-16.46 -15.85)" fill="#fadc8c"/>
        <path d="M137.06,150c-9.77-5.5-26.51-14.58-39.26-21.47l-1.89,71.76s45.73,24,52,27.72a9.21,9.21,0,0,0,4.06,1.2l-.65-73.85C147.26,155.08,142.93,153.5,137.06,150Z" transform="translate(-16.46 -15.85)" fill="#fadc8c" style="mix-blend-mode: multiply"/>
        <path d="M240.31,183.15c-1.36-7.64-9-39.38-11.2-46.68a13.47,13.47,0,0,0-3.16-5.71c-8.53,2.89-39.33,13.34-53.09,18.55-9.66,3.66-15.31,6.37-21.51,6l.65,73.85c6.35.45,15.41-4,27.71-9.35,22.07-9.5,42.43-19.3,51.94-23.57S241.67,190.8,240.31,183.15Z" transform="translate(-16.46 -15.85)" fill="#fadc8c"/>
        <g opacity="0.7" style="mix-blend-mode: multiply">
          <path d="M141.43,163.42l2.57-9.89a50.78,50.78,0,0,1-6.94-3.57l-5.3-3-2.43,10.81Z" transform="translate(-16.46 -15.85)" fill="#ffe38b"/>
          <g style="mix-blend-mode: multiply">
            <path d="M137.06,150c-.66-.37-1.36-.77-2.08-1.16l-1.54,6.86,8.93,4.14,1.63-6.27A50.78,50.78,0,0,1,137.06,150Z" transform="translate(-16.46 -15.85)" fill="#ffe38b"/>
          </g>
          <path d="M120.16,152.34l2.6-10.29c-4.08-2.23-8.39-4.58-12.65-6.89l-2.17,10.94Z" transform="translate(-16.46 -15.85)" fill="#ffe38b"/>
          <g style="mix-blend-mode: multiply">
            <path d="M113.27,136.88l-1.44,7.28,9.21,4.71,1.72-6.82Z" transform="translate(-16.46 -15.85)" fill="#ffe38b"/>
          </g>
        </g>
        <g opacity="0.7" style="mix-blend-mode: multiply">
          <path d="M196.68,152l-3.27-10c-4.2,1.48-8.32,2.92-12,4.25l3.44,11Z" transform="translate(-16.46 -15.85)" fill="#ffe38b"/>
          <g style="mix-blend-mode: multiply">
            <path d="M190.16,143.07c-3.06,1.07-6,2.12-8.76,3.11l2.53,8.09,8.65-3.82Z" transform="translate(-16.46 -15.85)" fill="#ffe38b"/>
          </g>
          <path d="M218.71,142.93l-2.81-8.75c-3.55,1.2-7.62,2.6-11.86,4.06l2.7,8.63Z" transform="translate(-16.46 -15.85)" fill="#ffe38b"/>
          <g style="mix-blend-mode: multiply">
            <path d="M213,135.18,204,138.24l1.79,5.71,9-3Z" transform="translate(-16.46 -15.85)" fill="#ffe38b"/>
          </g>
          <path d="M173.39,160.36l-2-10.48c-4.33,1.67-7.85,3.1-11,4.08l1.58,11.24Z" transform="translate(-16.46 -15.85)" fill="#ffe38b"/>
          <g style="mix-blend-mode: multiply">
            <path d="M168.77,150.89c-3.19,1.23-5.92,2.29-8.42,3.07l1.08,7.7,8.71-3.67Z" transform="translate(-16.46 -15.85)" fill="#ffe38b"/>
          </g>
        </g>
        <path d="M186.88,124.55C184.1,112.86,161,15.84,156.75,15.85s-27.86,96.67-30.2,106.3a2.13,2.13,0,0,0-.19.77c-.2,4.33,13.25,8.45,30,9.22S187,130,187.15,125.71A2.44,2.44,0,0,0,186.88,124.55Z" transform="translate(-16.46 -15.85)" fill="#fadc8c"/>
        <g>
          <path d="M55.65,197.75c-.22-.11-.43-.19-.64-.29a.6.6,0,0,0-.42-.88c-3.58-.73-7.54-.41-9.89,2.67a1.53,1.53,0,0,0,.54,2.1c3.3,1.54,8.07,1.51,10.71-1.31A1.48,1.48,0,0,0,55.65,197.75Z" transform="translate(-16.46 -15.85)" fill="#dc8c00"/>
          <path d="M62.54,202.78a2.83,2.83,0,0,0-.36-.16.33.33,0,0,0-.22-.49c-2-.4-4.17-.23-5.48,1.48a.85.85,0,0,0,.31,1.15c1.82.85,4.45.84,5.91-.72A.81.81,0,0,0,62.54,202.78Z" transform="translate(-16.46 -15.85)" fill="#dc8c00"/>
          <path d="M83.33,178.33a1.26,1.26,0,0,0,.13-.26.24.24,0,0,0,.36-.14,3.79,3.79,0,0,0-.89-4,.6.6,0,0,0-.85.18,3.84,3.84,0,0,0,.34,4.28A.58.58,0,0,0,83.33,178.33Z" transform="translate(-16.46 -15.85)" fill="#dc8c00"/>
          <path d="M70.65,159.74a2,2,0,0,0,.15-.29.28.28,0,0,0,.41-.18c.41-1.64.34-3.48-1-4.64a.71.71,0,0,0-1,.21c-.77,1.5-.85,3.71.4,5A.68.68,0,0,0,70.65,159.74Z" transform="translate(-16.46 -15.85)" fill="#ffb024"/>
          <path d="M94.33,167.38c.06-.1.1-.2.15-.29a.28.28,0,0,0,.41-.18c.42-1.64.35-3.48-1-4.64a.72.72,0,0,0-1,.21c-.77,1.5-.85,3.71.41,5A.67.67,0,0,0,94.33,167.38Z" transform="translate(-16.46 -15.85)" fill="#ffb024"/>
          <path d="M85.92,195.9a2.19,2.19,0,0,0,.16-.3.27.27,0,0,0,.41-.17c.41-1.65.34-3.49-1-4.64a.71.71,0,0,0-1,.21c-.78,1.5-.86,3.71.4,5A.68.68,0,0,0,85.92,195.9Z" transform="translate(-16.46 -15.85)" fill="#ffb024"/>
          <path d="M147.15,217.9a4.78,4.78,0,0,0,.23-.45.43.43,0,0,0,.63-.26c.62-2.47.51-5.25-1.58-7a1.07,1.07,0,0,0-1.48.31c-1.17,2.27-1.3,5.6.6,7.53A1,1,0,0,0,147.15,217.9Z" transform="translate(-16.46 -15.85)" fill="#dc8c00"/>
          <path d="M165.74,196c.09-.15.16-.3.23-.44a.43.43,0,0,0,.63-.27c.61-2.48.51-5.25-1.59-7a1,1,0,0,0-1.47.32c-1.17,2.26-1.29,5.59.59,7.52A1,1,0,0,0,165.74,196Z" transform="translate(-16.46 -15.85)" fill="#dc8c00"/>
          <path d="M224.05,177.67a4.78,4.78,0,0,0,.23-.45.41.41,0,0,0,.62-.26c.62-2.47.52-5.25-1.57-7a1.07,1.07,0,0,0-1.48.31c-1.17,2.26-1.29,5.59.6,7.52A1,1,0,0,0,224.05,177.67Z" transform="translate(-16.46 -15.85)" fill="#dc8c00"/>
          <path d="M237,139l.22-.45a.43.43,0,0,0,.63-.27c.61-2.47.51-5.25-1.58-7a1.07,1.07,0,0,0-1.48.32c-1.17,2.26-1.29,5.59.61,7.52A1,1,0,0,0,237,139Z" transform="translate(-16.46 -15.85)" fill="#dc8c00"/>
          <path d="M243.65,97.71a2.79,2.79,0,0,0,.24-.45.41.41,0,0,0,.62-.25c.62-2.48.52-5.26-1.58-7a1.06,1.06,0,0,0-1.47.32c-1.17,2.26-1.29,5.59.6,7.52A1,1,0,0,0,243.65,97.71Z" transform="translate(-16.46 -15.85)" fill="#dc8c00"/>
          <path d="M166.76,69.2c.09-.15.15-.3.23-.45a.42.42,0,0,0,.62-.27c.62-2.47.51-5.25-1.57-7a1.07,1.07,0,0,0-1.48.32c-1.18,2.26-1.3,5.59.6,7.53A1,1,0,0,0,166.76,69.2Z" transform="translate(-16.46 -15.85)" fill="#dc8c00"/>
          <path d="M172.54,116.69a2.29,2.29,0,0,0,.16-.31.3.3,0,0,0,.44-.19c.43-1.73.36-3.68-1.1-4.9a.74.74,0,0,0-1,.22c-.83,1.58-.91,3.92.42,5.28A.72.72,0,0,0,172.54,116.69Z" transform="translate(-16.46 -15.85)" fill="#dc8c00"/>
          <path d="M169.68,77.35a1.74,1.74,0,0,0,.1-.19.17.17,0,0,0,.26-.11,2.77,2.77,0,0,0-.66-2.93.44.44,0,0,0-.62.13,2.83,2.83,0,0,0,.25,3.16A.44.44,0,0,0,169.68,77.35Z" transform="translate(-16.46 -15.85)" fill="#dc8c00"/>
          <path d="M131,188.77a2.1,2.1,0,0,0,.15-.3.28.28,0,0,0,.42-.17c.41-1.64.34-3.48-1-4.64a.7.7,0,0,0-1,.21c-.78,1.5-.87,3.71.4,5A.66.66,0,0,0,131,188.77Z" transform="translate(-16.46 -15.85)" fill="#ffb024"/>
          <path d="M200.25,193.86a2.1,2.1,0,0,0,.15-.3.28.28,0,0,0,.42-.17c.4-1.64.34-3.49-1-4.64a.71.71,0,0,0-1,.21,4.49,4.49,0,0,0,.4,5A.69.69,0,0,0,200.25,193.86Z" transform="translate(-16.46 -15.85)" fill="#ffb024"/>
          <path d="M206.11,178.41a1.1,1.1,0,0,0,.14-.21c.16.07.37,0,.42-.12a2.67,2.67,0,0,0-1.11-3.37.89.89,0,0,0-1,.14,2.57,2.57,0,0,0,.46,3.62A.83.83,0,0,0,206.11,178.41Z" transform="translate(-16.46 -15.85)" fill="#ffb024"/>
          <path d="M244.53,140.06a.38.38,0,0,0,.09-.13c.1,0,.23,0,.26-.08a1.66,1.66,0,0,0-.68-2.09.55.55,0,0,0-.61.08,1.6,1.6,0,0,0,.29,2.26A.51.51,0,0,0,244.53,140.06Z" transform="translate(-16.46 -15.85)" fill="#ffb024"/>
          <path d="M154.1,117.5a2.14,2.14,0,0,0,.13-.19c.14,0,.33,0,.37-.11a2.38,2.38,0,0,0-1-3,.77.77,0,0,0-.88.13,2.29,2.29,0,0,0,.41,3.24A.75.75,0,0,0,154.1,117.5Z" transform="translate(-16.46 -15.85)" fill="#ffb024"/>
          <path d="M180.67,113.54a1.3,1.3,0,0,0,.1-.15.22.22,0,0,0,.28-.08,1.79,1.79,0,0,0-.74-2.27.58.58,0,0,0-.66.09,1.72,1.72,0,0,0,.31,2.44A.57.57,0,0,0,180.67,113.54Z" transform="translate(-16.46 -15.85)" fill="#ffb024"/>
          <path d="M165.65,52.42a.71.71,0,0,0,.1-.14.21.21,0,0,0,.28-.08,1.8,1.8,0,0,0-.75-2.28.6.6,0,0,0-.66.1,1.74,1.74,0,0,0,.31,2.44A.57.57,0,0,0,165.65,52.42Z" transform="translate(-16.46 -15.85)" fill="#ffb024"/>
          <path d="M174,103.57l.09-.14c.12,0,.25,0,.28-.08a1.8,1.8,0,0,0-.74-2.28.55.55,0,0,0-.65.1,1.71,1.71,0,0,0,.3,2.43A.56.56,0,0,0,174,103.57Z" transform="translate(-16.46 -15.85)" fill="#ffb024"/>
          <path d="M248.79,124.47l.09-.13c.1,0,.23,0,.26-.08a1.66,1.66,0,0,0-.68-2.09.53.53,0,0,0-.61.08,1.59,1.59,0,0,0,.28,2.25A.52.52,0,0,0,248.79,124.47Z" transform="translate(-16.46 -15.85)" fill="#ffb024"/>
          <path d="M246.75,109.19l.09-.14c.1,0,.23,0,.26-.07a1.66,1.66,0,0,0-.68-2.09.5.5,0,0,0-.6.09,1.57,1.57,0,0,0,.28,2.24A.51.51,0,0,0,246.75,109.19Z" transform="translate(-16.46 -15.85)" fill="#dc8c00"/>
          <path d="M230,178.93c.06-.07.1-.15.15-.21s.36,0,.4-.13a2.64,2.64,0,0,0-1.1-3.37.86.86,0,0,0-1,.14A2.55,2.55,0,0,0,229,179,.84.84,0,0,0,230,178.93Z" transform="translate(-16.46 -15.85)" fill="#ffb024"/>
          <path d="M227.31,168.81c0-.06.07-.11.1-.16s.28,0,.31-.09a2,2,0,0,0-.81-2.53.68.68,0,0,0-.74.12,1.91,1.91,0,0,0,.34,2.69A.64.64,0,0,0,227.31,168.81Z" transform="translate(-16.46 -15.85)" fill="#ffb024"/>
          <path d="M77.63,159.45a1.62,1.62,0,0,0,.1-.18.17.17,0,0,0,.25-.11,2.74,2.74,0,0,0-.64-2.88.45.45,0,0,0-.62.13,2.78,2.78,0,0,0,.25,3.1A.43.43,0,0,0,77.63,159.45Z" transform="translate(-16.46 -15.85)" fill="#dc8c00"/>
          <path d="M83.23,151.05a.66.66,0,0,0,.09-.19.18.18,0,0,0,.27-.11,2.73,2.73,0,0,0-.65-2.87.45.45,0,0,0-.62.13,2.78,2.78,0,0,0,.26,3.09A.41.41,0,0,0,83.23,151.05Z" transform="translate(-16.46 -15.85)" fill="#dc8c00"/>
          <path d="M90.05,165.62a.8.8,0,0,0,.08-.16c.08,0,.2,0,.22-.08a2.39,2.39,0,0,0-.56-2.53.37.37,0,0,0-.53.11,2.43,2.43,0,0,0,.21,2.72A.38.38,0,0,0,90.05,165.62Z" transform="translate(-16.46 -15.85)" fill="#dc8c00"/>
          <path d="M136.9,192.11c0-.05,0-.11.08-.17a.15.15,0,0,0,.23-.09,2.41,2.41,0,0,0-.57-2.52.38.38,0,0,0-.53.11,2.41,2.41,0,0,0,.21,2.71A.37.37,0,0,0,136.9,192.11Z" transform="translate(-16.46 -15.85)" fill="#dc8c00"/>
          <path d="M25.94,184.17c-1.47-1.6-6-3.89-7.94-1.92a1.59,1.59,0,0,0-1.48,2.12c.62,3.12,7.06,2,9,1.15A.89.89,0,0,0,25.94,184.17Z" transform="translate(-16.46 -15.85)" fill="#dc8c00"/>
        </g>
        <g>
          <path d="M92.66,112.73l-.22-.1a.2.2,0,0,0-.13-.29,3.17,3.17,0,0,0-3.27.88.5.5,0,0,0,.18.69,3.18,3.18,0,0,0,3.54-.43A.49.49,0,0,0,92.66,112.73Z" transform="translate(-16.46 -15.85)" fill="#dc8c00"/>
          <path d="M56.6,110.62l-.22-.1a.19.19,0,0,0-.14-.29,3.12,3.12,0,0,0-3.26.88.51.51,0,0,0,.17.69,3.18,3.18,0,0,0,3.54-.43A.48.48,0,0,0,56.6,110.62Z" transform="translate(-16.46 -15.85)" fill="#dc8c00"/>
          <path d="M64.27,103.74a1.69,1.69,0,0,0-1.33-.23,1.21,1.21,0,0,0-.88.42.33.33,0,0,0,.13.53,2.7,2.7,0,0,0,2.08-.26A.28.28,0,0,0,64.27,103.74Z" transform="translate(-16.46 -15.85)" fill="#ffb024"/>
          <path d="M83.11,108.82a1.69,1.69,0,0,0-1.32-.23,1.27,1.27,0,0,0-.9.42.32.32,0,0,0,.14.53,2.7,2.7,0,0,0,2.08-.26A.27.27,0,0,0,83.11,108.82Z" transform="translate(-16.46 -15.85)" fill="#ffb024"/>
        </g>
        <g>
          <path d="M242.93,61.48l-.16-.08a.15.15,0,0,0-.1-.22,2.37,2.37,0,0,0-2.45.67.37.37,0,0,0,.14.52A2.38,2.38,0,0,0,243,62,.36.36,0,0,0,242.93,61.48Z" transform="translate(-16.46 -15.85)" fill="#dc8c00"/>
          <path d="M215.85,59.89l-.16-.07a.14.14,0,0,0-.1-.21,2.32,2.32,0,0,0-2.45.66.37.37,0,0,0,.14.51,2.37,2.37,0,0,0,2.65-.33A.35.35,0,0,0,215.85,59.89Z" transform="translate(-16.46 -15.85)" fill="#dc8c00"/>
          <path d="M221.62,54.73a1.32,1.32,0,0,0-1-.18,1,1,0,0,0-.67.32.25.25,0,0,0,.11.4,2,2,0,0,0,1.56-.2A.2.2,0,0,0,221.62,54.73Z" transform="translate(-16.46 -15.85)" fill="#ffb024"/>
          <path d="M235.76,58.54a1.31,1.31,0,0,0-1-.17.94.94,0,0,0-.67.31.24.24,0,0,0,.11.4,2,2,0,0,0,1.55-.19A.2.2,0,0,0,235.76,58.54Z" transform="translate(-16.46 -15.85)" fill="#ffb024"/>
        </g>
        <path d="M215.11,74.72l.82-9.16a32.41,32.41,0,0,1-9.75-2.86l-1,9.52Z" transform="translate(-16.46 -15.85)" fill="#ffe38b" opacity="0.7" style="mix-blend-mode: multiply"/>
        <g>
          <path d="M208.72,63.8,208,70.52l7.28,1.84.61-6.8A41.15,41.15,0,0,1,208.72,63.8Z" transform="translate(-16.46 -15.85)" fill="#ffe38b" opacity="0.7" style="mix-blend-mode: multiply"/>
          <path d="M208.72,63.8,208,70.52l7.28,1.84.61-6.8A41.15,41.15,0,0,1,208.72,63.8Z" transform="translate(-16.46 -15.85)" fill="#ffe38b" opacity="0.7" style="mix-blend-mode: multiply"/>
        </g>
        <path d="M242.18,72.41,242.05,65a59.62,59.62,0,0,1-12.11,1.46l.3,7.68Z" transform="translate(-16.46 -15.85)" fill="#ffe38b" opacity="0.7" style="mix-blend-mode: multiply"/>
        <g>
          <path d="M239.46,65.49a65.7,65.7,0,0,1-9.52.92l.2,5.24,9.41-1.31Z" transform="translate(-16.46 -15.85)" fill="#ffe38b" opacity="0.7" style="mix-blend-mode: multiply"/>
          <path d="M239.46,65.49a65.7,65.7,0,0,1-9.52.92l.2,5.24,9.41-1.31Z" transform="translate(-16.46 -15.85)" fill="#ffe38b" opacity="0.7" style="mix-blend-mode: multiply"/>
        </g>
        <path d="M62.54,202.78s33,3.46,33.65-16.57,2-12.22,2-1,6.8,19,28.18,28.86,24.79,12.56,25.47-3.06,2.37,2.38,3.06,9.17,15.27,2,44.13-11.54,41.08-14.94,41.25-25.47c1.53,6.8.85,8.15-5.27,11.55s-65.24,29.86-75.43,33.59-15.55-3-30.49-10.5-33.21-17.54-33.21-17.54S86.61,206.11,62.54,202.78Z" transform="translate(-16.46 -15.85)" fill="url(#linear-gradient)" style="mix-blend-mode: multiply"/>
      </g>
    </g>
  </g>
</svg>
