<svg id="레이어_1" data-name="레이어 1" xmlns="http://www.w3.org/2000/svg" viewBox="0 0 387.78 335.55">
  <g id="Background_Complete" data-name="Background Complete">
    <circle cx="333.99" cy="111.58" r="36.6" transform="translate(92.56 373.94) rotate(-76.72)" fill="#f5f5f5"/>
    <path d="M391.08,98.61a6,6,0,0,0-6-6,5.8,5.8,0,0,0-1.71.25A12.65,12.65,0,0,0,370.88,78.4a13,13,0,0,0-2.33.22,11,11,0,0,0-20.46,5.58H348a10.17,10.17,0,0,0,0,20.34h37.34A6,6,0,0,0,391.08,98.61Z" transform="translate(-56.11 -37.06)" fill="#ebebeb"/>
    <path d="M319.74,135.55a6,6,0,0,0-6-6,6.28,6.28,0,0,0-1.72.25,12.58,12.58,0,0,0-12.54-14.45,12.37,12.37,0,0,0-2.27.21,11,11,0,0,0-20.46,5.58h-.19a10.17,10.17,0,0,0,0,20.34H313.9A6,6,0,0,0,319.74,135.55Z" transform="translate(-56.11 -37.06)" fill="#ebebeb"/>
    <path d="M165.45,74.31a6,6,0,0,0-6-6,6.35,6.35,0,0,0-1.62.24,14.07,14.07,0,0,0,.13-1.83A12.67,12.67,0,0,0,143,54.36a11,11,0,0,0-20.46,5.58h-.19a10.17,10.17,0,0,0,0,20.34h37.34A6,6,0,0,0,165.45,74.31Z" transform="translate(-56.11 -37.06)" fill="#ebebeb"/>
    <path d="M410.13,168a3.6,3.6,0,0,0-3.6-3.6h0a3.37,3.37,0,0,0-1,.15,8,8,0,0,0,.08-1.1,7.64,7.64,0,0,0-7.63-7.63h0a7.4,7.4,0,0,0-1.41.13,6.67,6.67,0,0,0-12.37,3.37h-.11a6.15,6.15,0,1,0,0,12.3h22.57A3.6,3.6,0,0,0,410.13,168Z" transform="translate(-56.11 -37.06)" fill="#ebebeb"/>
    <path d="M265.34,76.7a3.6,3.6,0,0,0-3.6-3.6h0a3.37,3.37,0,0,0-1,.15,8.29,8.29,0,0,0,.08-1.11,7.65,7.65,0,0,0-7.63-7.63,8.4,8.4,0,0,0-1.41.13,6.67,6.67,0,0,0-12.4,3.41h-.11a6.15,6.15,0,0,0,0,12.29h22.57A3.6,3.6,0,0,0,265.34,76.7Z" transform="translate(-56.11 -37.06)" fill="#ebebeb"/>
    <path d="M97.65,152.17A3.62,3.62,0,0,0,93,148.72a6.91,6.91,0,0,0,.08-1.11A7.64,7.64,0,0,0,85.45,140h0a8.19,8.19,0,0,0-1.4.13,6.67,6.67,0,0,0-12.37,3.37h-.11a6.15,6.15,0,0,0-.5,12.29H94.15A3.6,3.6,0,0,0,97.65,152.17Z" transform="translate(-56.11 -37.06)" fill="#ebebeb"/>
    <path d="M175.87,303.94s-4.62-71.81-28.35-165.33l4.81-3.64S173.14,168.76,194,299.69Z" transform="translate(-56.11 -37.06)" fill="#e6e6e6"/>
    <path d="M434,327.05s-64.71-45.76-170.7-45.76S89.14,327.05,89.14,327.05Z" transform="translate(-56.11 -37.06)" fill="#ebebeb"/>
    <path d="M141.4,116.83c-11.16-6.21-26.13,6-27,23.56a33.26,33.26,0,0,1,4.72-2.67c.51-4.43,1-8.36,1-8.36v7.89c.91-.41,1.91-.81,3-1.19l.43-4.28.63,3.92a35.32,35.32,0,0,1,4.53-1.14l1.1-12.46,1.9,12a34.27,34.27,0,0,1,4.75-.13l.61-8.47.63,8.55a30.87,30.87,0,0,1,4.06.63l.56-12.6s.46,7,1,13A33.2,33.2,0,0,1,154,140.39v-1.54S151.59,122.5,141.4,116.83Z" transform="translate(-56.11 -37.06)" fill="#e0e0e0"/>
    <path d="M155.73,110.18c7.77-10.13,26.38-4.84,34.18,10.88a32.67,32.67,0,0,0-5.4-.58c-2.23-3.86-4.26-7.26-4.26-7.26l3.13,7.23c-1,0-2.08,0-3.22.11l-2.1-3.75,1,3.84a39.88,39.88,0,0,0-4.61.75l-6-11,3,11.8A33,33,0,0,0,167,124l-3.93-7.52,2.83,8.09a29.9,29.9,0,0,0-3.48,2.19L157,115.38s2.37,6.64,4.27,12.3a33,33,0,0,0-7.74,9.14l-.61-1.42S148.63,119.44,155.73,110.18Z" transform="translate(-56.11 -37.06)" fill="#e0e0e0"/>
    <path d="M165.51,132.19c-9.08-7.67-14.93,0-14.93,0a18.57,18.57,0,0,1,8.9,4.85l1-1.58v2.59c.64.64,1.26,1.3,1.86,2l1.62-4.56-.4,6c.87,1.09,1.68,2.21,2.43,3.33l.54-4.45.36,5.82c.8,1.26,1.53,2.5,2.18,3.67l.34-8.11.87,10.4c1.59,3.11,2.46,5.31,2.46,5.31S174.59,139.86,165.51,132.19Z" transform="translate(-56.11 -37.06)" fill="#e0e0e0"/>
    <path d="M144,153.4l1.83.89c.16-1.37.35-2.81.58-4.27l-1.35-2.09,1.57.82c.08-.49.17-1,.27-1.46l-1.84-4.16,2.41,1.54c1-3.94,2.29-7.45,4.14-9.21,0,0-19,7.63-6.5,27.81,0,0,.11-3.35.58-7.77Z" transform="translate(-56.11 -37.06)" fill="#e0e0e0"/>
    <path d="M161.92,134.86l2.69-6.08-.84,6.2a7.86,7.86,0,0,1,.95.1l3.67-5.31-.58,5.85a37.32,37.32,0,0,1,4.16,1.2,46.09,46.09,0,0,1,4.36,1.82l1.59-5.27-.5,5.8c1.4.7,2.76,1.46,4.07,2.24l.65-4.59.28,5.16c1.61,1,3.13,2,4.54,3l-.71-8.18,1.85,9c1.44,1.06,2.74,2.08,3.86,3l-.26-5.69,2,7.11c1.61,1.38,2.54,2.27,2.54,2.27-2.22-19.84-10.5-27.18-23.41-28.39s-21.15,12.7-21.15,12.7S155.41,134.68,161.92,134.86Z" transform="translate(-56.11 -37.06)" fill="#e0e0e0"/>
    <path d="M126.47,161.86l1.59,5.85c.45-1.51,1.08-3.46,1.89-5.63l-1.67-8.6,2.41,6.7a67.35,67.35,0,0,1,4.53-9.32L133,145l3.27,4.26c.53-.82,1.09-1.62,1.67-2.39l-1.3-3.71,1.82,3c.4-.5.81-1,1.24-1.46l-1.62-5,2.3,4.22a23.23,23.23,0,0,1,3.88-3.25l-2.48-6s1.61,2.42,3.59,5.37a14,14,0,0,1,6.29-1.79,21.41,21.41,0,0,0-11.54-7.5c-7.27-1.62-21.6,12.33-12.92,40.16,0,0,.16-.66.47-1.78Z" transform="translate(-56.11 -37.06)" fill="#e0e0e0"/>
    <path d="M134.18,106.05l-1,3.69a7.48,7.48,0,0,1,1.34.09l1.18-4.78-.63,4.87a10.38,10.38,0,0,1,2.71,1l1.55-6.46-.68,7a10.91,10.91,0,0,1,1,.72l1.84-6.1-1.25,6.57A25,25,0,0,1,144.9,118v-8.74l1.86,11.8a71.27,71.27,0,0,1,4.84,11.21s-1-31.68-8.92-34.71-11.3,12.51-11.3,12.51a4.29,4.29,0,0,1,1-.24Z" transform="translate(-56.11 -37.06)" fill="#e0e0e0"/>
    <path d="M147.6,140.39l1.11,6,1.87-6L154,144.7l.91-4.31,3.78,2.74s-1-7.61-3.52-10.94S146,131.81,147.6,140.39Z" transform="translate(-56.11 -37.06)" fill="#e0e0e0"/>
    <path d="M201.39,291.72S194,189.1,234.72,86.46l-4.9-4.38s-44.55,76.63-48.58,211.05Z" transform="translate(-56.11 -37.06)" fill="#e6e6e6"/>
    <path d="M245.73,59.54c12.71-7.08,29.77,6.88,30.8,26.84a38.56,38.56,0,0,0-5.38-3c-.58-5-1.17-9.52-1.17-9.52v9c-1-.46-2.18-.92-3.41-1.35l-.49-4.87-.73,4.46a43.61,43.61,0,0,0-5.15-1.3L259,65.54l-2.17,13.7a34.94,34.94,0,0,0-5.41-.15l-.7-9.65L250,79.17a34.57,34.57,0,0,0-4.63.73l-.63-14.36s-.53,8-1.11,14.79a37.42,37.42,0,0,0-12.23,6V84.62S234.12,66.05,245.73,59.54Z" transform="translate(-56.11 -37.06)" fill="#e0e0e0"/>
    <path d="M229.41,52c-8.85-11.55-30-5.52-38.94,12.38a37.43,37.43,0,0,1,6.15-.66c2.54-4.4,4.86-8.27,4.86-8.27l-3.57,8.24c1.14,0,2.36,0,3.67.12L204,59.51l-1.11,4.38a42.36,42.36,0,0,1,5.24.85l6.79-12.52-3.45,13.43a37.77,37.77,0,0,1,5,2l4.48-8.57-3.22,9.21a33.12,33.12,0,0,1,4,2.51L228,57.88s-2.7,7.56-4.86,14A37.33,37.33,0,0,1,232,82.29l.7-1.62S237.49,62.51,229.41,52Z" transform="translate(-56.11 -37.06)" fill="#e0e0e0"/>
    <path d="M218.26,77.05c10.34-8.73,17,0,17,0a21.15,21.15,0,0,0-10.14,5.53l-1.18-1.8V83.7c-.73.73-1.43,1.49-2.12,2.28L220,80.78l.46,6.89c-1,1.24-1.91,2.52-2.77,3.8L217,86.4l-.4,6.63c-.91,1.43-1.74,2.84-2.48,4.18L213.77,88l-1,11.84c-1.81,3.54-2.8,6-2.8,6S207.92,85.77,218.26,77.05Z" transform="translate(-56.11 -37.06)" fill="#e0e0e0"/>
    <path d="M242.74,101.2l-2.08,1c-.18-1.55-.4-3.19-.66-4.85L241.54,95l-1.79.93c-.09-.55-.2-1.1-.31-1.65l2.1-4.74-2.75,1.75c-1.09-4.49-2.6-8.48-4.71-10.49,0,0,21.65,8.69,7.4,31.67,0,0-.13-3.81-.66-8.84Z" transform="translate(-56.11 -37.06)" fill="#e0e0e0"/>
    <path d="M222.36,80.05l-3.07-6.93,1,7.06-1.09.11-4.2-6,.66,6.67a40.78,40.78,0,0,0-4.74,1.37,50.59,50.59,0,0,0-5,2.07l-1.82-6,.57,6.62c-1.58.8-3.13,1.66-4.63,2.55l-.74-5.23L199,88.19c-1.83,1.14-3.57,2.3-5.17,3.45l.81-9.32-2.11,10.26c-1.64,1.21-3.12,2.37-4.39,3.41l.29-6.48-2.23,8.1c-1.83,1.57-2.88,2.58-2.88,2.58,2.53-22.6,12-31,26.66-32.34s24.1,14.47,24.1,14.47S229.77,79.87,222.36,80.05Z" transform="translate(-56.11 -37.06)" fill="#e0e0e0"/>
    <path d="M262.74,110.84l-1.82,6.66c-.51-1.73-1.23-3.94-2.15-6.42l1.9-9.8-2.74,7.64a76,76,0,0,0-5.17-10.62l2.57-6.7-3.73,4.84c-.6-.93-1.24-1.84-1.9-2.71l1.49-4.23L249.12,93c-.46-.57-.93-1.13-1.41-1.67l1.84-5.65-2.63,4.81a25.93,25.93,0,0,0-4.41-3.69l2.82-6.87-4.08,6.15a16.11,16.11,0,0,0-7.17-2,24.35,24.35,0,0,1,13.14-8.55c8.28-1.84,24.6,14,14.72,45.76,0,0-.18-.75-.54-2Z" transform="translate(-56.11 -37.06)" fill="#e0e0e0"/>
    <path d="M254,47.2l1.08,4.2a9.83,9.83,0,0,0-1.53.1l-1.33-5.45.72,5.56a11.31,11.31,0,0,0-3.08,1.14l-1.77-7.36.78,7.94a13.78,13.78,0,0,0-1.18.82l-2.1-6.95L247,54.69a28.52,28.52,0,0,0-5.3,6.09v-10l-2.12,13.44a79.85,79.85,0,0,0-5.51,12.83S235.27,41,244.24,37.51s12.87,14.25,12.87,14.25a5.84,5.84,0,0,0-1.17-.27Z" transform="translate(-56.11 -37.06)" fill="#e0e0e0"/>
    <path d="M238.67,86.38l-1.27,6.77-2.13-6.77-3.91,4.9-1-4.9L226,89.5s1.12-8.68,4-12.47S240.48,76.6,238.67,86.38Z" transform="translate(-56.11 -37.06)" fill="#e0e0e0"/>
  </g>
  <g id="Shadow">
    <ellipse id="_Path_" data-name=" Path " cx="193.89" cy="324.23" rx="193.89" ry="11.32" fill="#f5f5f5"/>
  </g>
  <g id="Castle">
    <polygon points="347.3 155.42 364.16 162.48 347.3 168.45 347.3 155.42" fill="#407bff"/>
    <polygon points="258.96 138.18 275.82 145.24 258.96 151.21 258.96 138.18" fill="#407bff"/>
    <line x1="347.3" y1="194.16" x2="347.3" y2="152.11" fill="none" stroke="#263238" stroke-linecap="round" stroke-linejoin="round"/>
    <line x1="258.96" y1="176.92" x2="258.96" y2="134.87" fill="none" stroke="#263238" stroke-linecap="round" stroke-linejoin="round"/>
    <rect x="332.78" y="190.11" width="28.5" height="133.53" fill="#407bff"/>
    <rect x="332.78" y="190.11" width="28.5" height="133.53" fill="#fff" opacity="0.2" style="isolation: isolate"/>
    <polygon points="362.57 191.42 362.57 178.03 358.88 178.03 358.88 181.84 355.72 181.84 355.72 178.03 352.03 178.03 352.03 181.84 348.87 181.84 348.87 178.03 345.19 178.03 345.19 181.84 342.03 181.84 342.03 178.03 338.34 178.03 338.34 181.84 335.18 181.84 335.18 178.03 331.49 178.03 331.49 191.42 362.57 191.42" fill="#407bff"/>
    <polygon points="362.57 191.42 362.57 178.03 358.88 178.03 358.88 181.84 355.72 181.84 355.72 178.03 352.03 178.03 352.03 181.84 348.87 181.84 348.87 178.03 345.19 178.03 345.19 181.84 342.03 181.84 342.03 178.03 338.34 178.03 338.34 181.84 335.18 181.84 335.18 178.03 331.49 178.03 331.49 191.42 362.57 191.42" fill="#fff" opacity="0.3" style="isolation: isolate"/>
    <g opacity="0.2">
      <path d="M414.29,234.17a1.12,1.12,0,1,1,1.12-1.12h0A1.12,1.12,0,0,1,414.29,234.17Z" transform="translate(-56.11 -37.06)"/>
      <path d="M412,257.24a1.12,1.12,0,1,1,1.12-1.12h0A1.12,1.12,0,0,1,412,257.24Z" transform="translate(-56.11 -37.06)"/>
      <circle cx="339.59" cy="272.02" r="1.12"/>
      <path d="M393.31,292.84a1.12,1.12,0,1,1,1.13-1.12,1.12,1.12,0,0,1-1.13,1.12Z" transform="translate(-56.11 -37.06)"/>
      <path d="M406.68,240.38a.56.56,0,1,1,.56-.56h0A.56.56,0,0,1,406.68,240.38Z" transform="translate(-56.11 -37.06)"/>
      <path d="M400.59,222.19a.89.89,0,1,1,.88-.9v0A.9.9,0,0,1,400.59,222.19Z" transform="translate(-56.11 -37.06)"/>
      <path d="M391.75,253.05a.89.89,0,0,1-.79-1,.87.87,0,0,1,.79-.79.89.89,0,1,1,.19,1.77Z" transform="translate(-56.11 -37.06)"/>
      <path d="M397,232.37a.44.44,0,0,1-.44-.44h0a.45.45,0,1,1,.46.44Z" transform="translate(-56.11 -37.06)"/>
      <path d="M408.36,355.57a.56.56,0,1,1,.56-.56h0A.56.56,0,0,1,408.36,355.57Z" transform="translate(-56.11 -37.06)"/>
      <path d="M411.72,338.83a.56.56,0,1,1,.56-.56h0A.56.56,0,0,1,411.72,338.83Z" transform="translate(-56.11 -37.06)"/>
      <path d="M402.83,325.41a.56.56,0,1,1,.56-.56h0A.56.56,0,0,1,402.83,325.41Z" transform="translate(-56.11 -37.06)"/>
      <path d="M395.33,338.27a.89.89,0,1,1,.89-.89.87.87,0,0,1-.87.89Z" transform="translate(-56.11 -37.06)"/>
      <path d="M398.68,347.57a.45.45,0,1,1,.45-.45.45.45,0,0,1-.45.45Z" transform="translate(-56.11 -37.06)"/>
      <path d="M402.27,256.12a.56.56,0,1,1,.56-.56h0A.56.56,0,0,1,402.27,256.12Z" transform="translate(-56.11 -37.06)"/>
      <path d="M414.85,268.62a.56.56,0,1,1,.56-.56h0A.56.56,0,0,1,414.85,268.62Z" transform="translate(-56.11 -37.06)"/>
      <circle cx="357.06" cy="245.19" r="1.12"/>
      <circle cx="354.73" cy="268.25" r="1.12"/>
      <path d="M405.56,289.58a.56.56,0,1,1,.56-.56h0A.56.56,0,0,1,405.56,289.58Z" transform="translate(-56.11 -37.06)"/>
      <path d="M400,275.32a.56.56,0,1,1,.56-.56.56.56,0,0,1-.56.56Z" transform="translate(-56.11 -37.06)"/>
      <path d="M401.15,305.32a.56.56,0,1,1,.56-.56h0A.56.56,0,0,1,401.15,305.32Z" transform="translate(-56.11 -37.06)"/>
      <path d="M413.73,317.82a.56.56,0,1,1,.56-.56h0A.56.56,0,0,1,413.73,317.82Z" transform="translate(-56.11 -37.06)"/>
    </g>
    <path d="M403.14,241.69h0A5.11,5.11,0,0,0,398,246.8v15.12h10.22V246.8a5.11,5.11,0,0,0-5.11-5.11Z" transform="translate(-56.11 -37.06)" fill="#407bff"/>
    <path d="M403.14,241.69h0A5.11,5.11,0,0,0,398,246.8v15.12h10.22V246.8a5.11,5.11,0,0,0-5.11-5.11Z" transform="translate(-56.11 -37.06)" opacity="0.2" style="isolation: isolate"/>
    <path d="M403.14,246.25a4,4,0,0,0-4,3.95v11.72h7.92V250.2A4,4,0,0,0,403.14,246.25Z" transform="translate(-56.11 -37.06)" opacity="0.2" style="isolation: isolate"/>
    <polygon points="284.69 168.17 278.58 168.17 278.58 174.47 273.34 174.47 273.34 168.17 267.25 168.17 267.25 174.47 262.01 174.47 262.01 168.17 255.91 168.17 255.91 174.47 250.68 174.47 250.68 168.17 244.58 168.17 244.58 174.47 239.35 174.47 239.35 168.17 233.23 168.17 227.19 219.61 290.73 219.61 284.69 168.17" fill="#407bff"/>
    <polygon points="290.73 219.61 227.2 219.61 228.76 206.26 233.23 168.17 239.35 168.17 239.35 174.47 244.58 174.47 244.58 168.17 250.68 168.17 250.68 174.47 255.91 174.47 255.91 168.17 262.01 168.17 262.01 174.47 267.25 174.47 267.25 168.17 273.34 168.17 273.34 174.47 278.58 174.47 278.58 168.17 284.69 168.17 289.16 206.26 290.73 219.61" fill="#fff" opacity="0.3" style="isolation: isolate"/>
    <polygon points="290.73 219.61 227.2 219.61 228.76 206.26 231.97 206.26 231.97 202.73 238.37 202.73 238.37 206.26 243.86 206.26 243.86 202.73 250.27 202.73 250.27 206.26 255.76 206.26 255.76 202.73 262.17 202.73 262.17 206.26 267.66 206.26 267.66 202.73 274.07 202.73 274.07 206.26 279.56 206.26 279.56 202.73 285.96 202.73 285.96 206.26 289.16 206.26 290.73 219.61" opacity="0.2" style="isolation: isolate"/>
    <g opacity="0.2">
      <circle cx="235" cy="197.13" r="1.12"/>
      <circle cx="274.7" cy="194.06" r="1.12"/>
      <circle cx="257.34" cy="196.46" r="1.12"/>
      <path d="M291.57,213.43a.56.56,0,1,1-.56-.56.56.56,0,0,1,.56.56Z" transform="translate(-56.11 -37.06)"/>
      <circle cx="247.87" cy="171.93" r="1.12"/>
      <circle cx="270.94" cy="174.26" r="1.12"/>
      <path d="M311.31,218.6a.56.56,0,1,1-.56-.56h0A.56.56,0,0,1,311.31,218.6Z" transform="translate(-56.11 -37.06)"/>
      <path d="M339,223.58a.56.56,0,1,1-.56-.56h0A.56.56,0,0,1,339,223.58Z" transform="translate(-56.11 -37.06)"/>
      <path d="M299.57,245.5a.57.57,0,1,1-.58-.56h0A.57.57,0,0,1,299.57,245.5Z" transform="translate(-56.11 -37.06)"/>
      <path d="M297.05,224.14a.56.56,0,1,1-.56-.56h0A.56.56,0,0,1,297.05,224.14Z" transform="translate(-56.11 -37.06)"/>
      <path d="M324.45,222.45a.56.56,0,1,1-1.12,0h0a.56.56,0,1,1,1.12,0Z" transform="translate(-56.11 -37.06)"/>
      <path d="M332.49,245.5a.56.56,0,1,1-.56-.56h0A.56.56,0,0,1,332.49,245.5Z" transform="translate(-56.11 -37.06)"/>
      <path d="M339.55,208.43a.56.56,0,1,1-.56-.56h0A.56.56,0,0,1,339.55,208.43Z" transform="translate(-56.11 -37.06)"/>
    </g>
    <path d="M315.07,218.51h0a10.21,10.21,0,0,0-10.21,10.21V259h20.42V228.72a10.21,10.21,0,0,0-10.21-10.21Z" transform="translate(-56.11 -37.06)" fill="#407bff"/>
    <path d="M315.07,218.51h0a10.21,10.21,0,0,0-10.21,10.21V259h20.42V228.72a10.21,10.21,0,0,0-10.21-10.21Z" transform="translate(-56.11 -37.06)" opacity="0.2" style="isolation: isolate"/>
    <path d="M315.07,224h0a7.49,7.49,0,0,0-7.49,7.49v22.2h15v-22.2a7.49,7.49,0,0,0-7.49-7.49Z" transform="translate(-56.11 -37.06)" opacity="0.2" style="isolation: isolate"/>
    <polygon points="307.79 205.32 301.24 205.32 301.24 212.5 296.01 212.5 296.01 205.32 289.91 205.32 289.91 212.5 284.68 212.5 284.68 205.32 278.58 205.32 278.58 212.5 273.34 212.5 273.34 205.32 267.25 205.32 267.25 212.5 262.01 212.5 262.01 205.32 255.91 205.32 255.91 212.5 250.68 212.5 250.68 205.32 244.58 205.32 244.58 212.5 239.35 212.5 239.35 205.32 233.25 205.32 233.25 212.5 228.02 212.5 228.02 205.32 221.92 205.32 221.92 212.5 216.69 212.5 216.69 205.32 210.14 205.32 198.67 302.94 319.26 302.94 307.79 205.32" fill="#407bff"/>
    <polygon points="319.25 302.94 198.67 302.94 205.42 245.43 210.13 205.32 216.69 205.32 216.69 212.5 221.92 212.5 221.92 205.32 228.02 205.32 228.02 212.5 233.26 212.5 233.26 205.32 239.35 205.32 239.35 212.5 244.59 212.5 244.59 205.32 250.69 205.32 250.69 212.5 255.92 212.5 255.92 205.32 262.02 205.32 262.02 212.5 267.25 212.5 267.25 205.32 273.35 205.32 273.35 212.5 278.58 212.5 278.58 205.32 284.68 205.32 284.68 212.5 289.91 212.5 289.91 205.32 296.01 205.32 296.01 212.5 301.24 212.5 301.24 205.32 307.8 205.32 312.5 245.43 319.25 302.94" fill="#fff" opacity="0.3" style="isolation: isolate"/>
    <polygon points="319.25 302.94 198.67 302.94 205.42 245.43 214.58 245.43 214.58 248.96 220.07 248.96 220.07 245.43 226.48 245.43 226.48 248.96 231.97 248.96 231.97 245.43 238.37 245.43 238.37 248.96 243.87 248.96 243.87 245.43 250.27 245.43 250.27 248.96 255.76 248.96 255.76 245.43 262.17 245.43 262.17 248.96 267.66 248.96 267.66 245.43 274.07 245.43 274.07 248.96 279.56 248.96 279.56 245.43 285.96 245.43 285.96 248.96 291.45 248.96 291.45 245.43 297.86 245.43 297.86 248.96 303.35 248.96 303.35 245.43 312.5 245.43 319.25 302.94" opacity="0.2" style="isolation: isolate"/>
    <g opacity="0.2">
      <circle cx="219.7" cy="217.4" r="1.12"/>
      <circle cx="241.77" cy="250.82" r="1.12"/>
      <path d="M285.74,263.89a1.12,1.12,0,1,1-1.12-1.12h0A1.12,1.12,0,0,1,285.74,263.89Z" transform="translate(-56.11 -37.06)"/>
      <circle cx="281.47" cy="247.76" r="1.12"/>
      <circle cx="264.11" cy="250.15" r="1.12"/>
      <path d="M269.64,265.05a.56.56,0,1,1-.56-.56h0A.56.56,0,0,1,269.64,265.05Z" transform="translate(-56.11 -37.06)"/>
      <path d="M276.7,288.33a.89.89,0,1,1-.9-.88h0A.89.89,0,0,1,276.7,288.33Z" transform="translate(-56.11 -37.06)"/>
      <path d="M275.13,276.15a.44.44,0,0,1-.44.44h0a.45.45,0,0,1,0-.89A.46.46,0,0,1,275.13,276.15Z" transform="translate(-56.11 -37.06)"/>
      <path d="M292.46,246.5a.45.45,0,0,1-.9,0,.46.46,0,0,1,.44-.45.45.45,0,0,1,.46.44Z" transform="translate(-56.11 -37.06)"/>
      <path d="M360.44,261.05a.43.43,0,0,1-.42.44h0a.44.44,0,0,1-.44-.44h0a.44.44,0,0,1,.44-.44h0a.44.44,0,0,1,.44.44Z" transform="translate(-56.11 -37.06)"/>
      <path d="M265.33,289.22a.45.45,0,1,1-.38-.38A.45.45,0,0,1,265.33,289.22Z" transform="translate(-56.11 -37.06)"/>
      <path d="M353.91,275.05a.56.56,0,1,1-.56-.56.56.56,0,0,1,.56.56Z" transform="translate(-56.11 -37.06)"/>
      <path d="M366.77,285.19a.89.89,0,1,1-.9-.88h0a.87.87,0,0,1,.88.88Z" transform="translate(-56.11 -37.06)"/>
      <path d="M356.12,291.65a.89.89,0,1,1-.9-.88h0a.87.87,0,0,1,.88.88Z" transform="translate(-56.11 -37.06)"/>
      <path d="M350.26,253.34a.44.44,0,0,1-.44.44h0a.45.45,0,1,1,.44-.46Z" transform="translate(-56.11 -37.06)"/>
      <path d="M358.68,247.5a.45.45,0,1,1-.46-.44h0A.46.46,0,0,1,358.68,247.5Z" transform="translate(-56.11 -37.06)"/>
      <circle cx="227.95" cy="238.52" r="0.56"/>
      <path d="M297.12,261.05a.56.56,0,1,1-.56-.56h0A.56.56,0,0,1,297.12,261.05Z" transform="translate(-56.11 -37.06)"/>
      <path d="M314.25,247.05a.56.56,0,1,1-.56-.56h0A.56.56,0,0,1,314.25,247.05Z" transform="translate(-56.11 -37.06)"/>
      <circle cx="254.64" cy="225.62" r="1.12"/>
      <circle cx="268.9" cy="218.52" r="1.12"/>
      <circle cx="277.71" cy="227.95" r="1.12"/>
      <path d="M318.08,272.29a.56.56,0,1,1-1.12,0h0a.56.56,0,1,1,1.12,0Z" transform="translate(-56.11 -37.06)"/>
      <path d="M303.82,277.83a.56.56,0,1,1-.56-.56h0A.56.56,0,0,1,303.82,277.83Z" transform="translate(-56.11 -37.06)"/>
      <path d="M333.82,276.71a.56.56,0,1,1-.56-.56h0A.56.56,0,0,1,333.82,276.71Z" transform="translate(-56.11 -37.06)"/>
      <path d="M346.32,262.12a.56.56,0,1,1-.56-.56h0A.56.56,0,0,1,346.32,262.12Z" transform="translate(-56.11 -37.06)"/>
    </g>
    <path d="M332.7,278.05l-.5-10a5.64,5.64,0,0,0-5.63-5.26,5.11,5.11,0,0,0-5.2,5v.24l.31,10Z" transform="translate(-56.11 -37.06)" fill="#407bff"/>
    <path d="M356.82,278.05l-.88-10a5.89,5.89,0,0,0-5.82-5.26,4.88,4.88,0,0,0-5,4.76,4.13,4.13,0,0,0,0,.5l.68,10Z" transform="translate(-56.11 -37.06)" fill="#407bff"/>
    <path d="M284.36,278.05l.68-10a4.9,4.9,0,0,0-4.53-5.25H280a5.89,5.89,0,0,0-5.82,5.26l-.88,10Z" transform="translate(-56.11 -37.06)" fill="#407bff"/>
    <path d="M308.47,278.05l.31-10a5.12,5.12,0,0,0-5-5.26h-.24a5.64,5.64,0,0,0-5.63,5.26l-.51,10Z" transform="translate(-56.11 -37.06)" fill="#407bff"/>
    <g opacity="0.2">
      <path d="M332.7,278.05l-.5-10a5.64,5.64,0,0,0-5.63-5.26,5.11,5.11,0,0,0-5.2,5v.24l.31,10Z" transform="translate(-56.11 -37.06)"/>
      <path d="M356.82,278.05l-.88-10a5.89,5.89,0,0,0-5.82-5.26,4.88,4.88,0,0,0-5,4.76,4.13,4.13,0,0,0,0,.5l.68,10Z" transform="translate(-56.11 -37.06)"/>
      <path d="M284.36,278.05l.68-10a4.9,4.9,0,0,0-4.53-5.25H280a5.89,5.89,0,0,0-5.82,5.26l-.88,10Z" transform="translate(-56.11 -37.06)"/>
      <path d="M308.47,278.05l.31-10a5.12,5.12,0,0,0-5-5.26h-.24a5.64,5.64,0,0,0-5.63,5.26l-.51,10Z" transform="translate(-56.11 -37.06)"/>
    </g>
    <g opacity="0.2">
      <path d="M330.7,278.05l-.35-7.06a4,4,0,0,0-4-3.71,3.6,3.6,0,0,0-3.66,3.54V271l.22,7.06Z" transform="translate(-56.11 -37.06)"/>
      <path d="M354.13,278.05l-.62-7.06a4.15,4.15,0,0,0-4.1-3.71,3.46,3.46,0,0,0-3.53,3.37c0,.11,0,.23,0,.34l.48,7.06Z" transform="translate(-56.11 -37.06)"/>
      <path d="M283.76,278.05l.48-7.06a3.45,3.45,0,0,0-3.18-3.7h-.34a4.15,4.15,0,0,0-4.1,3.71l-.62,7.06Z" transform="translate(-56.11 -37.06)"/>
      <path d="M307.19,278.05l.22-7.06a3.6,3.6,0,0,0-3.49-3.71h-.17a4,4,0,0,0-4,3.71l-.35,7.06Z" transform="translate(-56.11 -37.06)"/>
    </g>
    <polygon points="330.94 249.54 323.9 249.54 323.9 256.54 318.67 256.54 318.67 249.54 312.57 249.54 312.57 256.54 307.34 256.54 307.34 249.54 301.24 249.54 301.24 256.54 296.01 256.54 296.01 249.54 289.91 249.54 289.91 256.54 284.68 256.54 284.68 249.54 278.58 249.54 278.58 256.54 273.34 256.54 273.34 249.54 267.25 249.54 267.25 256.54 262.01 256.54 262.01 249.54 255.91 249.54 255.91 256.54 250.68 256.54 250.68 249.54 244.58 249.54 244.58 256.54 239.35 256.54 239.35 249.54 233.25 249.54 233.25 256.54 228.02 256.54 228.02 249.54 221.92 249.54 221.92 256.54 216.69 256.54 216.69 249.54 210.59 249.54 210.59 256.54 205.36 256.54 205.36 249.54 199.26 249.54 199.26 256.54 194.03 256.54 194.03 249.54 186.99 249.54 178.54 323.31 339.39 323.31 330.94 249.54" fill="#407bff"/>
    <polygon points="330.94 249.54 323.9 249.54 323.9 256.54 318.67 256.54 318.67 249.54 312.57 249.54 312.57 256.54 307.34 256.54 307.34 249.54 301.24 249.54 301.24 256.54 296.01 256.54 296.01 249.54 289.91 249.54 289.91 256.54 284.68 256.54 284.68 249.54 278.58 249.54 278.58 256.54 273.34 256.54 273.34 249.54 267.25 249.54 267.25 256.54 262.01 256.54 262.01 249.54 255.91 249.54 255.91 256.54 250.68 256.54 250.68 249.54 244.58 249.54 244.58 256.54 239.35 256.54 239.35 249.54 233.25 249.54 233.25 256.54 228.02 256.54 228.02 249.54 221.92 249.54 221.92 256.54 216.69 256.54 216.69 249.54 210.59 249.54 210.59 256.54 205.36 256.54 205.36 249.54 199.26 249.54 199.26 256.54 194.03 256.54 194.03 249.54 186.99 249.54 178.54 323.31 339.39 323.31 330.94 249.54" fill="#fff" opacity="0.3" style="isolation: isolate"/>
    <g opacity="0.2">
      <path d="M264,320.49a1.12,1.12,0,1,1-1.12-1.12h0A1.13,1.13,0,0,1,264,320.49Z" transform="translate(-56.11 -37.06)"/>
      <circle cx="221.02" cy="276.33" r="1.12"/>
      <circle cx="247.35" cy="314.64" r="1.12"/>
      <circle cx="229.83" cy="285.76" r="1.12"/>
      <circle cx="282.79" cy="306.69" r="1.12"/>
      <path d="M322.67,346.14a1.13,1.13,0,1,1-1.14-1.12h0A1.12,1.12,0,0,1,322.67,346.14Z" transform="translate(-56.11 -37.06)"/>
      <path d="M270.2,330.1a.56.56,0,1,1-.56-.56h0A.56.56,0,0,1,270.2,330.1Z" transform="translate(-56.11 -37.06)"/>
      <path d="M252,336.2a.89.89,0,1,1-.89-.89.87.87,0,0,1,.89.87Z" transform="translate(-56.11 -37.06)"/>
      <path d="M264.88,303.27a.89.89,0,0,1-1,.79.87.87,0,0,1-.79-.79.89.89,0,1,1,1.77-.19A.61.61,0,0,1,264.88,303.27Z" transform="translate(-56.11 -37.06)"/>
      <path d="M282.84,347.7a.89.89,0,1,1-.9-.88h0A.89.89,0,0,1,282.84,347.7Z" transform="translate(-56.11 -37.06)"/>
      <path d="M262.2,339.78a.45.45,0,1,1-.46-.44h0A.46.46,0,0,1,262.2,339.78Z" transform="translate(-56.11 -37.06)"/>
      <circle cx="233.84" cy="267.09" r="0.44"/>
      <path d="M384.72,298.36a.45.45,0,1,1-.38-.38A.45.45,0,0,1,384.72,298.36Z" transform="translate(-56.11 -37.06)"/>
      <path d="M265.77,352.94a.45.45,0,1,1-.38-.38A.45.45,0,0,1,265.77,352.94Z" transform="translate(-56.11 -37.06)"/>
      <path d="M245.52,351.79a.44.44,0,0,1-.44.44h0a.44.44,0,0,1-.44-.44h0a.43.43,0,0,1,.42-.44h0a.44.44,0,0,1,.44.44Z" transform="translate(-56.11 -37.06)"/>
      <path d="M385.4,328.42a.57.57,0,1,1-.58-.56h0A.57.57,0,0,1,385.4,328.42Z" transform="translate(-56.11 -37.06)"/>
      <path d="M368.66,325.05a.59.59,0,0,1-.57.57.57.57,0,0,1-.56-.57.56.56,0,0,1,.56-.56A.57.57,0,0,1,368.66,325.05Z" transform="translate(-56.11 -37.06)"/>
      <path d="M355.24,334a.56.56,0,0,1-.56.56.57.57,0,0,1-.57-.56.59.59,0,0,1,.57-.57A.57.57,0,0,1,355.24,334Z" transform="translate(-56.11 -37.06)"/>
      <path d="M368.09,344.12a.89.89,0,1,1-.9-.88h0a.87.87,0,0,1,.88.88Z" transform="translate(-56.11 -37.06)"/>
      <path d="M346.52,306.88a.89.89,0,0,1-1,.79.87.87,0,0,1-.79-.79.89.89,0,0,1,1.77-.19A.61.61,0,0,1,346.52,306.88Z" transform="translate(-56.11 -37.06)"/>
      <path d="M355,352.5a.89.89,0,1,1-.89-.89.87.87,0,0,1,.89.87Z" transform="translate(-56.11 -37.06)"/>
      <circle cx="320.84" cy="301.04" r="0.44"/>
      <path d="M381,351.26a.44.44,0,1,1-.44-.44A.44.44,0,0,1,381,351.26Z" transform="translate(-56.11 -37.06)"/>
      <path d="M360,306.43a.46.46,0,0,1-.44.45.45.45,0,1,1,.44-.46Z" transform="translate(-56.11 -37.06)"/>
      <path d="M251.57,314.51a.43.43,0,0,1-.42.44h0a.44.44,0,0,1-.44-.44h0a.44.44,0,0,1,.44-.44h0a.44.44,0,0,1,.44.44Z" transform="translate(-56.11 -37.06)"/>
      <path d="M285.94,334.52a.56.56,0,1,1-.56-.56h0A.56.56,0,0,1,285.94,334.52Z" transform="translate(-56.11 -37.06)"/>
      <path d="M298.44,319.93a.56.56,0,1,1-.56-.56h0A.56.56,0,0,1,298.44,319.93Z" transform="translate(-56.11 -37.06)"/>
      <path d="M312.64,304.15a.56.56,0,1,1-.56-.56h0A.56.56,0,0,1,312.64,304.15Z" transform="translate(-56.11 -37.06)"/>
      <circle cx="255.97" cy="284.55" r="1.12"/>
      <circle cx="270.22" cy="277.45" r="1.12"/>
      <circle cx="279.03" cy="286.88" r="1.12"/>
      <circle cx="321.71" cy="276.33" r="1.12"/>
      <path d="M319.4,331.22a.56.56,0,1,1-.56-.56h0A.57.57,0,0,1,319.4,331.22Z" transform="translate(-56.11 -37.06)"/>
      <path d="M305.15,336.76a.56.56,0,1,1-.56-.56h0A.56.56,0,0,1,305.15,336.76Z" transform="translate(-56.11 -37.06)"/>
      <path d="M335.14,335.64a.56.56,0,1,1-.56-.56h0A.56.56,0,0,1,335.14,335.64Z" transform="translate(-56.11 -37.06)"/>
      <path d="M347.64,321.05a.56.56,0,0,1-1.12,0h0a.56.56,0,0,1,1.12,0Z" transform="translate(-56.11 -37.06)"/>
    </g>
    <path d="M346.05,329.11l-.51-10a5.64,5.64,0,0,0-5.63-5.27,5.11,5.11,0,0,0-5.2,5v.23l.31,10Z" transform="translate(-56.11 -37.06)" fill="#407bff"/>
    <path d="M376.84,329.11,376,319.05a5.92,5.92,0,0,0-5.83-5.27,4.89,4.89,0,0,0-5,4.78,4,4,0,0,0,0,.49l.68,10Z" transform="translate(-56.11 -37.06)" fill="#407bff"/>
    <path d="M264.34,329.11l.68-10a4.9,4.9,0,0,0-4.51-5.26H260a5.9,5.9,0,0,0-5.82,5.27l-.88,10Z" transform="translate(-56.11 -37.06)" fill="#407bff"/>
    <path d="M295.12,329.11l.31-10a5.12,5.12,0,0,0-5-5.27h-.23a5.65,5.65,0,0,0-5.63,5.21l-.5,10Z" transform="translate(-56.11 -37.06)" fill="#407bff"/>
    <g opacity="0.2">
      <path d="M346.05,329.11l-.51-10a5.64,5.64,0,0,0-5.63-5.27,5.11,5.11,0,0,0-5.2,5v.23l.31,10Z" transform="translate(-56.11 -37.06)"/>
      <path d="M376.84,329.11,376,319.05a5.92,5.92,0,0,0-5.83-5.27,4.89,4.89,0,0,0-5,4.78,4,4,0,0,0,0,.49l.68,10Z" transform="translate(-56.11 -37.06)"/>
      <path d="M264.34,329.11l.68-10a4.9,4.9,0,0,0-4.51-5.26H260a5.9,5.9,0,0,0-5.82,5.27l-.88,10Z" transform="translate(-56.11 -37.06)"/>
      <path d="M295.12,329.11l.31-10a5.12,5.12,0,0,0-5-5.27h-.23a5.65,5.65,0,0,0-5.63,5.21l-.5,10Z" transform="translate(-56.11 -37.06)"/>
    </g>
    <g opacity="0.2">
      <path d="M344.5,329.11l-.38-7.59a4.27,4.27,0,0,0-4.26-4,3.87,3.87,0,0,0-3.94,3.8v.2l.23,7.59Z" transform="translate(-56.11 -37.06)"/>
      <path d="M374.87,329.11l-.67-7.59a4.45,4.45,0,0,0-4.41-4,3.71,3.71,0,0,0-3.8,3.62c0,.13,0,.25,0,.38l.52,7.59Z" transform="translate(-56.11 -37.06)"/>
      <path d="M263.66,329.11l.52-7.59a3.71,3.71,0,0,0-3.41-4h-.38a4.48,4.48,0,0,0-4.41,4l-.67,7.59Z" transform="translate(-56.11 -37.06)"/>
      <path d="M294,329.11l.23-7.59a3.87,3.87,0,0,0-3.74-4h-.2a4.27,4.27,0,0,0-4.26,4l-.38,7.59Z" transform="translate(-56.11 -37.06)"/>
    </g>
    <path d="M315.07,319.93h0a10.21,10.21,0,0,0-10.21,10.21v30.23h20.42V330.14a10.21,10.21,0,0,0-10.21-10.21Z" transform="translate(-56.11 -37.06)" fill="#407bff"/>
    <path d="M315.07,319.93h0a10.21,10.21,0,0,0-10.21,10.21v30.23h20.42V330.14a10.21,10.21,0,0,0-10.21-10.21Z" transform="translate(-56.11 -37.06)" opacity="0.2" style="isolation: isolate"/>
    <path d="M315.07,329.05a7.91,7.91,0,0,0-7.91,7.91h0v23.42H323V337A7.92,7.92,0,0,0,315.07,329.05Z" transform="translate(-56.11 -37.06)" opacity="0.2" style="isolation: isolate"/>
  </g>
  <g id="Character">
    <g id="_Group_" data-name=" Group ">
      <path d="M182,225.4c0,2-5.9,6.57-7.57,5.47s-4.85-8.78-4.85-8.78-13.13,2.52-17.81,1.67a3.5,3.5,0,0,1-1-.3c-3.3-1.61-7.55-26.46-7.55-26.46l1.76-2,5.79-6.7c4.35,4.83,5.37,25.68,5.37,25.68l15.56,4.07s3.22-1.72,5.7,0S182,223.42,182,225.4Z" transform="translate(-56.11 -37.06)" fill="#ebb376"/>
      <path d="M151.76,223.76a3.5,3.5,0,0,1-1-.3c-3.3-1.61-7.55-26.46-7.55-26.46l1.76-2a4,4,0,0,1,2.77,1.24C151.59,200.16,154.79,215.45,151.76,223.76Z" transform="translate(-56.11 -37.06)" opacity="0.2" style="isolation: isolate"/>
      <path d="M146.45,354.71c-3.73-.42-12.67-2.66-12.32-6.69,0,0-8.81-4-10.39,0a82.19,82.19,0,0,0-2.14,8.62,1.59,1.59,0,0,0,1.48,1.7c3.55.16,5.26.06,9.73.3,2.75.17,8.16.75,12,.39S148.09,354.89,146.45,354.71Z" transform="translate(-56.11 -37.06)" fill="#ebb376"/>
      <path d="M92.61,354.71c-3.79-.43-12.49-3.38-11.6-6.71,0,0-9.51-4.5-11.48,0-.73,1.66-.9,7.2-.9,7.2-.93,2.27-.27,3,.61,3.1,3.55.16,5.25.06,9.73.3,2.75.17,8.16.75,12,.39S94.25,354.89,92.61,354.71Z" transform="translate(-56.11 -37.06)" fill="#ebb376"/>
      <path d="M150.74,188.27c-2.83,5.36-4.58,13.37-5.66,21.16a205.83,205.83,0,0,0-1.7,21.18l-50.21-9.05.06-.29c.9-4.88,2-9.56,3.09-13.94.56-2.17,1.13-4.27,1.71-6.28.14-.5.27-1,.41-1.44.19-.63.37-1.25.56-1.87,1.6-5.31,3.19-9.91,4.52-13.5,2-5.37,3.36-8.52,3.36-8.52a33.29,33.29,0,0,1,8.63-.4q2.46.12,5.61.55a84.28,84.28,0,0,1,9.94,2.06A63.26,63.26,0,0,1,141,181.4a37.84,37.84,0,0,1,3.64,1.87h0C149.32,186.05,150.74,188.27,150.74,188.27Z" transform="translate(-56.11 -37.06)" fill="#ebb376"/>
      <path d="M120.77,178.74l12,6.81,5.14-1.4a8.84,8.84,0,0,1-1-2.47c-1.41-5.72,4.51-9.4,4.51-9.4l-4.95-2.95-10.88-6.47C128.14,173.79,120.77,178.74,120.77,178.74Z" transform="translate(-56.11 -37.06)" fill="#ebb376"/>
      <path d="M126.4,167.52s2.65,11.82,10.48,14.16c-1.41-5.72,4.51-9.4,4.51-9.4l-4.95-2.95Z" transform="translate(-56.11 -37.06)" opacity="0.2" style="isolation: isolate"/>
      <path d="M158.83,141s8.09,14.61-9.47,20C129.52,167.05,158.83,141,158.83,141Z" transform="translate(-56.11 -37.06)" fill="#263238"/>
      <path d="M123.29,145.79c-3,9.52-1.83,21.84,5.3,26.26,13.08,8.12,19.65,7.59,25.34-2.24,5.16-8.84,7.71-25-2.84-32.38S127.45,132.59,123.29,145.79Z" transform="translate(-56.11 -37.06)" fill="#ebb376"/>
      <path d="M157.8,147.68a27.54,27.54,0,0,1-14-4.58s-11.63.06-12.92,6.89-4.38,6-8,14.28c0,0-8.35-4.53-2.42-23.46,4.31-13.8,18-14.39,29.86-9.43C160.29,135.54,164.5,145.54,157.8,147.68Z" transform="translate(-56.11 -37.06)" fill="#263238"/>
      <path d="M143.38,156.82c-.42,1.19-.13,2.4.66,2.66s1.75-.48,2.18-1.67.11-2.38-.67-2.66S143.8,155.63,143.38,156.82Z" transform="translate(-56.11 -37.06)" fill="#263238"/>
      <path d="M153.1,159.7c-.4,1.14-.12,2.29.63,2.55s1.68-.46,2.08-1.6.12-2.28-.63-2.55S153.5,158.56,153.1,159.7Z" transform="translate(-56.11 -37.06)" fill="#263238"/>
      <path d="M148.92,152.05a.72.72,0,0,0,.29-.2.59.59,0,0,0-.2-.8h0a5.6,5.6,0,0,0-5.2-.36.57.57,0,0,0-.26.75h0a.6.6,0,0,0,.77.25h0a4.48,4.48,0,0,1,4.13.37A.55.55,0,0,0,148.92,152.05Z" transform="translate(-56.11 -37.06)" fill="#263238"/>
      <path d="M158,155.76a.69.69,0,0,0,.35,0,.58.58,0,0,0,.19-.79,5.62,5.62,0,0,0-4.39-2.8.57.57,0,0,0-.59.55h0a.6.6,0,0,0,.56.58h0a4.5,4.5,0,0,1,3.45,2.3A.57.57,0,0,0,158,155.76Z" transform="translate(-56.11 -37.06)" fill="#263238"/>
      <path d="M150.75,160.43l-3,4.63a6.8,6.8,0,0,0,3.87,1.14A16.15,16.15,0,0,1,150.75,160.43Z" transform="translate(-56.11 -37.06)" fill="#d58745"/>
      <path d="M131.51,155.53s-.32-6.65-3.95-6-6.64,10.48-2.24,12.12S132.34,159.36,131.51,155.53Z" transform="translate(-56.11 -37.06)" fill="#ebb376"/>
      <path d="M146.42,169.21a30.7,30.7,0,0,0-3.71,2.72c-.21-.17-.42-.34-.61-.52-2.78-2.41-3.27-4.44-3-6a4.73,4.73,0,0,1,1-2,4.32,4.32,0,0,1,.92-.89c.71,2.15,3.12,4.59,4.46,5.84A7.26,7.26,0,0,0,146.42,169.21Z" transform="translate(-56.11 -37.06)" fill="#263238"/>
      <path d="M145.48,168.38l-1.11.77c-2.61-2.27-4.14-4.22-4.27-5.72a4.32,4.32,0,0,1,.92-.89C141.73,164.69,144.14,167.13,145.48,168.38Z" transform="translate(-56.11 -37.06)" fill="#fff"/>
      <path d="M142.1,171.41c-2.78-2.41-3.27-4.44-3-6a12.13,12.13,0,0,1,2.55,3.28A4.5,4.5,0,0,1,142.1,171.41Z" transform="translate(-56.11 -37.06)" fill="#de5753"/>
      <path d="M157.32,136.05s10.18,5.91,4.51,19.54l-.22-5.48a12.49,12.49,0,0,1-1.93,5.09l-7.79-2,.86-4.68-2.82,4.32-9.66-3.41,2.69-3.68s-9.26,3.35-13.36-.8S138.36,125.37,157.32,136.05Z" transform="translate(-56.11 -37.06)" fill="#263238"/>
      <path d="M139.49,131.05s3.94-10.61-5.64-16.56-26.26,10.81-26.26,10.81l3.94,7.09,6.47-5.21-5.74,6.73,6.06-4.61-3.72,5,2.94,1.54s7.52-10.5,12.93-10.94,4.53,7.45,4.53,7.45Z" transform="translate(-56.11 -37.06)" fill="#263238"/>
      <path d="M143.38,230.61a23.31,23.31,0,0,1,.44,5,48.33,48.33,0,0,1-1.53,11.73c-.28,1.16-.62,2.37-1,3.63-1.46,4.7-5.39,9.21-10.43,12.54a34.64,34.64,0,0,1-6.94,3.54,27.47,27.47,0,0,1-13.75,1.7,18.8,18.8,0,0,1-8.64-3.63,49.49,49.49,0,0,1-9.38-8.85,22.36,22.36,0,0,1-3.36-6.11c-1.85-5.19-1.72-11.48,1-20a85.65,85.65,0,0,1,3.35-8.61l.06-.29c.3-1.41,1.66-7.68,3.16-13.82.54-2.23,1.1-4.45,1.64-6.4.14-.5.27-1,.41-1.44.19-.67.38-1.3.56-1.87a18.16,18.16,0,0,0,8.23,0c5.42-1.42,11.06-6.51,8.28-22.39l-.09-.53,5.25-.12s.15.45.45,1.2c1.36,3.61,5.75,14.13,10.68,15.08,6.26,1.21,9.17-9.55,9.17-9.55l3.64,1.87h0s-1.87,16.29.45,26.15c.09.38.19.76.29,1.12Z" transform="translate(-56.11 -37.06)" fill="#407bff"/>
      <path d="M111,263.21q-.39,2.79-.86,5.54C102.37,314.31,79,351.33,79,351.33l-9.58-2.93s19-42.25,19.37-91.7c0-2.17,0-4.35-.07-6.54,0-1.76-.12-3.53-.22-5.31a12.42,12.42,0,0,1,13.53,1.2,23.27,23.27,0,0,1,8.83,15.34A12.27,12.27,0,0,1,111,263.21Z" transform="translate(-56.11 -37.06)" fill="#ebb376"/>
      <path d="M132.38,352.93l-10-.83s13.66-39.54,1.48-84.93v-.12a33,33,0,0,1,2.26-5.13,35.27,35.27,0,0,1,3.78-5.68,29.61,29.61,0,0,1,12.34-8.9l.2-.07c.64,3.66,1.15,7.3,1.54,10.89C149.68,309.41,132.38,352.93,132.38,352.93Z" transform="translate(-56.11 -37.06)" fill="#ebb376"/>
      <path d="M144,258.16a3.45,3.45,0,0,0-4.32.81c-2.46,2.53-5.44,4.67-8.86,4.54a9.11,9.11,0,0,1-4.68-1.59c-5.43-3.52-7.83-.64-13.76-.39a5.9,5.9,0,0,1-1.51-.13c-5.36-1-10.33-8.07-14.18-6.37a20.16,20.16,0,0,1-4.58,1.24c-1.11.18-2.24.33-3.29.43,0-2.17,0-4.35-.07-6.54-1.85-5.19-1.72-11.48,1-20l54,5.44a48.33,48.33,0,0,1-1.53,11.73l.2-.07C143.13,250.93,143.64,254.57,144,258.16Z" transform="translate(-56.11 -37.06)" opacity="0.2" style="isolation: isolate"/>
      <path d="M92.68,224.25,78.37,246.91s6.07,7.64,13.33,3,10.93,3.4,17.45,5.58,8.74-3.54,13.12-2.36,5.77,7.46,9.83,5.39,9.53-6.14,12.69-1.79,8,.84,8,.84l-9.4-28Z" transform="translate(-56.11 -37.06)" fill="#407bff"/>
      <path d="M92.68,224.25,78.37,246.91s6.07,7.64,13.33,3,10.93,3.4,17.45,5.58,8.74-3.54,13.12-2.36,5.77,7.46,9.83,5.39,9.53-6.14,12.69-1.79,8,.84,8,.84l-9.4-28Z" transform="translate(-56.11 -37.06)" fill="#fff" opacity="0.1" style="isolation: isolate"/>
      <path d="M157.58,242.46l2.53-6.84,5.45-14.72-18.68-5.26c-3.76-1.4-9.57,5-13,14.16s-3.12,17.81.64,19.21l17.6,8.17Z" transform="translate(-56.11 -37.06)" fill="#263238"/>
      <path d="M157.58,242.46l2.53-6.84,5.45-14.72-18.68-5.26c-3.76-1.4-9.57,5-13,14.16s-3.12,17.81.64,19.21l17.6,8.17Z" transform="translate(-56.11 -37.06)" fill="#fff" opacity="0.3" style="isolation: isolate"/>
      <path d="M152.37,258.57l.28.14,5.73,2.82,2.47-6.68a44.58,44.58,0,0,0,9.81-26.5l2.48-6.68-6.56-1.74V220c-4.36-.77-10.66,6.38-14.43,16.56s-3.65,19.71.16,22h0Z" transform="translate(-56.11 -37.06)" fill="#263238"/>
      <path d="M152.37,258.57l.28.14,5.73,2.82,2.47-6.68a44.58,44.58,0,0,0,9.81-26.5l2.48-6.68-6.56-1.74V220c-4.36-.77-10.66,6.38-14.43,16.56s-3.65,19.71.16,22h0Z" transform="translate(-56.11 -37.06)" fill="#fff" opacity="0.4" style="isolation: isolate"/>
      <path d="M157.6,238.58c4.14-11.18,11.11-18.56,15.88-16.79s5.25,11.9,1.11,23.08-11.11,18.55-15.88,16.79S153.46,249.76,157.6,238.58Z" transform="translate(-56.11 -37.06)" fill="#263238"/>
      <path d="M157.6,238.58c4.14-11.18,11.11-18.56,15.88-16.79s5.25,11.9,1.11,23.08-11.11,18.55-15.88,16.79S153.46,249.76,157.6,238.58Z" transform="translate(-56.11 -37.06)" fill="#fff" opacity="0.5" style="isolation: isolate"/>
      <ellipse cx="166.08" cy="241.72" rx="19.58" ry="7.99" transform="translate(-174.38 276.46) rotate(-69.68)" fill="#263238"/>
      <path d="M107,218.56c-4.52-1.25-8.11-6.25-10.63-11.11a.75.75,0,0,0-.07-.12c.56-2.17,1.13-4.27,1.71-6.28.14-.5.27-1,.41-1.44.19-.67.38-1.3.56-1.87,1.6-5.31,3.19-9.91,4.52-13.5,1.24,4.13,2.58,8.86,3.71,13.47C110,209.15,111.55,219.81,107,218.56Z" transform="translate(-56.11 -37.06)" opacity="0.2" style="isolation: isolate"/>
      <path d="M106.88,175.72c-7.44,1.3-9,36.49-4.28,44.21s21.34,16.38,21.34,16.38,7.57,10.38,9.08,11.54,6.69-1.21,6.69-1.21-4.56-13.24-5.93-13.61-5.41,1.48-5.41,1.48-15.91-17.19-16.17-19.06-.63-19.61,1.48-27.36Z" transform="translate(-56.11 -37.06)" fill="#ebb376"/>
      <path d="M198.87,284c1.32,4.1,2.37,6.32,2.11,10s-1.32,3.78-2.64,3.44,2.37,12,1.32,16.76-3.43-.91-5.8-14c-2.35-12.94-22.22-36.29-34.13-39.9l-.43-.12c-4-1.46-4.42-10.13-1.2-19.72a59.36,59.36,0,0,1,15.13,5.06A50.24,50.24,0,0,1,182,251c12.16,9.53,21.89,23,19.78,27.37S197.55,279.86,198.87,284Z" transform="translate(-56.11 -37.06)" fill="#407bff"/>
      <path d="M198.87,284c1.32,4.1,2.37,6.32,2.11,10s-1.32,3.78-2.64,3.44,2.37,12,1.32,16.76-3.43-.91-5.8-14c-2.35-12.94-22.22-36.29-34.13-39.9l-.43-.12c-4-1.46-4.42-10.13-1.2-19.72a59.36,59.36,0,0,1,15.13,5.06A50.24,50.24,0,0,1,182,251c12.16,9.53,21.89,23,19.78,27.37S197.55,279.86,198.87,284Z" transform="translate(-56.11 -37.06)" fill="#fff" opacity="0.3" style="isolation: isolate"/>
      <path d="M161.25,256.05s10.57,4.9,16.15,11.59,8.74,9.49,12.3,16.39,2.77-2.58,0-8.52-3.95-5.14-2.77-5.93,6.33,7.32,6.93,5.34-4.55-10.59-4.35-11.72,3.45.36,4.39,1.49c0,0-8.75-11.33-17.85-14.69s2.06,4.79,1.53,7.44-7.41-2.73-8.13-2.51-.68,1.79-2.48,1.3S161.08,254.05,161.25,256.05Z" transform="translate(-56.11 -37.06)" fill="#fff" opacity="0.3" style="isolation: isolate"/>
      <g opacity="0.2">
        <circle cx="109.45" cy="217.96" r="1.21"/>
        <circle cx="121.41" cy="218.72" r="1.21"/>
        <circle cx="141.99" cy="252.69" r="1.21"/>
        <circle cx="130.92" cy="228.9" r="1.21"/>
        <path d="M164.31,244.86a1,1,0,1,1-.66-.66A1,1,0,0,1,164.31,244.86Z" transform="translate(-56.11 -37.06)"/>
        <path d="M199.05,305.43a1,1,0,1,1-1-1A1,1,0,0,1,199.05,305.43Z" transform="translate(-56.11 -37.06)"/>
        <path d="M186.3,258.05a.47.47,0,0,1-.48.48h0a.47.47,0,0,1-.48-.46v0a.47.47,0,0,1,.48-.48h0A.5.5,0,0,1,186.3,258.05Z" transform="translate(-56.11 -37.06)"/>
        <circle cx="117.03" cy="211.11" r="0.48"/>
        <circle cx="118.31" cy="228.9" r="0.48"/>
        <circle cx="130.31" cy="241.52" r="0.61"/>
        <circle cx="141.99" cy="236.15" r="1.21"/>
        <path d="M193.9,281.66a.6.6,0,0,1-.6.6h0a.61.61,0,0,1-.68-.53.6.6,0,0,1,.52-.68h.16a.6.6,0,0,1,.6.6Z" transform="translate(-56.11 -37.06)"/>
      </g>
    </g>
  </g>
  <g id="Sand">
    <path d="M146.19,356.48s9.86-21.43,15.91-23.43,9.3,3.22,13.58-2.11,5.62-7.35,7.9-9.3,7.78-15.43,10.16-16.55,3.71,9.49,7.15,10.62,6.06-1.3,9.11,3.65,1.52,14.45,7.16,15.88,8.71-.91,11.41,5,5.78,9,8.09,9,7.19,10.06,7.19,10.06H146.19Z" transform="translate(-56.11 -37.06)" fill="#407bff"/>
    <path d="M243.85,359.31H146.19v-2.83s1.88-4.08,4.5-8.85h0c3.37-6.15,8-13.44,11.4-14.6,3.71-1.25,6.37.24,8.85.35,1.57.08,3.07-.4,4.73-2.46,4.28-5.34,5.62-7.35,7.9-9.3,1.24-1.07,3.45-5.56,5.57-9.61,1.78-3.37,3.51-6.43,4.59-6.94,2.38-1.11,3.71,9.49,7.15,10.62s6.06-1.3,9.11,3.65a14.36,14.36,0,0,1,1.59,4.25c1,4.33,1.26,9.32,4.32,11.12a4.7,4.7,0,0,0,1.25.51c5.09,1.3,8.08-.48,10.59,3.5a12.48,12.48,0,0,1,.82,1.53c2.7,5.93,5.78,9,8.09,9S243.85,359.31,243.85,359.31Z" transform="translate(-56.11 -37.06)" fill="#fff" opacity="0.3" style="isolation: isolate"/>
    <path d="M211.59,323.59c-2.1,1.19-4.74-2.76-5.19.47-.6,4.25-1.59,3.08-6.51,0s-6.15,8.22-8.65,4.48,3.49-7.14-1.21-9.61c-1.82-1-1.7-3.8-.88-6.92,1.78-3.37,3.51-6.43,4.59-6.94,2.38-1.11,3.71,9.49,7.15,10.62s6.06-1.3,9.11,3.65A14.36,14.36,0,0,1,211.59,323.59Z" transform="translate(-56.11 -37.06)" fill="#fff" opacity="0.3" style="isolation: isolate"/>
    <path d="M227.75,338.72c-2.2,0-3.73-1.23-4.54,1.06-1.19,3.38,2.17,10.26-3.56,7.81s-9.1-.37-13.16,2.74-13.64,2.35-16.46.46-5.72,1.07-8.72,1.17-4.58-3.51-6.56-4.37-12.07,7.77-14.05,2.76c-1.7-4.32-5-2.89-10-2.72,3.37-6.15,8-13.44,11.4-14.6,3.71-1.25,6.37.24,8.85.35-.47,3-1.44,6.32,1.23,5.63,4.55-1.19,9.89-6.08,13.64-.67s10.66,10.5,15.22,5,7.53-5.54,9.71-5.82c1.59-.2,4.23-.27,5.16-2.8a4.7,4.7,0,0,0,1.25.51C222.25,336.52,225.24,334.74,227.75,338.72Z" transform="translate(-56.11 -37.06)" fill="#fff" opacity="0.3" style="isolation: isolate"/>
    <g opacity="0.2">
      <circle cx="145.32" cy="294.64" r="1.12"/>
      <circle cx="118.86" cy="310.52" r="1.12"/>
      <circle cx="119.98" cy="297.25" r="1.12"/>
      <circle cx="161.56" cy="315.65" r="1.12"/>
      <circle cx="144.2" cy="318.04" r="1.12"/>
      <path d="M231.47,357.56a.56.56,0,1,1-.56-.56.56.56,0,0,1,.56.56Z" transform="translate(-56.11 -37.06)"/>
      <path d="M170.59,356.23a.89.89,0,0,1-1,.79.87.87,0,0,1-.79-.79.89.89,0,0,1,1.77-.19A.61.61,0,0,1,170.59,356.23Z" transform="translate(-56.11 -37.06)"/>
      <path d="M155.22,344.05a.45.45,0,1,1-.46-.44h0A.46.46,0,0,1,155.22,344.05Z" transform="translate(-56.11 -37.06)"/>
      <path d="M186.62,322.49a.45.45,0,1,1-.38-.38A.45.45,0,0,1,186.62,322.49Z" transform="translate(-56.11 -37.06)"/>
      <path d="M159,354.9a.44.44,0,0,1-.44.44h0a.44.44,0,1,1,.44-.44Z" transform="translate(-56.11 -37.06)"/>
      <path d="M231.47,349a.56.56,0,1,1-1.12,0h0a.56.56,0,1,1,1.12,0Z" transform="translate(-56.11 -37.06)"/>
      <path d="M164.71,343.48a.56.56,0,1,1-.56-.56h0A.56.56,0,0,1,164.71,343.48Z" transform="translate(-56.11 -37.06)"/>
      <path d="M177.21,328.9a.56.56,0,1,1-.56-.56h0A.56.56,0,0,1,177.21,328.9Z" transform="translate(-56.11 -37.06)"/>
      <path d="M194.34,315a.56.56,0,1,1-.56-.56h0A.56.56,0,0,1,194.34,315Z" transform="translate(-56.11 -37.06)"/>
      <circle cx="134.73" cy="293.52" r="1.12"/>
      <circle cx="148.99" cy="286.41" r="1.12"/>
      <circle cx="157.8" cy="295.85" r="1.12"/>
      <path d="M198.17,340.19a.56.56,0,1,1-.56-.56h0A.56.56,0,0,1,198.17,340.19Z" transform="translate(-56.11 -37.06)"/>
      <path d="M183.91,345.73a.56.56,0,1,1-.56-.56.56.56,0,0,1,.56.56Z" transform="translate(-56.11 -37.06)"/>
      <path d="M213.91,344.6a.56.56,0,1,1-.56-.56h0A.56.56,0,0,1,213.91,344.6Z" transform="translate(-56.11 -37.06)"/>
      <path d="M221.91,340.75a.56.56,0,1,1-.56-.56h0A.56.56,0,0,1,221.91,340.75Z" transform="translate(-56.11 -37.06)"/>
    </g>
    <path d="M96.72,361.59h338.8a98.06,98.06,0,0,0-19-6.88C407,352.56,399.87,356,387.43,356s-20.38-6.07-31.16-6.14-17.43,8.5-29.12,8.5-18.91-3.64-28.77-3.64-27.09,6.1-31.19,3.64-17.94-5.56-24.75-5.79-19,8.25-22.3,5.79-3.86-6.56-9.44-8-13.21,5.51-19.33,2.23-17.3-11.37-24.92-6.93-16.85,12.81-23.22,9.08S110,354.05,96.72,361.59Z" transform="translate(-56.11 -37.06)" fill="#407bff"/>
    <path d="M96.72,361.59h338.8a98.06,98.06,0,0,0-19-6.88C407,352.56,399.87,356,387.43,356s-20.38-6.07-31.16-6.14-17.43,8.5-29.12,8.5-18.91-3.64-28.77-3.64-27.09,6.1-31.19,3.64-17.94-5.56-24.75-5.79-19,8.25-22.3,5.79-3.86-6.56-9.44-8-13.21,5.51-19.33,2.23-17.3-11.37-24.92-6.93-16.85,12.81-23.22,9.08S110,354.05,96.72,361.59Z" transform="translate(-56.11 -37.06)" fill="#fff" opacity="0.1" style="isolation: isolate"/>
  </g>
</svg>
