<svg xmlns="http://www.w3.org/2000/svg" xmlns:xlink="http://www.w3.org/1999/xlink" viewBox="0 0 106.14 69.9">
  <defs>
    <linearGradient id="linear-gradient" x1="36.54" y1="68.33" x2="61.15" y2="68.33" gradientUnits="userSpaceOnUse">
      <stop offset="0" stop-color="#f3b447"/>
      <stop offset="0.33" stop-color="#ffe289"/>
      <stop offset="0.55" stop-color="#ffe289"/>
      <stop offset="1" stop-color="#f3b447"/>
    </linearGradient>
  </defs>
  <g style="isolation: isolate">
    <g id="Layer_1" data-name="Layer 1">
      <g>
        <g>
          <path d="M29.35,45.17a33.79,33.79,0,0,0,9.47-2.79,22.87,22.87,0,0,0,7.31-5.85,8.52,8.52,0,0,0,2-2.58c.91-1.7,1.56-2.4,1.93-2.32.17,0,.39.2.07.74a26,26,0,0,0-1.38,2.84,17.33,17.33,0,0,1,2.06-1.79c1-.7,1.45-.68,1.66-.32s-.63.77-1.19,1.29-1.59,1.54-1.59,1.54a17.64,17.64,0,0,1,2.93-1.21c.36-.08.58,0,.66.21s0,.4-.72.7-2.13,1.08-2.13,1.08a13.6,13.6,0,0,1,1.65-.22c.69,0,1.33.16,1.33.47s-.35.37-1.26.36a5.73,5.73,0,0,0-1.65.25,2.37,2.37,0,0,1-2.86,1.29A44.33,44.33,0,0,1,40,45.47c-3,2-6.47,3.1-10,4.31Z" transform="translate(-1.73 -3.23)" fill="#f3d9bf"/>
          <path d="M29.35,45.17a33.79,33.79,0,0,0,9.47-2.79,22.87,22.87,0,0,0,7.31-5.85,8.52,8.52,0,0,0,2-2.58c.91-1.7,1.56-2.4,1.93-2.32.17,0,.39.2.07.74a26,26,0,0,0-1.38,2.84,17.33,17.33,0,0,1,2.06-1.79c1-.7,1.45-.68,1.66-.32s-.63.77-1.19,1.29-1.59,1.54-1.59,1.54a17.64,17.64,0,0,1,2.93-1.21c.36-.08.58,0,.66.21s0,.4-.72.7-2.13,1.08-2.13,1.08a13.6,13.6,0,0,1,1.65-.22c.69,0,1.33.16,1.33.47s-.35.37-1.26.36a5.73,5.73,0,0,0-1.65.25,2.37,2.37,0,0,1-2.86,1.29A44.33,44.33,0,0,1,40,45.47c-3,2-6.47,3.1-10,4.31Z" transform="translate(-1.73 -3.23)" fill="#f3d9bf"/>
          <path d="M29.35,45.17a33.79,33.79,0,0,0,9.47-2.79,22.87,22.87,0,0,0,7.31-5.85,8.52,8.52,0,0,0,2-2.58c.91-1.7,1.56-2.4,1.93-2.32.17,0,.39.2.07.74a26,26,0,0,0-1.38,2.84,17.33,17.33,0,0,1,2.06-1.79c1-.7,1.45-.68,1.66-.32s-.63.77-1.19,1.29-1.59,1.54-1.59,1.54a17.64,17.64,0,0,1,2.93-1.21c.36-.08.58,0,.66.21s0,.4-.72.7-2.13,1.08-2.13,1.08a13.6,13.6,0,0,1,1.65-.22c.69,0,1.33.16,1.33.47s-.35.37-1.26.36a5.73,5.73,0,0,0-1.65.25,2.37,2.37,0,0,1-2.86,1.29A44.33,44.33,0,0,1,40,45.47c-3,2-6.47,3.1-10,4.31Z" transform="translate(-1.73 -3.23)" fill="#f3d9bf" style="mix-blend-mode: multiply"/>
          <path d="M31.7,46.83A2.51,2.51,0,0,1,33,44.94c.81-.48,1.69-.82,2.52-1.25a34,34,0,0,1-6.21,1.48L30,49.78l1.84-.63A7.89,7.89,0,0,1,31.7,46.83Z" transform="translate(-1.73 -3.23)" fill="#f3d9bf" style="mix-blend-mode: multiply"/>
          <g>
            <path d="M48.42,35.66a1.85,1.85,0,0,0-1.25-.48,1.36,1.36,0,0,1,0-.29,7.47,7.47,0,0,0,0-1.25c-.06-.63-.61-1.23-1.25-.82a.11.11,0,0,0-.06.09.18.18,0,0,0,0,.27c.59.39.22,1.33.07,1.86a2.33,2.33,0,0,0,0,2,3.16,3.16,0,0,0,.86.91l2.1-1.11A2,2,0,0,0,48.42,35.66Z" transform="translate(-1.73 -3.23)" fill="#f3d9bf"/>
            <path d="M48.42,35.66a1.85,1.85,0,0,0-1.25-.48,1.36,1.36,0,0,1,0-.29,7.47,7.47,0,0,0,0-1.25c-.06-.63-.61-1.23-1.25-.82a.11.11,0,0,0-.06.09.18.18,0,0,0,0,.27c.59.39.22,1.33.07,1.86a2.33,2.33,0,0,0,0,2,3.16,3.16,0,0,0,.86.91l2.1-1.11A2,2,0,0,0,48.42,35.66Z" transform="translate(-1.73 -3.23)" fill="#f3d9bf" style="mix-blend-mode: multiply"/>
            <path d="M48.92,36.79l-.09-.32-.12-.3L48.62,36s0-.1-.08-.14l-.1-.12-.11-.11-.13-.09a.57.57,0,0,0-.13-.08,1.51,1.51,0,0,0-.29-.13l-.31-.08-.15,0h-.23v-.07a1.62,1.62,0,0,1,0-.44l0-.44a1.55,1.55,0,0,0,0-.22v-.21a1.62,1.62,0,0,0-.1-.63.78.78,0,0,0-.11-.18.83.83,0,0,0-.31-.28.66.66,0,0,0-.2-.06h-.2a.77.77,0,0,0-.19.08l-.07,0,0,0v0l0,0h0a.09.09,0,0,0,0,.09.09.09,0,0,0,0,.05l0,0,0,0,.07.05.07.07a.75.75,0,0,1,.1.17,1,1,0,0,1,.09.37,2.17,2.17,0,0,1,0,.36,5,5,0,0,1-.16.69c-.07.22-.14.44-.19.66s0,.23-.07.34l0,.16v.17a1.72,1.72,0,0,0,.14.64c0,.05,0,.11.07.15l.09.15a3.16,3.16,0,0,0,.2.27l.24.26.25.23h0l-.29-.2-.26-.23A1.94,1.94,0,0,1,46,37.2l-.1-.15a.83.83,0,0,1-.09-.16,1.71,1.71,0,0,1-.13-.34c0-.11,0-.23-.06-.35a2.26,2.26,0,0,1,0-.37c0-.12,0-.23.06-.35s.12-.45.19-.68a5.39,5.39,0,0,0,.18-.66,1.22,1.22,0,0,0,0-.33,1,1,0,0,0,0-.3s0-.1-.08-.14l-.05,0-.06-.06,0,0-.05,0a.37.37,0,0,1,0-.11.2.2,0,0,1,0-.22v0s0,0,0-.08l0,0,.11-.06a.94.94,0,0,1,.22-.07h.24a.49.49,0,0,1,.21.08A.87.87,0,0,1,47,33a1.28,1.28,0,0,1,.11.2,1,1,0,0,1,.08.21,2.1,2.1,0,0,1,.05.43v.22a.89.89,0,0,1,0,.23v.43a1.93,1.93,0,0,0,0,.42l-.09-.07a2.07,2.07,0,0,1,.35,0,1.68,1.68,0,0,1,.32.09,1.11,1.11,0,0,1,.31.15l.15.09.13.1a.76.76,0,0,1,.11.14l.11.14s0,.1.08.14l.07.15c0,.11.07.22.1.33a3.06,3.06,0,0,1,0,.32Z" transform="translate(-1.73 -3.23)" fill="#c8966c"/>
          </g>
        </g>
        <g>
          <path d="M76.54,34.71a6.92,6.92,0,0,0-3.49,4,44.25,44.25,0,0,1-3.13,6.53s-1.68,3.23,1.13,3.69a1.46,1.46,0,0,0,1.48-.77c.54-.94,3.21-5.77,3.21-5.77Z" transform="translate(-1.73 -3.23)" fill="#f3d9bf"/>
          <path d="M76.54,34.71a6.92,6.92,0,0,0-3.49,4,44.25,44.25,0,0,1-3.13,6.53s-1.68,3.23,1.13,3.69a1.46,1.46,0,0,0,1.48-.77c.54-.94,3.21-5.77,3.21-5.77Z" transform="translate(-1.73 -3.23)" fill="#f3d9bf" style="mix-blend-mode: multiply"/>
          <path d="M71.76,45.61s-.5-.78-1.84-.41S62.31,48,62.31,48l.77,3.37s7.19-1.42,8.76-2.56S71.76,45.61,71.76,45.61Z" transform="translate(-1.73 -3.23)" fill="#f3d9bf"/>
          <path d="M71.76,45.61s-.5-.78-1.84-.41S62.31,48,62.31,48l.77,3.37s7.19-1.42,8.76-2.56S71.76,45.61,71.76,45.61Z" transform="translate(-1.73 -3.23)" fill="#f3d9bf" style="mix-blend-mode: multiply"/>
          <g>
            <path d="M63.39,51.74a1.17,1.17,0,0,1,.09-.24,2.56,2.56,0,0,0,.35-1.67,5.74,5.74,0,0,0-.92-2.4l-.54.15a9.54,9.54,0,0,1-3.61.86c-2.17.11-3.19.45-3.29.87,0,.19,0,.49.73.43a27,27,0,0,1,3.56-.06,19.52,19.52,0,0,0-2.82,1.25c-1.2.7-1.38,1.16-1.11,1.54s1.09-.27,1.88-.59S60,51,60,51a20.76,20.76,0,0,0-2.63,2.42c-.25.34-.26.6-.1.78s.41.19,1.06-.4S60.5,52.1,60.5,52.1a14.35,14.35,0,0,0-1,1.59c-.36.69-.47,1.43-.15,1.58s.54-.19,1-1.12a6.42,6.42,0,0,1,1-1.57A3.18,3.18,0,0,0,63.39,51.74Z" transform="translate(-1.73 -3.23)" fill="#f3d9bf"/>
            <path d="M63.39,51.74a1.17,1.17,0,0,1,.09-.24,2.56,2.56,0,0,0,.35-1.67,5.74,5.74,0,0,0-.92-2.4l-.54.15a9.54,9.54,0,0,1-3.61.86c-2.17.11-3.19.45-3.29.87,0,.19,0,.49.73.43a27,27,0,0,1,3.56-.06,19.52,19.52,0,0,0-2.82,1.25c-1.2.7-1.38,1.16-1.11,1.54s1.09-.27,1.88-.59S60,51,60,51a20.76,20.76,0,0,0-2.63,2.42c-.25.34-.26.6-.1.78s.41.19,1.06-.4S60.5,52.1,60.5,52.1a14.35,14.35,0,0,0-1,1.59c-.36.69-.47,1.43-.15,1.58s.54-.19,1-1.12a6.42,6.42,0,0,1,1-1.57A3.18,3.18,0,0,0,63.39,51.74Z" transform="translate(-1.73 -3.23)" fill="#f3d9bf" style="mix-blend-mode: multiply"/>
            <g>
              <path d="M60.39,49.51A2.14,2.14,0,0,1,60.5,48a2,2,0,0,0-.29-.16,8.28,8.28,0,0,1-1.29-.57c-.61-.37-1-1.21-.24-1.67a.13.13,0,0,1,.12,0,.19.19,0,0,1,.25.17c.12.79,1.26.86,1.87.95a2.64,2.64,0,0,1,2,1,3.29,3.29,0,0,1,.53,1.3L61.3,50.56A2.29,2.29,0,0,1,60.39,49.51Z" transform="translate(-1.73 -3.23)" fill="#f3d9bf"/>
              <path d="M60.39,49.51A2.14,2.14,0,0,1,60.5,48a2,2,0,0,0-.29-.16,8.28,8.28,0,0,1-1.29-.57c-.61-.37-1-1.21-.24-1.67a.13.13,0,0,1,.12,0,.19.19,0,0,1,.25.17c.12.79,1.26.86,1.87.95a2.64,2.64,0,0,1,2,1,3.29,3.29,0,0,1,.53,1.3L61.3,50.56A2.29,2.29,0,0,1,60.39,49.51Z" transform="translate(-1.73 -3.23)" fill="#f3d9bf" style="mix-blend-mode: multiply"/>
              <path d="M61.31,50.55,61,50.31l-.24-.26-.1-.15a1.4,1.4,0,0,1-.1-.16l-.07-.16a.77.77,0,0,1-.07-.16,1.13,1.13,0,0,1,0-.18.88.88,0,0,1,0-.17,2,2,0,0,1,0-.35,2,2,0,0,1,.07-.35l.05-.17.06-.16,0-.08-.06,0a1.49,1.49,0,0,0-.46-.22l-.46-.17-.23-.09-.22-.1a1.91,1.91,0,0,1-.42-.24,1.29,1.29,0,0,1-.17-.16.9.9,0,0,1-.14-.2,1,1,0,0,1-.14-.45.66.66,0,0,1,0-.23.24.24,0,0,1,0-.1.21.21,0,0,1,.06-.1.57.57,0,0,1,.16-.15l.09-.06,0,0h.07s.07,0,.1,0a.05.05,0,0,1,0,0,0,0,0,0,1,0,0v0l0,.1,0,.11a.57.57,0,0,0,.12.18,1.06,1.06,0,0,0,.33.27,3.12,3.12,0,0,0,.39.15,5.14,5.14,0,0,0,.78.16c.26,0,.52.07.77.12l.37.1L62,47l.18.08a2.69,2.69,0,0,1,.32.19,3.31,3.31,0,0,1,.27.26l.12.14.11.17a2.11,2.11,0,0,1,.18.33l.15.36.12.37h0l-.07-.39c0-.12-.07-.26-.11-.38s-.11-.26-.17-.37l-.1-.17a.7.7,0,0,0-.13-.16,1.58,1.58,0,0,0-.28-.3,2.1,2.1,0,0,0-.72-.39,2.48,2.48,0,0,0-.39-.1,7,7,0,0,0-.78-.13,6.36,6.36,0,0,1-.76-.14,1.48,1.48,0,0,1-.35-.13,1,1,0,0,1-.28-.21.45.45,0,0,1-.1-.14l0-.07,0-.09,0-.05a.14.14,0,0,0,0-.06.34.34,0,0,0-.07-.11.27.27,0,0,0-.26,0h-.06l-.06,0-.12.09a.79.79,0,0,0-.17.19.27.27,0,0,0-.06.12.22.22,0,0,0-.05.12.74.74,0,0,0,0,.26.87.87,0,0,0,.15.47.8.8,0,0,0,.15.21,1.53,1.53,0,0,0,.18.18,1.64,1.64,0,0,0,.42.26l.21.12.23.11.45.2a2.67,2.67,0,0,1,.41.22l0-.12a2.32,2.32,0,0,0-.13.37,1.59,1.59,0,0,0-.06.38,2.54,2.54,0,0,0,0,.39,1.23,1.23,0,0,0,0,.19c0,.07,0,.13,0,.18a1,1,0,0,0,.08.18l.1.17a.91.91,0,0,0,.11.16l.12.14.28.26a3.28,3.28,0,0,0,.31.2Z" transform="translate(-1.73 -3.23)" fill="#c8966c"/>
            </g>
          </g>
        </g>
        <g>
          <g>
            <path d="M21.37,62.57s.53,3.65-1.19,3.21-5.65-2-5.65-2-1.23-.61-1.56.43c-.47,1.55.84,2,1.94,2.6s7.56,2.77,8.57.66a11.19,11.19,0,0,0,1-4.31Z" transform="translate(-1.73 -3.23)" fill="#f3d9bf"/>
            <path d="M21.37,62.57s.53,3.65-1.19,3.21-5.65-2-5.65-2-1.23-.61-1.56.43c-.47,1.55.84,2,1.94,2.6s7.56,2.77,8.57.66a11.19,11.19,0,0,0,1-4.31Z" transform="translate(-1.73 -3.23)" fill="#f3d9bf" style="mix-blend-mode: multiply"/>
            <path d="M23.77,66.77a11.33,11.33,0,0,0,.72-3.63l-3.12-.57s.53,3.65-1.19,3.21h0C21,66.73,22.46,66.87,23.77,66.77Z" transform="translate(-1.73 -3.23)" fill="#f3d9bf" style="mix-blend-mode: multiply"/>
          </g>
          <path d="M13.17,63.28s.53,3.65-1.18,3.21-5.65-2-5.65-2-1.24-.6-1.56.44c-.48,1.55.83,2,1.93,2.6s7.56,2.77,8.57.66a11.19,11.19,0,0,0,1-4.31Z" transform="translate(-1.73 -3.23)" fill="#f3d9bf"/>
          <path d="M13.13,65.58a16.14,16.14,0,0,0,1.75.38,10.46,10.46,0,0,0,1.09.21,10.84,10.84,0,0,0,.32-2.32l-3.12-.57A7.51,7.51,0,0,1,13.13,65.58Z" transform="translate(-1.73 -3.23)" fill="#f3d9bf" style="mix-blend-mode: multiply"/>
          <path d="M25.73,62c0-2.38.24-2.19.24-2.19s-.61.08-1.59.14c-2.45.14-4.58-2.11-8.35-3.64a11.68,11.68,0,0,1-1.78-1.77c-3,2.58-1.8,6.47-1.92,10.17L18.76,66l1-2.74.15,2.89a15.05,15.05,0,0,0,6.18-.27C26.05,64.86,25.73,62.75,25.73,62Z" transform="translate(-1.73 -3.23)" fill="#006bb0"/>
          <path d="M25.73,62c0-1.81.12-2.13.2-2.18-.15,0-.71.08-1.55.13-2.45.14-4.58-2.11-8.35-3.64a11.68,11.68,0,0,1-1.78-1.77,5.9,5.9,0,0,0-.78.81,5.46,5.46,0,0,0,1.77,4.27,9,9,0,0,0,2,1.58,8.31,8.31,0,0,1,1.84,1.14.08.08,0,0,1-.05.13,13.39,13.39,0,0,1-3-.36,9.8,9.8,0,0,1,1.95,1.28.08.08,0,0,1,0,.11,4.89,4.89,0,0,0-.8,1.8l-.13.36,1.62.32,1-2.74.15,2.89a15.05,15.05,0,0,0,6.18-.27C26.05,64.86,25.73,62.75,25.73,62Zm-2.2.82c-.51.2-1,.42-1.52.58.27,0,1.56.81,1.55,1.13s0,.89,0,1.33a.07.07,0,0,1-.07.07A9,9,0,0,1,21,66s0,0,0-.05c-.09-.53,0-1.06-.08-1.59a1.18,1.18,0,0,1,.18-.9,2.21,2.21,0,0,1-.58-.56.07.07,0,0,1,.06-.11C21.73,62.76,24,62.69,23.53,62.86Z" transform="translate(-1.73 -3.23)" fill="#006bb0" opacity="0.4" style="mix-blend-mode: multiply"/>
          <path d="M25.49,61.6c2.14-3.4,7.35-9.16,4.79-15.08-.63-.24-.41.07-1.19-.35a18.1,18.1,0,0,1-1.64-1A.63.63,0,0,0,27,45c-4.89-.32-13.54,10.6-13.54,10.6S13.89,62.61,25.49,61.6Z" transform="translate(-1.73 -3.23)" fill="#f3d9bf"/>
          <path d="M30.9,50.8a6.89,6.89,0,0,1-1.07,2.86.8.8,0,0,1-.74.39c-.47-.07-.83-.6-1.07-1-1-1.49-1.36-3.3-2-5-.29-.75-.65-1.75-1.45-2.11a1.42,1.42,0,0,0-.93-.06l-.65.39c-1.19,2-.76,4.74-.17,6.94a26.08,26.08,0,0,0,1.76,5,6.25,6.25,0,0,1,.8,2.21,4.79,4.79,0,0,1,0,1.07h.09c1.64-2.61,5.09-6.61,5.45-11A1.55,1.55,0,0,0,30.9,50.8Z" transform="translate(-1.73 -3.23)" fill="#f3d9bf" style="mix-blend-mode: multiply"/>
          <g>
            <path d="M27.73,44.36s-1.22,4.12.36,4.49S31.37,45,31.37,45Z" transform="translate(-1.73 -3.23)" fill="#f3d9bf"/>
            <path d="M30.55,46.65a18.2,18.2,0,0,0,.82-1.7l-3.64-.59a9.45,9.45,0,0,0-.24,1A13.54,13.54,0,0,0,30.55,46.65Z" transform="translate(-1.73 -3.23)" fill="#f3d9bf" style="mix-blend-mode: multiply"/>
          </g>
        </g>
        <g>
          <g>
            <path d="M45.83,21.11C43.74,18.34,39.75,20,39.75,20s-3.41-4-10.22-3.26A18.88,18.88,0,0,0,16.06,24.9a3.6,3.6,0,0,1-.29-1.8c-1.32.78-.73,3-.73,3-2.34.05-1.95.68-.15,1.41-2.77,3.55-2.28,9.49,0,13.67,4.48,7.25,11.33,3.94,11.33,3.94s-3.35-.92-4.71-3.36c-.83,1.12-3.16.39-3.31-1.8C18.1,38.38,21,37,22.09,39.3a18.83,18.83,0,0,1,1-7.44s.1,1.85.68,1.8S26.42,28,26.42,28s-.1,2.38.44,2.48,3.4-4.52,3.4-4.52.24,2.23.83,2.28,2.58-3.74,2.58-3.74,1.55,3.06,2.72,3.06.49-3.5.49-3.5,2.62,2.53,3.4,2.43-.15-2.77-.15-2.77a6.92,6.92,0,0,0,1,1c.76.25,3.2,1,3.29.42-.15-2-2.78-3.16-2.78-3.16S46.26,21.94,45.83,21.11Z" transform="translate(-1.73 -3.23)" fill="#cf7a28"/>
            <path d="M40.13,23.69s.93,2.67.15,2.77S36.88,24,36.88,24s.68,3.5-.49,3.5-2.72-3.06-2.72-3.06-2,3.79-2.58,3.74-.83-2.28-.83-2.28-2.87,4.61-3.4,4.52S26.42,28,26.42,28s-2.09,5.64-2.68,5.69-.68-1.8-.68-1.8a18.83,18.83,0,0,0-1,7.44c-1.12-2.29-4-.92-3.84.63.15,2.19,2.48,2.92,3.31,1.8,1.36,2.44,4.71,3.36,4.71,3.36a19.05,19.05,0,0,0,6,.73c10-1.46,11-8.41,10-11a6.88,6.88,0,0,1-.54-5.39A7.68,7.68,0,0,0,41,24.61l.22.07A6.92,6.92,0,0,1,40.13,23.69Z" transform="translate(-1.73 -3.23)" fill="#f3d9bf"/>
          </g>
          <g>
            <path d="M32.74,35.54c0,.71.31,1.23.59,1.17s.48-.69.44-1.4-.31-1.22-.6-1.16S32.7,34.84,32.74,35.54Z" transform="translate(-1.73 -3.23)" fill="#683222"/>
            <path d="M33.29,34.87c0,.22.12.37.21.34s.13-.22.1-.43-.12-.36-.2-.33S33.26,34.67,33.29,34.87Z" transform="translate(-1.73 -3.23)" fill="#fff"/>
          </g>
          <g>
            <path d="M39.67,33.7c0,.52.24.92.45.87s.35-.51.32-1-.23-.92-.44-.87S39.64,33.17,39.67,33.7Z" transform="translate(-1.73 -3.23)" fill="#683222"/>
            <path d="M40.09,33.2c0,.16.09.27.15.25s.1-.17.08-.32-.1-.27-.16-.25S40.06,33,40.09,33.2Z" transform="translate(-1.73 -3.23)" fill="#fff"/>
          </g>
          <g>
            <path d="M37.41,37.64a2.14,2.14,0,0,1,.25-.52l.17-.23a1.74,1.74,0,0,1,.24-.22,1,1,0,0,1,.33-.17,1.38,1.38,0,0,1,.2,0h.13l.08,0a.38.38,0,0,1,.21.17.6.6,0,0,1,.08.21,1.48,1.48,0,0,1,0,.37,2.29,2.29,0,0,1-.19.56,3.47,3.47,0,0,1-.29.5l.12-.55c0-.17.07-.35.09-.55a1.26,1.26,0,0,0,0-.28.3.3,0,0,0,0-.1v0h0s0,0,0,0l-.08,0h0s0,0,0,0H38.6s-.08,0-.12,0a1.19,1.19,0,0,0-.26.11,2.36,2.36,0,0,0-.42.33C37.57,37.46,37.41,37.64,37.41,37.64Z" transform="translate(-1.73 -3.23)" fill="#c29369"/>
            <path d="M34.58,32.28l-.15-.17c-.09-.11-.23-.26-.41-.44a4.23,4.23,0,0,0-.63-.51,1.11,1.11,0,0,0-.81-.2,1.19,1.19,0,0,0-.64.54,2.77,2.77,0,0,0-.22.37c-.06.12-.11.25-.16.36s-.18.42-.22.55a2.19,2.19,0,0,1-.09.22s0-.09,0-.23a5.3,5.3,0,0,1,.11-.6,2.16,2.16,0,0,1,.12-.39c0-.14.12-.28.19-.43a2,2,0,0,1,.32-.41,1.09,1.09,0,0,1,.49-.28,1,1,0,0,1,.57,0,2.22,2.22,0,0,1,.46.24,3.59,3.59,0,0,1,.35.32,3.74,3.74,0,0,1,.27.31A3.51,3.51,0,0,1,34.58,32.28Z" transform="translate(-1.73 -3.23)" fill="#cf7a28"/>
            <path d="M38.39,31.27a2.26,2.26,0,0,1,0-.69,2,2,0,0,1,0-.33,1.65,1.65,0,0,1,.33-.74.93.93,0,0,1,.18-.16.91.91,0,0,1,.22-.11l.12,0h.12a.75.75,0,0,1,.24,0,1.09,1.09,0,0,1,.38.22,1.27,1.27,0,0,1,.27.3,3.09,3.09,0,0,1,.17.29,2.28,2.28,0,0,1,.21.66s-.14-.24-.37-.57a1.91,1.91,0,0,0-.44-.46.77.77,0,0,0-.3-.15.37.37,0,0,0-.16,0h-.08l-.07,0a.67.67,0,0,0-.15.06s-.09.06-.12.11a1.42,1.42,0,0,0-.2.28,3.65,3.65,0,0,0-.23.62C38.44,31,38.39,31.27,38.39,31.27Z" transform="translate(-1.73 -3.23)" fill="#cf7a28"/>
          </g>
          <g>
            <path d="M30.36,42.4a2.55,2.55,0,0,0,.58,1.71,1.58,1.58,0,0,0,1.19.23A1.66,1.66,0,0,0,30.36,42.4Z" transform="translate(-1.73 -3.23)" fill="#ec6c73"/>
            <path d="M34.23,42.25a6,6,0,0,1-3.79-1.55,10.22,10.22,0,0,0-.08,1.7,1.66,1.66,0,0,1,1.77,1.94C33.4,44.08,34.23,42.25,34.23,42.25Z" transform="translate(-1.73 -3.23)" fill="#f4b8c6"/>
          </g>
          <path d="M30.39,40.54l.34.25a9.22,9.22,0,0,0,.94.58,6.52,6.52,0,0,0,3.17.81,4.32,4.32,0,0,0,.88-.1,5.31,5.31,0,0,0,.83-.22,6.5,6.5,0,0,0,.75-.33c.23-.11.44-.24.64-.36a9.58,9.58,0,0,0,.89-.65l.33-.27-.29.31-.34.34a5.3,5.3,0,0,1-.49.41,6.26,6.26,0,0,1-.63.42,4.9,4.9,0,0,1-.76.38,4.65,4.65,0,0,1-.87.27,4.9,4.9,0,0,1-1.87,0,4.92,4.92,0,0,1-.88-.21,6.23,6.23,0,0,1-1.44-.69,7.12,7.12,0,0,1-.9-.68Z" transform="translate(-1.73 -3.23)" fill="#c29369"/>
          <path d="M20.51,39.66a.8.8,0,0,0-1.11.18s0,.06.05,0c.35-.31.68-.15,1,.1a1.8,1.8,0,0,1,.39.39c.1.12.17.27.28.39a.07.07,0,0,0,.11,0C21.39,40.32,20.8,39.83,20.51,39.66Z" transform="translate(-1.73 -3.23)" fill="#c29369"/>
          <path d="M32.46,37.3c0,.43-.82.83-1.87.88s-1.93-.28-1.95-.72.83-.83,1.88-.87S32.44,36.86,32.46,37.3Z" transform="translate(-1.73 -3.23)" fill="#f7cac0" style="mix-blend-mode: multiply"/>
          <path d="M41.63,35c.06.22-.32.52-.85.67s-1,.1-1.08-.12.32-.53.85-.68S41.57,34.82,41.63,35Z" transform="translate(-1.73 -3.23)" fill="#f7cac0" style="mix-blend-mode: multiply"/>
          <g opacity="0.5" style="mix-blend-mode: multiply">
            <path d="M39.85,21.05c2.14,1.52,3,2.42,2.8,2.87S39,22,39,22s1,2.67.45,3-3.33-3.12-3.33-3.12.66,3.58-.17,3.91S33.31,22,33.31,22s-.7,4.08-1.77,4.12-.45-3.3-.45-3.3-2.76,4.78-3.25,4.78.25-3.62.25-3.62-3.21,6.74-4,6.54-.28-3.38-.28-3.38-2.55,5.31-2.51,10.16c-1.44-1-4,.41-3.55,3.09.62,2.63,2.88,2.88,3.66,2.42.46,1.35-4.48,1.8-7-2.92.19.42.39.83.61,1.23,4.48,7.25,11.33,3.94,11.33,3.94s-3.35-.92-4.71-3.36c-.83,1.12-3.16.39-3.31-1.8C18.1,38.38,21,37,22.09,39.3a18.83,18.83,0,0,1,1-7.44s.1,1.85.68,1.8S26.42,28,26.42,28s-.1,2.38.44,2.48,3.4-4.52,3.4-4.52.24,2.23.83,2.28,2.58-3.74,2.58-3.74,1.55,3.06,2.72,3.06.49-3.5.49-3.5,2.62,2.53,3.4,2.43-.15-2.77-.15-2.77a6.92,6.92,0,0,0,1,1c.76.25,3.2,1,3.29.42-.15-2-2.78-3.16-2.78-3.16s4.57,0,4.14-.83a3.44,3.44,0,0,0-.48-.52A8.83,8.83,0,0,1,39.85,21.05Z" transform="translate(-1.73 -3.23)" fill="#7b1222"/>
          </g>
        </g>
        <g>
          <path d="M32.88,66.19s-2.68.42-2.37,1.24,3.1,2.07,9.29,1.86c2.07-.1,4.9,1.62,8.06,3.2,1.65.72,4.54-.72,9.19-2.89s5.36-2.06,4.85-3.51-1.34-2.38.1-2.89,4-1.86.11-1.76S32.88,66.19,32.88,66.19Z" transform="translate(-1.73 -3.23)" fill="#f6b563" style="mix-blend-mode: color-burn"/>
          <path d="M38,54.56c-2.26-.24-4.16.12-4.23.81s1.7,1.45,4,1.7,4.16-.12,4.23-.81S40.23,54.81,38,54.56Z" transform="translate(-1.73 -3.23)" fill="#f8da8b"/>
          <g>
            <path d="M35.58,58.45l.29-1.72a5.5,5.5,0,0,1-1.68-.7l-.32,1.79Z" transform="translate(-1.73 -3.23)" fill="#ffe289" opacity="0.7" style="mix-blend-mode: multiply"/>
            <g>
              <path d="M34.64,56.29l-.23,1.29,1.24.46.22-1.31A6.69,6.69,0,0,1,34.64,56.29Z" transform="translate(-1.73 -3.23)" fill="#ffe289" opacity="0.7" style="mix-blend-mode: multiply"/>
              <path d="M34.64,56.29l-.23,1.29,1.24.46.22-1.31A6.69,6.69,0,0,1,34.64,56.29Z" transform="translate(-1.73 -3.23)" fill="#ffe289" opacity="0.7" style="mix-blend-mode: multiply"/>
            </g>
            <path d="M40.4,58.45,40.49,57a9.83,9.83,0,0,1-2.16.08l-.06,1.46Z" transform="translate(-1.73 -3.23)" fill="#ffe289" opacity="0.7" style="mix-blend-mode: multiply"/>
            <g>
              <path d="M40.07,57.1a11,11,0,0,1-1.74,0l0,1.07,1.72-.1Z" transform="translate(-1.73 -3.23)" fill="#ffe289" opacity="0.7" style="mix-blend-mode: multiply"/>
              <path d="M40.07,57.1a11,11,0,0,1-1.74,0l0,1.07,1.72-.1Z" transform="translate(-1.73 -3.23)" fill="#ffe289" opacity="0.7" style="mix-blend-mode: multiply"/>
            </g>
            <path d="M40.49,57l-.09,1.41-2.13.13.06-1.46-.63,0a12.72,12.72,0,0,1-1.83-.34l-.29,1.72-1.71-.63L34.19,56c-.31-.21-.47-.44-.45-.66l-2,11.1c-.1.83,2,1.75,4.79,2s5-.14,5.13-1v-.08l.23-11.2C41.89,56.62,41.34,56.9,40.49,57Z" transform="translate(-1.73 -3.23)" fill="#f8da8b"/>
            <path d="M40.49,57l-.09,1.41-2.13.13.06-1.46-.55,0a6,6,0,0,0,0,2.54c.12.47.53.61.74,1a1.46,1.46,0,0,1,.13.74c0,2.43-.58,4.82-.67,7.24,2.09,0,3.66-.38,3.73-1.07v-.08l.23-11.2C41.89,56.62,41.34,56.9,40.49,57Z" transform="translate(-1.73 -3.23)" fill="#f8da8b" style="mix-blend-mode: multiply"/>
          </g>
          <path d="M59.19,47.87c-1.77,0-3.22.36-3.23.86s1.4.94,3.17,1,3.21-.37,3.23-.87S61,47.9,59.19,47.87Z" transform="translate(-1.73 -3.23)" fill="#f8da8b"/>
          <path d="M61.29,49.49l0,1-1.65.23,0-1.06h-.49a12.13,12.13,0,0,1-1.44-.12l-.11,1.26-1.37-.35.14-1.31c-.25-.13-.39-.29-.39-.45l-.84,12.89c0,.61,1.71,1.13,3.85,1.17s3.89-.44,3.91-1a.13.13,0,0,0,0-.06l-.51-12.85C62.35,49.1,61.94,49.33,61.29,49.49Z" transform="translate(-1.73 -3.23)" fill="#f8da8b"/>
          <g style="mix-blend-mode: multiply">
            <path d="M62.87,61.68l-.51-12.85c0,.27-.42.5-1.07.66l0,1-1.06.15c0,1.08.17,2.16.28,3.24a28.25,28.25,0,0,1,.2,2.9c0,1-.07,2-.08,3,0,.11-.14.18-.21.09-.4-.45-.75-.95-1.18-1.36a6.32,6.32,0,0,0-1.53-1c-.75-.38-1.52-.71-2.27-1.06l-.34,5.16c0,.61,1.71,1.13,3.85,1.17s3.89-.44,3.91-1A.13.13,0,0,0,62.87,61.68Z" transform="translate(-1.73 -3.23)" fill="#f8da8b"/>
          </g>
          <path d="M51.75,61.12c1.9-.72,6.15-2.16,7.32-2.56a8.17,8.17,0,0,0-1.58-1c-1.12-.7-4.49-2.67-4.49-2.67l-1.38-.74L41.44,56.77l0,1.48c1.76,1,4.07,2.2,5.41,3C48.85,62.44,49.54,62,51.75,61.12Z" transform="translate(-1.73 -3.23)" fill="#f9ca68"/>
          <path d="M51.75,61.12c1.9-.72,6.15-2.16,7.32-2.56a8.17,8.17,0,0,0-1.58-1c-1.12-.7-4.49-2.67-4.49-2.67l-1.38-.74L41.44,56.77l0,1.48c1.76,1,4.07,2.2,5.41,3C48.85,62.44,49.54,62,51.75,61.12Z" transform="translate(-1.73 -3.23)" fill="#f8da8b"/>
          <g style="mix-blend-mode: multiply">
            <path d="M51.75,61.12c1.9-.72,6.15-2.16,7.32-2.56a8.17,8.17,0,0,0-1.58-1c-1.12-.7-4.49-2.67-4.49-2.67l-1.38-.74L41.44,56.77l0,1.48c1.76,1,4.07,2.2,5.41,3C48.85,62.44,49.54,62,51.75,61.12Z" transform="translate(-1.73 -3.23)" fill="#f8da8b"/>
          </g>
          <path d="M46.81,61.21c-1.34-.76-3.65-2-5.41-3l-.26,9.9s6.31,3.3,7.18,3.82a1.14,1.14,0,0,0,.55.16L48.78,62A4.29,4.29,0,0,1,46.81,61.21Z" transform="translate(-1.73 -3.23)" fill="#f8da8b"/>
          <path d="M46.81,61.21c-1.34-.76-3.65-2-5.41-3l-.26,9.9s6.31,3.3,7.18,3.82a1.14,1.14,0,0,0,.55.16L48.78,62A4.29,4.29,0,0,1,46.81,61.21Z" transform="translate(-1.73 -3.23)" fill="#f8da8b" style="mix-blend-mode: multiply"/>
          <path d="M61.05,65.79c-.18-1.05-1.24-5.43-1.54-6.44a1.92,1.92,0,0,0-.44-.79c-1.17.4-5.42,1.84-7.32,2.56a7.59,7.59,0,0,1-3,.83l.09,10.18c.88.06,2.13-.56,3.82-1.29,3.05-1.31,5.86-2.66,7.17-3.25S61.24,66.84,61.05,65.79Z" transform="translate(-1.73 -3.23)" fill="#f8da8b"/>
          <g opacity="0.7" style="mix-blend-mode: multiply">
            <path d="M47.42,63.07l.35-1.37a5.83,5.83,0,0,1-1-.49l-.73-.41-.33,1.5Z" transform="translate(-1.73 -3.23)" fill="#ffe289"/>
            <g style="mix-blend-mode: multiply">
              <path d="M46.81,61.21l-.28-.16-.21,1,1.23.57.22-.87A5.83,5.83,0,0,1,46.81,61.21Z" transform="translate(-1.73 -3.23)" fill="#ffe289"/>
            </g>
            <path d="M44.49,61.54l.35-1.42-1.74-.95-.3,1.51Z" transform="translate(-1.73 -3.23)" fill="#ffe289"/>
            <g style="mix-blend-mode: multiply">
              <path d="M43.53,59.41l-.19,1,1.27.65.23-.94Z" transform="translate(-1.73 -3.23)" fill="#ffe289"/>
            </g>
          </g>
          <g opacity="0.7" style="mix-blend-mode: multiply">
            <path d="M55,61.49l-.46-1.38-1.65.58.47,1.52Z" transform="translate(-1.73 -3.23)" fill="#ffe289"/>
            <g style="mix-blend-mode: multiply">
              <path d="M54.14,60.26l-1.21.43.35,1.11,1.19-.52Z" transform="translate(-1.73 -3.23)" fill="#ffe289"/>
            </g>
            <path d="M58.07,60.24,57.69,59c-.49.16-1.06.35-1.64.56l.37,1.18Z" transform="translate(-1.73 -3.23)" fill="#ffe289"/>
            <g style="mix-blend-mode: multiply">
              <path d="M57.28,59.18l-1.23.42.25.78L57.54,60Z" transform="translate(-1.73 -3.23)" fill="#ffe289"/>
            </g>
            <path d="M51.82,62.65l-.28-1.45c-.59.23-1.08.43-1.51.56l.21,1.55Z" transform="translate(-1.73 -3.23)" fill="#ffe289"/>
            <g style="mix-blend-mode: multiply">
              <path d="M51.19,61.34c-.44.17-.82.32-1.16.42l.15,1.07,1.2-.51Z" transform="translate(-1.73 -3.23)" fill="#ffe289"/>
            </g>
          </g>
          <path d="M53.68,57.71c-.38-1.61-3.57-15-4.15-15s-3.84,13.33-4.16,14.66a.2.2,0,0,0,0,.11c0,.59,1.83,1.16,4.14,1.27s4.22-.3,4.24-.89A.29.29,0,0,0,53.68,57.71Z" transform="translate(-1.73 -3.23)" fill="#f8da8b"/>
          <g>
            <path d="M35.59,67.8l-.09,0c0-.05,0-.11-.06-.12a1.3,1.3,0,0,0-1.36.37.21.21,0,0,0,.07.29,1.33,1.33,0,0,0,1.48-.18A.2.2,0,0,0,35.59,67.8Z" transform="translate(-1.73 -3.23)" fill="#d98c27"/>
            <path d="M36.54,68.5l0,0s0-.06,0-.06a.7.7,0,0,0-.75.2.11.11,0,0,0,0,.16.73.73,0,0,0,.81-.1A.1.1,0,0,0,36.54,68.5Z" transform="translate(-1.73 -3.23)" fill="#d98c27"/>
            <path d="M39.41,65.12s0,0,0,0,0,0,0,0a.53.53,0,0,0-.12-.55.09.09,0,0,0-.12,0,.53.53,0,0,0,.05.59A.09.09,0,0,0,39.41,65.12Z" transform="translate(-1.73 -3.23)" fill="#d98c27"/>
            <path d="M37.66,62.56s0,0,0,0a0,0,0,0,0,.06,0,.62.62,0,0,0-.15-.64.08.08,0,0,0-.13,0,.6.6,0,0,0,0,.68A.1.1,0,0,0,37.66,62.56Z" transform="translate(-1.73 -3.23)" fill="#fbaf26"/>
            <path d="M40.92,63.62s0,0,0,0,.05,0,.06,0a.6.6,0,0,0-.14-.64.11.11,0,0,0-.14,0,.6.6,0,0,0,.06.69A.09.09,0,0,0,40.92,63.62Z" transform="translate(-1.73 -3.23)" fill="#fbaf26"/>
            <path d="M39.77,67.55v0a0,0,0,0,0,.06,0,.6.6,0,0,0-.14-.64.11.11,0,0,0-.14,0,.62.62,0,0,0,.06.69A.1.1,0,0,0,39.77,67.55Z" transform="translate(-1.73 -3.23)" fill="#fbaf26"/>
            <path d="M48.21,70.58l0-.06s.07,0,.09,0a.92.92,0,0,0-.22-1,.16.16,0,0,0-.21,0,.92.92,0,0,0,.09,1A.14.14,0,0,0,48.21,70.58Z" transform="translate(-1.73 -3.23)" fill="#d98c27"/>
            <path d="M50.77,67.56l0-.06s.08,0,.09,0a.92.92,0,0,0-.22-1,.14.14,0,0,0-.2,0,.94.94,0,0,0,.08,1A.14.14,0,0,0,50.77,67.56Z" transform="translate(-1.73 -3.23)" fill="#d98c27"/>
            <path d="M58.81,65l0-.06a.06.06,0,0,0,.09,0,.92.92,0,0,0-.22-1,.14.14,0,0,0-.2,0,.92.92,0,0,0,.08,1A.14.14,0,0,0,58.81,65Z" transform="translate(-1.73 -3.23)" fill="#d98c27"/>
            <path d="M60.6,59.7l0-.07a.06.06,0,0,0,.09,0,.93.93,0,0,0-.22-1,.14.14,0,0,0-.2,0,.92.92,0,0,0,.08,1A.14.14,0,0,0,60.6,59.7Z" transform="translate(-1.73 -3.23)" fill="#d98c27"/>
            <path d="M61.51,54a.09.09,0,0,0,0-.06s.08,0,.09,0a.9.9,0,0,0-.22-1,.14.14,0,0,0-.2,0,.94.94,0,0,0,.08,1A.14.14,0,0,0,61.51,54Z" transform="translate(-1.73 -3.23)" fill="#d98c27"/>
            <path d="M50.91,50.08l0-.07S51,50,51,50a.91.91,0,0,0-.22-1,.15.15,0,0,0-.2.05.94.94,0,0,0,.08,1A.15.15,0,0,0,50.91,50.08Z" transform="translate(-1.73 -3.23)" fill="#d98c27"/>
            <path d="M51.71,56.62s0,0,0,0a0,0,0,0,0,.06,0,.64.64,0,0,0-.15-.67.1.1,0,0,0-.14,0,.65.65,0,0,0,0,.73A.11.11,0,0,0,51.71,56.62Z" transform="translate(-1.73 -3.23)" fill="#d98c27"/>
            <path d="M51.31,51.2l0,0s0,0,0,0a.38.38,0,0,0-.09-.41.05.05,0,0,0-.08,0,.39.39,0,0,0,0,.44A.06.06,0,0,0,51.31,51.2Z" transform="translate(-1.73 -3.23)" fill="#d98c27"/>
            <path d="M46,66.56s0,0,0,0a0,0,0,0,0,.06,0,.62.62,0,0,0-.15-.64.09.09,0,0,0-.13,0,.62.62,0,0,0,0,.69A.09.09,0,0,0,46,66.56Z" transform="translate(-1.73 -3.23)" fill="#fbaf26"/>
            <path d="M55.53,67.27l0,0a0,0,0,0,0,.06,0,.63.63,0,0,0-.15-.64.1.1,0,0,0-.13,0,.62.62,0,0,0,.05.69A.1.1,0,0,0,55.53,67.27Z" transform="translate(-1.73 -3.23)" fill="#fbaf26"/>
            <path d="M56.34,65.14s0,0,0,0,0,0,0,0a.37.37,0,0,0-.15-.47.12.12,0,0,0-.13,0,.35.35,0,0,0,.06.5A.14.14,0,0,0,56.34,65.14Z" transform="translate(-1.73 -3.23)" fill="#fbaf26"/>
            <path d="M61.63,59.85s0,0,0,0h0a.22.22,0,0,0-.09-.29.09.09,0,0,0-.09,0,.22.22,0,0,0,0,.31A.07.07,0,0,0,61.63,59.85Z" transform="translate(-1.73 -3.23)" fill="#fbaf26"/>
            <path d="M49.16,56.74l0,0s0,0,0,0a.33.33,0,0,0-.13-.42.1.1,0,0,0-.12,0,.31.31,0,0,0,.05.44S49.14,56.77,49.16,56.74Z" transform="translate(-1.73 -3.23)" fill="#fbaf26"/>
            <path d="M52.83,56.19v0s0,0,0,0a.24.24,0,0,0-.1-.31.07.07,0,0,0-.09,0,.23.23,0,0,0,0,.33A.09.09,0,0,0,52.83,56.19Z" transform="translate(-1.73 -3.23)" fill="#fbaf26"/>
            <path d="M50.76,47.76v0a0,0,0,0,0,0,0,.24.24,0,0,0-.1-.31.07.07,0,0,0-.09,0,.24.24,0,0,0,0,.34A.08.08,0,0,0,50.76,47.76Z" transform="translate(-1.73 -3.23)" fill="#fbaf26"/>
            <path d="M51.91,54.82l0,0s0,0,0,0a.24.24,0,0,0-.1-.31.08.08,0,0,0-.09,0,.25.25,0,0,0,0,.34A.09.09,0,0,0,51.91,54.82Z" transform="translate(-1.73 -3.23)" fill="#fbaf26"/>
            <path d="M62.22,57.7v0h0a.24.24,0,0,0-.09-.29.07.07,0,0,0-.09,0,.22.22,0,0,0,0,.31A.07.07,0,0,0,62.22,57.7Z" transform="translate(-1.73 -3.23)" fill="#fbaf26"/>
            <path d="M61.94,55.59v0s0,0,0,0a.23.23,0,0,0-.1-.29.08.08,0,0,0-.08,0,.22.22,0,0,0,0,.31A.1.1,0,0,0,61.94,55.59Z" transform="translate(-1.73 -3.23)" fill="#d98c27"/>
            <path d="M59.63,65.21l0,0s.05,0,.05,0a.35.35,0,0,0-.15-.46.09.09,0,0,0-.13,0,.34.34,0,0,0,.06.49S59.61,65.24,59.63,65.21Z" transform="translate(-1.73 -3.23)" fill="#fbaf26"/>
            <path d="M59.26,63.81v0h0a.27.27,0,0,0-.12-.35.09.09,0,0,0-.1,0,.28.28,0,0,0,0,.38A.09.09,0,0,0,59.26,63.81Z" transform="translate(-1.73 -3.23)" fill="#fbaf26"/>
            <path d="M38.62,62.52v0s0,0,0,0a.39.39,0,0,0-.09-.4.05.05,0,0,0-.08,0,.38.38,0,0,0,0,.43A.06.06,0,0,0,38.62,62.52Z" transform="translate(-1.73 -3.23)" fill="#d98c27"/>
            <path d="M39.39,61.36l0,0s0,0,0,0a.35.35,0,0,0-.09-.39s-.07,0-.08,0a.38.38,0,0,0,0,.43A.05.05,0,0,0,39.39,61.36Z" transform="translate(-1.73 -3.23)" fill="#d98c27"/>
            <path d="M40.33,63.37v0s0,0,0,0A.34.34,0,0,0,40.3,63a.06.06,0,0,0-.08,0,.33.33,0,0,0,0,.37S40.32,63.4,40.33,63.37Z" transform="translate(-1.73 -3.23)" fill="#d98c27"/>
            <path d="M46.79,67l0,0s0,0,0,0a.35.35,0,0,0-.08-.35.06.06,0,0,0-.08,0,.35.35,0,0,0,0,.37S46.78,67.05,46.79,67Z" transform="translate(-1.73 -3.23)" fill="#d98c27"/>
            <path d="M31.49,65.93c-.2-.22-.82-.54-1.09-.27a.22.22,0,0,0-.2.3c.08.43,1,.27,1.24.15A.12.12,0,0,0,31.49,65.93Z" transform="translate(-1.73 -3.23)" fill="#d98c27"/>
          </g>
          <g>
            <path d="M40.69,56.08l0,0s0,0,0,0a.41.41,0,0,0-.45.12s0,.08,0,.09a.44.44,0,0,0,.49-.06A.07.07,0,0,0,40.69,56.08Z" transform="translate(-1.73 -3.23)" fill="#d98c27"/>
            <path d="M35.72,55.79l0,0s0,0,0,0a.45.45,0,0,0-.45.13s0,.08,0,.09a.42.42,0,0,0,.48-.06A.06.06,0,0,0,35.72,55.79Z" transform="translate(-1.73 -3.23)" fill="#d98c27"/>
            <path d="M36.78,54.84a.23.23,0,0,0-.18,0,.18.18,0,0,0-.13.06,0,0,0,0,0,0,.07.37.37,0,0,0,.29,0A0,0,0,0,0,36.78,54.84Z" transform="translate(-1.73 -3.23)" fill="#fbaf26"/>
            <path d="M39.38,55.54a.25.25,0,0,0-.19,0,.17.17,0,0,0-.12.06,0,0,0,0,0,0,.07.37.37,0,0,0,.29,0A0,0,0,0,0,39.38,55.54Z" transform="translate(-1.73 -3.23)" fill="#fbaf26"/>
          </g>
          <g>
            <path d="M61.41,49h0a0,0,0,0,0,0,0,.34.34,0,0,0-.34.09,0,0,0,0,0,0,.07.32.32,0,0,0,.36,0S61.44,49,61.41,49Z" transform="translate(-1.73 -3.23)" fill="#d98c27"/>
            <path d="M57.68,48.79h0a0,0,0,0,0,0,0,.34.34,0,0,0-.34.09.06.06,0,0,0,0,.08.33.33,0,0,0,.37-.05A.05.05,0,0,0,57.68,48.79Z" transform="translate(-1.73 -3.23)" fill="#d98c27"/>
            <path d="M58.47,48.08a.15.15,0,0,0-.13,0,.1.1,0,0,0-.09,0,0,0,0,0,0,0,.06.3.3,0,0,0,.21,0A0,0,0,0,0,58.47,48.08Z" transform="translate(-1.73 -3.23)" fill="#fbaf26"/>
            <path d="M60.43,48.61a.24.24,0,0,0-.14,0,.11.11,0,0,0-.09.05s0,0,0,0a.28.28,0,0,0,.22,0A0,0,0,0,0,60.43,48.61Z" transform="translate(-1.73 -3.23)" fill="#fbaf26"/>
          </g>
          <path d="M57.58,50.84l.11-1.26a4.47,4.47,0,0,1-1.34-.4l-.14,1.31Z" transform="translate(-1.73 -3.23)" fill="#ffe289" opacity="0.7" style="mix-blend-mode: multiply"/>
          <g>
            <path d="M56.7,49.33l-.1.93,1,.25.08-.93A6.18,6.18,0,0,1,56.7,49.33Z" transform="translate(-1.73 -3.23)" fill="#ffe289" opacity="0.7" style="mix-blend-mode: multiply"/>
            <path d="M56.7,49.33l-.1.93,1,.25.08-.93A6.18,6.18,0,0,1,56.7,49.33Z" transform="translate(-1.73 -3.23)" fill="#ffe289" opacity="0.7" style="mix-blend-mode: multiply"/>
          </g>
          <path d="M61.31,50.52l0-1a8.49,8.49,0,0,1-1.67.2l0,1.06Z" transform="translate(-1.73 -3.23)" fill="#ffe289" opacity="0.7" style="mix-blend-mode: multiply"/>
          <g>
            <path d="M60.94,49.56a8.55,8.55,0,0,1-1.32.13l0,.72,1.3-.18Z" transform="translate(-1.73 -3.23)" fill="#ffe289" opacity="0.7" style="mix-blend-mode: multiply"/>
            <path d="M60.94,49.56a8.55,8.55,0,0,1-1.32.13l0,.72,1.3-.18Z" transform="translate(-1.73 -3.23)" fill="#ffe289" opacity="0.7" style="mix-blend-mode: multiply"/>
          </g>
          <path d="M36.54,68.5s4.55.47,4.64-2.29.28-1.68.28-.14.94,2.62,3.89,4,3.41,1.73,3.51-.42.32.33.42,1.26,2.1.28,6.08-1.59,5.67-2.06,5.69-3.51c.21.93.12,1.12-.72,1.59s-9,4.12-10.41,4.63-2.14-.41-4.2-1.45-4.58-2.41-4.58-2.41S39.86,69,36.54,68.5Z" transform="translate(-1.73 -3.23)" fill="url(#linear-gradient)" style="mix-blend-mode: multiply"/>
        </g>
        <g>
          <path d="M6.34,64.46s-.7-1.63-2.07-.88-2.76,4.15-2.51,5.36,1.93,1.38,2.74.9c1.2-.69-.11-.79.18-1.5a6.08,6.08,0,0,1,1.66-2Z" transform="translate(-1.73 -3.23)" fill="#f3d9bf"/>
          <g>
            <path d="M4.8,68.85a.61.61,0,0,0-.14-.07c.19.2.41.48.22.75,0,0,0,0,0,0A.42.42,0,0,0,5,69.2.61.61,0,0,0,4.8,68.85Z" transform="translate(-1.73 -3.23)" fill="#c29369"/>
            <path d="M4.63,69.16a.53.53,0,0,0-.2-.1c.07,0,.18.18.22.24a.4.4,0,0,1,.11.27c0,.16-.24.21-.38.21s0,0,0,0a.65.65,0,0,0-.25-.39l-.14,0a1,1,0,0,1,.23.27.69.69,0,0,1,.07.15c.06.21-.21.19-.32.21s0,0,0,0a.33.33,0,0,0,.32,0l.09-.11a.39.39,0,0,0,.45-.34A.48.48,0,0,0,4.63,69.16Z" transform="translate(-1.73 -3.23)" fill="#c29369"/>
            <path d="M3.8,69.44s0,0,0,0l-.08,0a.68.68,0,0,1,.18.27c.06.14.07.31-.11.35,0,0,0,0,0,0S4,70,4,69.83A.58.58,0,0,0,3.8,69.44Z" transform="translate(-1.73 -3.23)" fill="#c29369"/>
            <path d="M3.51,69.55a1.25,1.25,0,0,0-.26-.25.57.57,0,0,1,.15.23c.13.16.26.43,0,.51,0,0,0,0,0,.06A.21.21,0,0,0,3.6,70,.45.45,0,0,0,3.51,69.55Z" transform="translate(-1.73 -3.23)" fill="#c29369"/>
          </g>
          <path d="M4.57,64.83a.52.52,0,0,0-.32.37c0,.14,0,.6.24.52,0,0,.07,0,0-.07a.46.46,0,0,1,0-.8S4.58,64.82,4.57,64.83Z" transform="translate(-1.73 -3.23)" fill="#c29369"/>
        </g>
        <path d="M24.66,45.92s-2.51,0-2.24,3.36,4.84,13.82,10.5,17.43l3-1.27s-6.68-7-8.15-11.52S25.81,46.24,24.66,45.92Z" transform="translate(-1.73 -3.23)" fill="#f3d9bf"/>
        <g>
          <path d="M36.77,65.46a14.44,14.44,0,0,0,1.89.33c.74,0,.15,1-.5.92S36.77,65.46,36.77,65.46Z" transform="translate(-1.73 -3.23)" fill="#f3d9bf"/>
          <path d="M36.77,65.46a14.44,14.44,0,0,0,1.89.33c.74,0,.15,1-.5.92S36.77,65.46,36.77,65.46Z" transform="translate(-1.73 -3.23)" fill="#f3d9bf" style="mix-blend-mode: multiply"/>
          <path d="M38.38,67.75c-.31-.38-.86-.7-1.41-1.26.43.2,2.1,1.62,2.56,1.58.18,0,.49-.46-.34-1.18-.3-.26-1.38-1-1.71-1.16a6.25,6.25,0,0,0-2.54-.87,3.15,3.15,0,0,0-2.47.71,1.63,1.63,0,0,0-.23,1.63,2.2,2.2,0,0,0,1.08,1.34l.09,0c.81.26,1.5.23,2,.92.39.51.11.63.74.89.15.06.36-.13.33-.34-.12-1.15-.22-1.18-1.2-1.91a5,5,0,0,1,.88.41c.6.36.78.77,1.41,1,.14.06.5,0,.38-.32a3,3,0,0,0-1.15-1.44,8.24,8.24,0,0,0-.77-.46,2.62,2.62,0,0,1,.4.11,9.89,9.89,0,0,1,2,1.64C39,69.49,39.41,69,38.38,67.75Z" transform="translate(-1.73 -3.23)" fill="#f3d9bf"/>
        </g>
        <g>
          <path d="M74.84,36.94a10,10,0,0,0-1.38,3.21,13.58,13.58,0,0,0,.36,5.67l1.92-3.47.8-7.64s-.16.07-.42.22A13.66,13.66,0,0,0,74.84,36.94Z" transform="translate(-1.73 -3.23)" fill="#f3d9bf" style="mix-blend-mode: multiply"/>
          <path d="M98.82,24.29c-.56.35-1.11-.39-1.33-.8A3.75,3.75,0,0,1,97.12,22c-.1-1.47-.07-3-.22-4.42a16.5,16.5,0,0,0-2.59-7.21,7.56,7.56,0,0,0-6.18-3.14,5.38,5.38,0,0,0-3,.83,6.24,6.24,0,0,0-1,1l-.19.21a.66.66,0,0,0,0-.15s0,0,0,0c-.07.3-.52.58-.68.85a7.4,7.4,0,0,0-.57,1.25,10.68,10.68,0,0,0-.62,2.85,14.3,14.3,0,0,0,0,3.27,11.38,11.38,0,0,0,1,3.19c1,2.09,2.18,4.06,3.16,6.15a7.73,7.73,0,0,1,.65,3.64,5.75,5.75,0,0,1-.45,1.79c-.11.29-.36.47-.45.75,0,0,0,.06,0,.07.43.28,1-.22,1.36-.47a1.75,1.75,0,0,0,.57-.83,12.63,12.63,0,0,0-.34,2.94c.06.44.41,1.5.92,1.59.07,0,.13-.1.15-.16.08-.43,0-.88.08-1.31A9.57,9.57,0,0,1,89,33.48a13.33,13.33,0,0,0,.28,2.88c.09.34.66,1.75,1.26,1.42.39-.21.42-.73.45-1.11s0-1,.06-1.42a4.74,4.74,0,0,0,1,2.34.83.83,0,0,0,1.21,0A9.1,9.1,0,0,0,95,36.05a7.81,7.81,0,0,0,1.53-4.42,4.74,4.74,0,0,0-.19-1.52c.16.17.37.39.58.35.41-.08.6-.56.75-.9a4.48,4.48,0,0,0,.37-2,3,3,0,0,0-.47-1.35,2.93,2.93,0,0,0-.38-.41c-.08-.08-.27-.21-.43-.34a1.43,1.43,0,0,0,1.36-.07,1.34,1.34,0,0,0,.74-1.09S98.85,24.28,98.82,24.29ZM83.4,9.87a1.12,1.12,0,0,1,.18-.2l0,0c-.15.2-.27.46-.42.65A3.1,3.1,0,0,1,83.4,9.87Z" transform="translate(-1.73 -3.23)" fill="#a95c26"/>
          <path d="M98.82,24.29c-.56.35-1.11-.39-1.33-.8A3.75,3.75,0,0,1,97.12,22c-.1-1.47-.07-3-.22-4.42a16.5,16.5,0,0,0-2.59-7.21,7.56,7.56,0,0,0-6.18-3.14,5.38,5.38,0,0,0-3,.83,6.24,6.24,0,0,0-1,1l-.19.21a.66.66,0,0,0,0-.15s0,0,0,0c-.07.3-.52.58-.68.85a7.4,7.4,0,0,0-.57,1.25,10.68,10.68,0,0,0-.62,2.85,14.3,14.3,0,0,0,0,3.27,11.38,11.38,0,0,0,1,3.19c1,2.09,2.18,4.06,3.16,6.15a7.73,7.73,0,0,1,.65,3.64,5.75,5.75,0,0,1-.45,1.79c-.11.29-.36.47-.45.75,0,0,0,.06,0,.07.43.28,1-.22,1.36-.47a1.75,1.75,0,0,0,.57-.83,12.63,12.63,0,0,0-.34,2.94c.06.44.41,1.5.92,1.59.07,0,.13-.1.15-.16.08-.43,0-.88.08-1.31A9.57,9.57,0,0,1,89,33.48a13.33,13.33,0,0,0,.28,2.88c.09.34.66,1.75,1.26,1.42.39-.21.42-.73.45-1.11s0-1,.06-1.42a4.74,4.74,0,0,0,1,2.34.83.83,0,0,0,1.21,0A9.1,9.1,0,0,0,95,36.05a7.81,7.81,0,0,0,1.53-4.42,4.74,4.74,0,0,0-.19-1.52c.16.17.37.39.58.35.41-.08.6-.56.75-.9a4.48,4.48,0,0,0,.37-2,3,3,0,0,0-.47-1.35,2.93,2.93,0,0,0-.38-.41c-.08-.08-.27-.21-.43-.34a1.43,1.43,0,0,0,1.36-.07,1.34,1.34,0,0,0,.74-1.09S98.85,24.28,98.82,24.29ZM83.4,9.87a1.12,1.12,0,0,1,.18-.2l0,0c-.15.2-.27.46-.42.65A3.1,3.1,0,0,1,83.4,9.87Z" transform="translate(-1.73 -3.23)" fill="#a95c26" opacity="0.4" style="mix-blend-mode: multiply"/>
          <path d="M98.82,24.29c-.56.35-1.11-.39-1.33-.8A3.75,3.75,0,0,1,97.12,22c-.1-1.47-.07-3-.22-4.42a15.93,15.93,0,0,0-1.25-4.71,14.86,14.86,0,0,1,.18,1.62c.07,1.46-.11,2.91-.12,4.36a10.29,10.29,0,0,0,1.13,4.87.12.12,0,0,1-.16.18,4.26,4.26,0,0,1-1-.54c.13.32.26.63.36.95a5.34,5.34,0,0,1-.11,4.51.12.12,0,0,1-.21,0,4.32,4.32,0,0,1-.36-1.14,12,12,0,0,1-.29,3.21c-.3,1.34-.77,3.27-2.15,3.9a.11.11,0,0,1-.14,0c-.74-1.42-.35-3.12-.25-4.7a5.83,5.83,0,0,1-.75,2.08.14.14,0,0,1-.24,0,5.51,5.51,0,0,1-.37-2,2.73,2.73,0,0,1-.82,1.1.13.13,0,0,1-.18,0c-1-1.29-.54-3.39-.24-4.84.45-2.13,1.15-4.2,1.56-6.35.83-4.46,0-9.53-3.31-12.75h-.05a5.38,5.38,0,0,0-3,.83,6.24,6.24,0,0,0-1,1l-.19.21a.66.66,0,0,0,0-.15s0,0,0,0c-.07.3-.52.58-.68.85a7.4,7.4,0,0,0-.57,1.25,10.68,10.68,0,0,0-.62,2.85,14.3,14.3,0,0,0,0,3.27,11.38,11.38,0,0,0,1,3.19c1,2.09,2.18,4.06,3.16,6.15a7.73,7.73,0,0,1,.65,3.64,5.75,5.75,0,0,1-.45,1.79c-.11.29-.36.47-.45.75,0,0,0,.06,0,.07.43.28,1-.22,1.36-.47a1.75,1.75,0,0,0,.57-.83,12.63,12.63,0,0,0-.34,2.94c.06.44.41,1.5.92,1.59.07,0,.13-.1.15-.16.08-.43,0-.88.08-1.31A9.57,9.57,0,0,1,89,33.48a13.33,13.33,0,0,0,.28,2.88c.09.34.66,1.75,1.26,1.42.39-.21.42-.73.45-1.11s0-1,.06-1.42a4.74,4.74,0,0,0,1,2.34.83.83,0,0,0,1.21,0A9.1,9.1,0,0,0,95,36.05a7.81,7.81,0,0,0,1.53-4.42,4.74,4.74,0,0,0-.19-1.52c.16.17.37.39.58.35.41-.08.6-.56.75-.9a4.48,4.48,0,0,0,.37-2,3,3,0,0,0-.47-1.35,2.93,2.93,0,0,0-.38-.41c-.08-.08-.27-.21-.43-.34a1.43,1.43,0,0,0,1.36-.07,1.34,1.34,0,0,0,.74-1.09S98.85,24.28,98.82,24.29ZM83.56,9.69c-.15.2-.27.46-.42.65a3.1,3.1,0,0,1,.26-.47,1.12,1.12,0,0,1,.18-.2Z" transform="translate(-1.73 -3.23)" fill="#a95c26" opacity="0.4" style="mix-blend-mode: multiply"/>
          <g>
            <path d="M91,47.47l-.09,0L76.66,50.92c.16.81.3,1.63.5,2.43.55.44,2.46,1.6,7.16,1.35,5.14-.27,7.54-1.59,8-1.88A22.21,22.21,0,0,0,91,47.47Z" transform="translate(-1.73 -3.23)" fill="#f3d9bf"/>
            <path d="M91,47.47l-.09,0L76.69,50.91a7.72,7.72,0,0,0,4.15.6,30.65,30.65,0,0,0,4.78-.62,10.34,10.34,0,0,1,2.27-.31.77.77,0,0,1,.69.28,4.46,4.46,0,0,1,.36,1.21.74.74,0,0,1-.24.8,2.63,2.63,0,0,1-1.33.52c-.66.13-1.32.3-2,.45a30.77,30.77,0,0,1-4.48.63l-.7,0a18,18,0,0,0,4.12.19c5.14-.27,7.54-1.59,8-1.88A22.21,22.21,0,0,0,91,47.47Z" transform="translate(-1.73 -3.23)" fill="#f3d9bf" style="mix-blend-mode: multiply"/>
            <g>
              <path d="M77.85,49.82a17.22,17.22,0,0,0,4.65-.93,39.74,39.74,0,0,0,5.84-2.82c.68-.37,1.34-.76,2-1.16-1.31-3.47-3-7.64-4.52-10.7-.65-1.3-1.22-1.57-2.12-1.57a9.22,9.22,0,0,0-5.07.92l-.83.06a8,8,0,0,0-3.3,6.8,49.94,49.94,0,0,0,1.75,9.41A10.66,10.66,0,0,0,77.85,49.82Z" transform="translate(-1.73 -3.23)" fill="#f3d9bf"/>
              <path d="M77.85,49.82a17.22,17.22,0,0,0,4.65-.93,39.74,39.74,0,0,0,5.84-2.82c.68-.37,1.34-.76,2-1.16-1.31-3.47-3-7.64-4.52-10.7-.65-1.3-1.22-1.57-2.12-1.57a9.22,9.22,0,0,0-5.07.92l-.83.06a8,8,0,0,0-3.3,6.8,49.94,49.94,0,0,0,1.75,9.41A10.66,10.66,0,0,0,77.85,49.82Z" transform="translate(-1.73 -3.23)" fill="#f3d9bf" style="mix-blend-mode: multiply"/>
              <path d="M89.27,42.13a8.55,8.55,0,0,1-1.32.13,4.75,4.75,0,0,1-3.77-1.5,6.55,6.55,0,0,1-1.45-4.48,14.48,14.48,0,0,1,.64-3.4c0-.09,0-.18.07-.27a7,7,0,0,0-1.07,0,16.19,16.19,0,0,0-.69,4.21,7.28,7.28,0,0,1-2.07,4.5c-1.14,1-3.08,2.36-4.73,1.86l-.1,0c.33,2,.9,4.46,1.47,6.69a10.66,10.66,0,0,0,1.6,0,17.22,17.22,0,0,0,4.65-.93,39.74,39.74,0,0,0,5.84-2.82c.68-.37,1.34-.76,2-1.16C90,44,89.64,43.08,89.27,42.13Z" transform="translate(-1.73 -3.23)" fill="#f3d9bf" style="mix-blend-mode: multiply"/>
              <path d="M77.21,31.4s.34,2.52,1.29,3.28a2.84,2.84,0,0,0,2.32,0A1.85,1.85,0,0,0,82,33.06a10.57,10.57,0,0,0-1.06-3.39Z" transform="translate(-1.73 -3.23)" fill="#f3d9bf"/>
              <path d="M77.21,31.4s.34,2.52,1.29,3.28a2.84,2.84,0,0,0,2.32,0A1.85,1.85,0,0,0,82,33.06a10.57,10.57,0,0,0-1.06-3.39Z" transform="translate(-1.73 -3.23)" fill="#f3d9bf" style="mix-blend-mode: multiply"/>
              <path d="M77.15,33.79l.54-.33s-1.6,4-.1,4.59,2.87-1,3-2.15.18-3.62,1-3.91c0,0,.54-.52,1.56.2a13.66,13.66,0,0,0-.26,7.67c1.12,4,6.83,3.32,6.83,3.32l1.63,4.45s-9.81,4.1-14.76,3.31c0,0-2.34-5.3-2.77-8S75.73,35.73,77.15,33.79Z" transform="translate(-1.73 -3.23)" fill="#c53827"/>
              <path d="M77.59,38.05c-1.5-.61.1-4.59.1-4.59l-.31.19a8.53,8.53,0,0,0-.64,3,2.48,2.48,0,0,0,.46,1.78,1.73,1.73,0,0,0,1.94.08c2.27-1.06,1.6-3.91,2-6.13a10.2,10.2,0,0,0-.6,3.49C80.46,37.06,79.09,38.65,77.59,38.05Z" transform="translate(-1.73 -3.23)" fill="#e57799" opacity="0.4" style="mix-blend-mode: multiply"/>
              <path d="M82.89,39.86a13.66,13.66,0,0,1,.26-7.67,2.44,2.44,0,0,0-.44-.24,31,31,0,0,0-.7,4.17,8.24,8.24,0,0,0,1,5.23,6.46,6.46,0,0,0,2.21,1.91,4.75,4.75,0,0,1,1.73,1.44c.75,1.24,1.39,2.55,2.06,3.83,1.44-.51,2.37-.9,2.37-.9l-1.63-4.45S84,43.9,82.89,39.86Z" transform="translate(-1.73 -3.23)" fill="#c53827" style="mix-blend-mode: multiply"/>
              <path d="M89.86,47.18a.35.35,0,0,0,.4.28.34.34,0,0,0,.28-.4.35.35,0,1,0-.68.12Z" transform="translate(-1.73 -3.23)" fill="#fff"/>
              <path d="M87,48.19a.35.35,0,0,0,.68-.12.35.35,0,0,0-.4-.28A.34.34,0,0,0,87,48.19Z" transform="translate(-1.73 -3.23)" fill="#fff"/>
              <path d="M83.53,49.23a.35.35,0,0,0,.4.28.35.35,0,1,0-.12-.68A.35.35,0,0,0,83.53,49.23Z" transform="translate(-1.73 -3.23)" fill="#fff"/>
              <path d="M80.16,50.21a.35.35,0,0,0,.33.36.34.34,0,0,0,.35-.33.34.34,0,1,0-.68,0Z" transform="translate(-1.73 -3.23)" fill="#fff"/>
              <path d="M76.53,50.37a.33.33,0,0,0,.33.35.34.34,0,1,0,0-.68A.34.34,0,0,0,76.53,50.37Z" transform="translate(-1.73 -3.23)" fill="#fff"/>
              <path d="M77.49,48.16a.34.34,0,0,0,.33.35.35.35,0,0,0,.36-.33.34.34,0,0,0-.33-.35A.35.35,0,0,0,77.49,48.16Z" transform="translate(-1.73 -3.23)" fill="#fff"/>
              <path d="M80.91,47.54a.34.34,0,1,0,.68,0,.34.34,0,1,0-.68,0Z" transform="translate(-1.73 -3.23)" fill="#fff"/>
              <path d="M84.16,46.6a.34.34,0,1,0,.68,0,.34.34,0,0,0-.68,0Z" transform="translate(-1.73 -3.23)" fill="#fff"/>
              <path d="M87.88,45.09a.34.34,0,0,0,.33.35.35.35,0,0,0,.36-.33.34.34,0,0,0-.33-.35A.35.35,0,0,0,87.88,45.09Z" transform="translate(-1.73 -3.23)" fill="#fff"/>
              <path d="M85.26,44.09a.34.34,0,1,0,.68,0,.34.34,0,1,0-.68,0Z" transform="translate(-1.73 -3.23)" fill="#fff"/>
              <path d="M82,44a.34.34,0,0,0,.33.35.33.33,0,0,0,.35-.33A.34.34,0,1,0,82,44Z" transform="translate(-1.73 -3.23)" fill="#fff"/>
              <path d="M78.85,44.92a.33.33,0,0,0,.33.35.34.34,0,1,0,0-.68A.34.34,0,0,0,78.85,44.92Z" transform="translate(-1.73 -3.23)" fill="#fff"/>
              <path d="M75.53,45.87a.34.34,0,0,0,.33.35.35.35,0,0,0,.36-.33.34.34,0,0,0-.33-.35A.35.35,0,0,0,75.53,45.87Z" transform="translate(-1.73 -3.23)" fill="#fff"/>
              <path d="M76.14,43.6a.34.34,0,0,0,.33.35.35.35,0,0,0,.36-.33.36.36,0,0,0-.34-.36A.35.35,0,0,0,76.14,43.6Z" transform="translate(-1.73 -3.23)" fill="#fff"/>
              <path d="M74.12,41.42a.33.33,0,0,0,.34.35.34.34,0,0,0,.35-.33.34.34,0,0,0-.33-.35A.35.35,0,0,0,74.12,41.42Z" transform="translate(-1.73 -3.23)" fill="#fff"/>
              <path d="M78.15,41a.34.34,0,1,0,.68,0,.34.34,0,1,0-.68,0Z" transform="translate(-1.73 -3.23)" fill="#fff"/>
              <path d="M81.43,40.8a.34.34,0,0,0,.68,0,.34.34,0,1,0-.68,0Z" transform="translate(-1.73 -3.23)" fill="#fff"/>
              <path d="M81.17,37.48a.35.35,0,0,0,.34.36.33.33,0,0,0,.35-.33.35.35,0,0,0-.33-.36A.35.35,0,0,0,81.17,37.48Z" transform="translate(-1.73 -3.23)" fill="#fff"/>
              <path d="M76,39.08a.35.35,0,1,0,.69,0,.36.36,0,0,0-.34-.36A.34.34,0,0,0,76,39.08Z" transform="translate(-1.73 -3.23)" fill="#fff"/>
              <path d="M81.35,33.78a.35.35,0,0,0,.69,0,.33.33,0,0,0-.33-.35A.35.35,0,0,0,81.35,33.78Z" transform="translate(-1.73 -3.23)" fill="#fff"/>
              <path d="M76,36.43a.19.19,0,0,0,.18.19.19.19,0,1,0-.18-.19Z" transform="translate(-1.73 -3.23)" fill="#fff"/>
              <g>
                <g>
                  <path d="M74.44,10.05c-8,2.3-10.16,4-10.16,4S60.36,16.67,62,21,63.91,23,64.37,28.3s5.89,6.94,12.81,4.78,9.34-8.21,9.44-9.61c0,0,2.62-.58,2-4.38S82.48,7.74,74.44,10.05Z" transform="translate(-1.73 -3.23)" fill="#f3d9bf"/>
                  <path d="M70.32,31.06s3,2.24,5.65.73c3.12-1.77,1.88-5.21,1.88-5.21C75.66,30.14,70.32,31.06,70.32,31.06Z" transform="translate(-1.73 -3.23)" fill="#f4b8c6"/>
                  <path d="M78.06,27.71a4.89,4.89,0,0,0-.21-1.13c-1.46,2.38-4.33,3.58-6.07,4.11a5,5,0,0,0,1.7.58A7.94,7.94,0,0,0,78.06,27.71Z" transform="translate(-1.73 -3.23)" fill="#fff"/>
                  <path d="M86.46,19.35c-.41.56,0,1.64.45,2.06,0,0,0,0,0,0a4.34,4.34,0,0,1-.33-1,2.11,2.11,0,0,0,.3.1,1,1,0,0,1,.49.31s0,0,0,0a.7.7,0,0,0-.32-.4,1.15,1.15,0,0,0-.54-.27.76.76,0,0,0,0-.15c0-.25.05-.6.38-.63s.44.26.58.42a.06.06,0,0,0,.11-.06A.67.67,0,0,0,86.46,19.35Z" transform="translate(-1.73 -3.23)" fill="#c29369"/>
                  <path d="M67.7,27.57c.2-.38.73-.43,1.11-.46.2,0,.45,0,.69,0a4.87,4.87,0,0,0-.89-.09,1,1,0,0,0-.11-.65,1.19,1.19,0,0,0-.71-.55c-.05,0-.09.06,0,.08a1.31,1.31,0,0,1,.48.59,1.46,1.46,0,0,1,0,.55c-.57.05-1,.28-.75.85a1.68,1.68,0,0,0,.61.69C67.8,28.32,67.51,27.92,67.7,27.57Z" transform="translate(-1.73 -3.23)" fill="#c29369"/>
                  <path d="M70.55,19.42a.39.39,0,0,1,.1-.08h0l.15-.1a1.21,1.21,0,0,1,.2-.09,2.93,2.93,0,0,1,2.22.15,2,2,0,0,0-2.68-.63c-1.66,1-1.2,2.9-1.05,3.72h0A3.75,3.75,0,0,1,70.55,19.42Z" transform="translate(-1.73 -3.23)" fill="#a95c26"/>
                  <path d="M64.37,22.42a2.19,2.19,0,0,1,1.27,1.16A2.18,2.18,0,0,0,64,21.73c-.82-.13-.76,1.15-.45,1.58C63.52,22.76,63.63,22.19,64.37,22.42Z" transform="translate(-1.73 -3.23)" fill="#a95c26"/>
                  <path d="M76.49,23.81c.2.36-.38,1.05-1.3,1.55s-1.82.61-2,.25.38-1.06,1.3-1.56S76.28,23.45,76.49,23.81Z" transform="translate(-1.73 -3.23)" fill="#f7cac0" style="mix-blend-mode: multiply"/>
                  <path d="M67.23,28.51c.1.4-.4.85-1.11,1s-1.35-.05-1.44-.46.41-.85,1.11-1S67.14,28.1,67.23,28.51Z" transform="translate(-1.73 -3.23)" fill="#f7cac0" style="mix-blend-mode: multiply"/>
                </g>
                <g>
                  <path d="M65.9,26.6c.21.57.18,1.11-.06,1.21s-.62-.3-.82-.87-.18-1.11.06-1.21S65.7,26,65.9,26.6Z" transform="translate(-1.73 -3.23)" fill="#3b1c10"/>
                  <path d="M65.24,26.36c.05.18,0,.34,0,.36s-.18-.1-.23-.28,0-.34.05-.36S65.19,26.18,65.24,26.36Z" transform="translate(-1.73 -3.23)" fill="#fff"/>
                </g>
                <g>
                  <path d="M72.68,23.17c.31.52.39,1.06.17,1.2s-.66-.17-1-.69-.39-1.06-.16-1.2S72.37,22.65,72.68,23.17Z" transform="translate(-1.73 -3.23)" fill="#3b1c10"/>
                  <path d="M72,23.07c.08.16.09.33,0,.37s-.19-.07-.28-.24-.09-.33,0-.36S71.9,22.9,72,23.07Z" transform="translate(-1.73 -3.23)" fill="#fff"/>
                </g>
                <path d="M87.63,18.41a3.43,3.43,0,0,1,.59,3.82,4,4,0,0,1-1.6,1.24c-.1.05-.47,1.63-.53,1.75,3.64-1.58,4.69-5.55,4.84-7.6.32-4.1-1.29-9-4.82-11.44a8.54,8.54,0,0,0-1.66-.94,4.39,4.39,0,0,0-.06-1.45.65.65,0,0,0-.45-.55c-.43-.08-.75.43-.91.74a1.78,1.78,0,0,0-.22.71s0,.08,0,.13a1.24,1.24,0,0,0-.44-.63c-.17-.1-.31-.24-.48-.35a1,1,0,0,0-.72-.3c-.41.09.17,1.12.24,1.26a1.81,1.81,0,0,0,.22.39,13.3,13.3,0,0,0-1.53-.29,17.6,17.6,0,0,0-3.48,0,23.18,23.18,0,0,0-7.15,1.78,24.34,24.34,0,0,0-6.67,4.3,16.35,16.35,0,0,0-2.64,2.81,3.07,3.07,0,0,0-.56,1.32C59.4,15,59.2,15,59,15c-.64-.08-1.68-.11-2.06.56-.61,1.08,1.24,1.49,2.39,1.61a4.15,4.15,0,0,0-1.79.86c-.39.32-1.22,1.29-.67,1.82s1.21.15,1.85-.17a2.45,2.45,0,0,0-.87,1.51,1.33,1.33,0,0,0,.84,1.62,2.85,2.85,0,0,0,2.09-.08,2.18,2.18,0,0,0,.84-.56.64.64,0,0,0,.56-.09c.24-.14.34-.62.36-.87a.34.34,0,0,0,0-.1.72.72,0,0,0,.3.37c.15.09.38.18.53,0a1.92,1.92,0,0,0,.57-1.63q0-.39-.06-.78c0-.23-.12-.52-.14-.79,0,.1.08.21.11.28a7.65,7.65,0,0,0,.32.71,4.51,4.51,0,0,0,.35.54c.13.16.37.42.61.35.57-.16.39-1.16.35-1.59a3.72,3.72,0,0,0-.14-.74,2.3,2.3,0,0,0,1.55.91c.73.05.42-.83.12-1.49a3.07,3.07,0,0,0,1.3.53,6,6,0,0,0,2.62-.16c.57-.17,1.49-.41,1.76-1a1.18,1.18,0,0,0-.09-1,2.48,2.48,0,0,0-.33-.51,2.53,2.53,0,0,1-.22-.26A18.42,18.42,0,0,0,73.76,16a7.25,7.25,0,0,0,1.91.73c.33.07.8.17,1-.15a.53.53,0,0,0,0-.4c.22.18.45.34.64.49a5.59,5.59,0,0,0,1.9,1.07c.37.09,1.11.3,1.37-.14a1.16,1.16,0,0,0,.14-.47,7.93,7.93,0,0,0,.86.93,6.55,6.55,0,0,0,2,1.53c.38.13,1.06.19,1-.41.15-.09.2-.34.38-.5a3.47,3.47,0,0,1,.85-.63A1.51,1.51,0,0,1,87.63,18.41Z" transform="translate(-1.73 -3.23)" fill="#a95c26"/>
                <path d="M88.54,8.6a5.66,5.66,0,0,1,.21,2.14.13.13,0,0,1-.21.07C88,10.21,87.52,9.54,87,9c.75,1.43,1.6,3.25.56,4.62a.13.13,0,0,1-.18,0,16.37,16.37,0,0,1-1.79-1.93,4.14,4.14,0,0,1,.07,1.06,6.36,6.36,0,0,1-.38,1.93c-.15.38-.29,1-.67,1.25-.93.62-2-.66-2.5-1.28a21.94,21.94,0,0,0-2.48-2.7,7.1,7.1,0,0,1,1.13,2.35.14.14,0,0,1-.15.17,3.67,3.67,0,0,1-1.76-.78,1.2,1.2,0,0,1,.09,1.18c-.49.76-2.13,0-2.7-.21a19.18,19.18,0,0,1-2.39-1.33,1.3,1.3,0,0,1,.29,1c-.16.71-1.72.16-2,.07a16,16,0,0,1-2.68-1.09,9.82,9.82,0,0,1,.91,1c.42.55,1.16,1.6.63,2.3-.65.85-2.11.56-3,.34a9.53,9.53,0,0,1-2.5-.95,4.28,4.28,0,0,1-1,2.19.13.13,0,0,1-.18,0,2.07,2.07,0,0,1-.47-1l-.09.17c-.54,1-1.22,2.31-2.25,2.83a.68.68,0,0,1-.82-.1,1.18,1.18,0,0,1,.08-1.45l.2-.28c-.59.44-1.5,1.16-2.23,1s-.35-1.16,0-1.52a7.87,7.87,0,0,1,1.61-1.16,3.83,3.83,0,0,1-1.51-.14,2.4,2.4,0,0,1-1.43-1,.91.91,0,0,1-.09-.33,1,1,0,0,0-.35.36c-.61,1.08,1.24,1.49,2.39,1.61a4.15,4.15,0,0,0-1.79.86c-.39.32-1.22,1.29-.67,1.82s1.21.15,1.85-.17a2.45,2.45,0,0,0-.87,1.51,1.33,1.33,0,0,0,.84,1.62,2.85,2.85,0,0,0,2.09-.08,2.18,2.18,0,0,0,.84-.56.64.64,0,0,0,.56-.09c.24-.14.34-.62.36-.87a.34.34,0,0,0,0-.1.72.72,0,0,0,.3.37c.15.09.38.18.53,0a1.92,1.92,0,0,0,.57-1.63q0-.39-.06-.78c0-.23-.12-.52-.14-.79,0,.1.08.21.11.28a7.65,7.65,0,0,0,.32.71,4.51,4.51,0,0,0,.35.54c.13.16.37.42.61.35.57-.16.39-1.16.35-1.59a3.72,3.72,0,0,0-.14-.74,2.3,2.3,0,0,0,1.55.91c.73.05.42-.83.12-1.49a3.07,3.07,0,0,0,1.3.53,6,6,0,0,0,2.62-.16c.57-.17,1.49-.41,1.76-1a1.18,1.18,0,0,0-.09-1,2.48,2.48,0,0,0-.33-.51,2.53,2.53,0,0,1-.22-.26A18.42,18.42,0,0,0,73.76,16a7.25,7.25,0,0,0,1.91.73c.33.07.8.17,1-.15a.53.53,0,0,0,0-.4c.22.18.45.34.64.49a5.59,5.59,0,0,0,1.9,1.07c.37.09,1.11.3,1.37-.14a1.16,1.16,0,0,0,.14-.47,7.93,7.93,0,0,0,.86.93,6.55,6.55,0,0,0,2,1.53c.38.13,1.06.19,1-.41.15-.09.2-.34.38-.5a3.47,3.47,0,0,1,.85-.63,1.51,1.51,0,0,1,1.7.37,3.43,3.43,0,0,1,.59,3.82,4,4,0,0,1-1.6,1.24c-.1.05-.47,1.63-.53,1.75,3.64-1.58,4.69-5.55,4.84-7.6A14.3,14.3,0,0,0,88.54,8.6Z" transform="translate(-1.73 -3.23)" fill="#a95c26" opacity="0.4" style="mix-blend-mode: multiply"/>
              </g>
            </g>
            <g>
              <path d="M97.38,66c-.07-.65-1-1.66-.93-2.33a3.37,3.37,0,0,0-.78-2c-.59-.73-3.54,0-3.36.55a8,8,0,0,1,.66,2.1,25.18,25.18,0,0,1,1.56,6.13c-.32.22-.08.76.4.77s.41-.47.41-.47.53.06.48-.47a1.08,1.08,0,0,0,.41-.61.61.61,0,0,0,.45-.77s.19-.18.24-.26a1.47,1.47,0,0,0,.25-1.1A14.75,14.75,0,0,1,97.38,66Z" transform="translate(-1.73 -3.23)" fill="#f3d9bf"/>
              <path d="M97.38,66c-.07-.65-1-1.66-.93-2.33a3.37,3.37,0,0,0-.78-2c-.59-.73-3.54,0-3.36.55a8,8,0,0,1,.66,2.1,25.18,25.18,0,0,1,1.56,6.13c-.32.22-.08.76.4.77s.41-.47.41-.47.53.06.48-.47a1.08,1.08,0,0,0,.41-.61.61.61,0,0,0,.45-.77s.19-.18.24-.26a1.47,1.47,0,0,0,.25-1.1A14.75,14.75,0,0,1,97.38,66Z" transform="translate(-1.73 -3.23)" fill="#f3d9bf" style="mix-blend-mode: multiply"/>
              <path d="M94.74,70s0,.07,0,.17a.73.73,0,0,0,.09.31.35.35,0,0,0,.13.11.85.85,0,0,0,.17.06l.13,0h.06l0,0-.14,0a.43.43,0,0,1-.22,0,.29.29,0,0,1-.12-.07.43.43,0,0,1-.1-.09.46.46,0,0,1,0-.4A.38.38,0,0,1,94.74,70Z" transform="translate(-1.73 -3.23)" fill="#c29369"/>
              <path d="M96.67,68.86l-.12,0-.15,0h-.21a1.29,1.29,0,0,1-.25-.06c-.08,0-.18-.08-.26-.13a1.45,1.45,0,0,1-.22-.21,1.07,1.07,0,0,1-.16-.25,1.31,1.31,0,0,1-.06-.27,2.11,2.11,0,0,1,0-.26,1.34,1.34,0,0,1,.17-.4,1,1,0,0,1,.22-.23.28.28,0,0,1,.11-.06.24.24,0,0,0-.08.08.9.9,0,0,0-.16.25,1.92,1.92,0,0,0-.11.4,1.62,1.62,0,0,0,0,.22.71.71,0,0,0,.06.24l0,.11a.46.46,0,0,0,.07.1,1.53,1.53,0,0,0,.18.18l.21.13a1.11,1.11,0,0,0,.22.07l.19,0h.28Z" transform="translate(-1.73 -3.23)" fill="#c29369"/>
              <path d="M96.25,69.65a.91.91,0,0,1-.26.08h-.15l-.16,0-.18-.07-.15-.12a.76.76,0,0,1-.11-.14.94.94,0,0,1-.06-.15.86.86,0,0,1,0-.26s0-.07,0-.1a.25.25,0,0,0,0-.08l0-.06a.32.32,0,0,1,0,.06s0,0,0,.08l0,.1,0,.11a.61.61,0,0,0,0,.12.45.45,0,0,0,.06.12.54.54,0,0,0,.09.12.76.76,0,0,0,.49.2h.28Z" transform="translate(-1.73 -3.23)" fill="#c29369"/>
              <path d="M95.8,70.23a.57.57,0,0,1-.21.11l-.12,0h-.15l-.17,0a.78.78,0,0,1-.15-.1.6.6,0,0,1-.11-.12.56.56,0,0,1-.07-.13.83.83,0,0,1-.06-.4.15.15,0,0,1,0-.06l0,.06.07.16,0,.09a.6.6,0,0,0,.06.11A.23.23,0,0,0,95,70a.34.34,0,0,0,.08.09.63.63,0,0,0,.45.13Z" transform="translate(-1.73 -3.23)" fill="#c29369"/>
            </g>
            <path d="M84.11,56.45s-2.57,8.17-1.44,8.27c.55,0,.62.8,10.93-2.51L96,64.48s-9.44,3-15.39,4.26c-4.46.91-4.21-6.36-2.67-12.81Z" transform="translate(-1.73 -3.23)" fill="#f3d9bf"/>
            <path d="M84.11,56.45s-2.57,8.17-1.44,8.27c.55,0,.62.8,10.93-2.51L96,64.48s-9.44,3-15.39,4.26c-4.46.91-4.21-6.36-2.67-12.81Z" transform="translate(-1.73 -3.23)" fill="#f3d9bf" style="mix-blend-mode: multiply"/>
            <path d="M82.9,60.8c.51-2.14,1.21-4.35,1.21-4.35l-6.18-.52c-.15.62-.29,1.26-.41,1.88A30.38,30.38,0,0,0,82.9,60.8Z" transform="translate(-1.73 -3.23)" fill="#f3d9bf" style="mix-blend-mode: multiply"/>
            <path d="M77,53.18a27.85,27.85,0,0,0,.34,3.4c.15.91,4.19,3,6.39,3.44a4.61,4.61,0,0,0,2-.24c.77-.38,6.33-2.19,6.75-4a5.36,5.36,0,0,0-.06-3S84.09,54.7,77,53.18Z" transform="translate(-1.73 -3.23)" fill="#c53827"/>
            <path d="M92.42,52.77s-.85.19-2.24.41a1.53,1.53,0,0,1,0,.3.1.1,0,0,1-.09.08,5.06,5.06,0,0,0-3.38.93,4,4,0,0,0-1.23,1.57c-.2.42-.32.9-.56,1.3-.9,1.58-2.88,1.57-4.65,1.38A14.76,14.76,0,0,0,83.71,60a4.61,4.61,0,0,0,2-.24c.77-.38,6.33-2.19,6.75-4A5.36,5.36,0,0,0,92.42,52.77Z" transform="translate(-1.73 -3.23)" fill="#c53827" style="mix-blend-mode: multiply"/>
            <g>
              <path d="M93.81,63.22a35,35,0,0,1-1.65-6.89c0-1.68-2.14-2.55-3.59-2.2a3.82,3.82,0,0,0-2.34,1.58c-1.2,1.69.46,5.13,1.24,6.61,1,1.93,1.37,3.17,3.53,4.06,4.52,1.86,14-.18,14-.18l.15-2.13C99.86,62.61,94.19,63.81,93.81,63.22Z" transform="translate(-1.73 -3.23)" fill="#f3d9bf"/>
              <path d="M89.85,54.62a3.66,3.66,0,0,1,.75,1.53c.3,1,.61,2.08.91,3.12s.49,1.93.8,2.87c.19.57.54,1.24.2,1.82a3.74,3.74,0,0,1-.41.55,9.9,9.9,0,0,1,3.17-.78,47.93,47.93,0,0,1,4.79.18c1.68.09,3.37.22,5.06.25v-.09c-5.27-1.46-10.94-.26-11.32-.85a35,35,0,0,1-1.65-6.89c0-1.63-2-2.49-3.45-2.23A1.78,1.78,0,0,1,89.85,54.62Z" transform="translate(-1.73 -3.23)" fill="#f3d9bf" style="mix-blend-mode: multiply"/>
              <g>
                <path d="M107.59,68a3.91,3.91,0,0,0-.31-.89,4.84,4.84,0,0,1-.77-1.54c-.07-.6,0-1.28-.52-1.71a1.29,1.29,0,0,0-1.19-.23,1.31,1.31,0,0,0-.91.86,5.4,5.4,0,0,0-.2,1.92c.88,1.4.86,3,1.66,5.42-.27.82.43,1.75,1,1.13.31-.33.17-.4.17-.4s.35.07.51-.64a1,1,0,0,0,.29-.64.59.59,0,0,0,.29-.81s.15-.2.18-.28a2.85,2.85,0,0,0-.06-1.42A6.53,6.53,0,0,0,107.59,68Z" transform="translate(-1.73 -3.23)" fill="#f3d9bf"/>
                <g style="mix-blend-mode: multiply">
                  <path d="M107.73,68.74a6.53,6.53,0,0,0-.14-.77,3.91,3.91,0,0,0-.31-.89,4.84,4.84,0,0,1-.77-1.54c-.07-.6,0-1.28-.52-1.71a1.29,1.29,0,0,0-1.19-.23,1.39,1.39,0,0,0-.7.46,1.62,1.62,0,0,1,1.62.44,2.86,2.86,0,0,1,.46,1.57,5.68,5.68,0,0,0,1,1.87,2.93,2.93,0,0,1,.48,1.62c0,.21-.11.59-.37.62s-.41-.33-.52-.71a3.28,3.28,0,0,0,.22,1,.45.45,0,0,1-.21.45.29.29,0,0,1-.32,0,.57.57,0,0,1,0,.55c-.1.14-.2.15-.29.09,0,.15.08.39,0,.5a.2.2,0,0,1-.32,0,.13.13,0,0,0,0,.06c0,.12.11.29.07.42a.32.32,0,0,1-.41.23l-.07,0c.2.39.59.59.94.21s.17-.4.17-.4.35.07.51-.64a1,1,0,0,0,.29-.64.59.59,0,0,0,.29-.81s.15-.2.18-.28A2.85,2.85,0,0,0,107.73,68.74Z" transform="translate(-1.73 -3.23)" fill="#f3d9bf"/>
                </g>
                <path d="M106.76,69.53s.09,1.23.85.91C107.61,70.44,107.11,70.66,106.76,69.53Z" transform="translate(-1.73 -3.23)" fill="#c29369"/>
                <path d="M107.41,71.12a1,1,0,0,1-.67-.06.94.94,0,0,1-.4-.58s0,0,0,0c.12.47.57,1.1,1.1.69C107.45,71.17,107.43,71.11,107.41,71.12Z" transform="translate(-1.73 -3.23)" fill="#c29369"/>
                <path d="M107.08,71.75c-.38.24-.84-.1-1-.46,0,0,0,0,0,0a.81.81,0,0,0,.37.56.48.48,0,0,0,.63,0S107.1,71.74,107.08,71.75Z" transform="translate(-1.73 -3.23)" fill="#c29369"/>
                <path d="M105.77,71.66a.93.93,0,0,0,.19.6c.13.16.38.38.6.25,0,0,0-.07,0-.07a.82.82,0,0,1-.75-.77S105.76,71.63,105.77,71.66Z" transform="translate(-1.73 -3.23)" fill="#c29369"/>
              </g>
            </g>
            <path d="M104.36,64.49a.35.35,0,0,0-.19-.17.39.39,0,0,0-.15,0s-.1,0-.13,0,0,0,0,0,0,0,.06,0a.41.41,0,0,1,.22.07c.19.13.09.36,0,.52s0,0,0,0A.55.55,0,0,0,104.36,64.49Z" transform="translate(-1.73 -3.23)" fill="#c29369"/>
          </g>
          <path d="M85.08,33.28s-1.86-1.42-2.76,3a47.52,47.52,0,0,1-3.91,10.23s.13,1.95,3.28,1.5c0,0,4.84-7.38,5.2-9.93S86.45,33.92,85.08,33.28Z" transform="translate(-1.73 -3.23)" fill="#f3d9bf"/>
          <path d="M82,47.58a1.79,1.79,0,0,0-.13-.86,1.88,1.88,0,0,0-2-1.06,3.86,3.86,0,0,0-1.42.9c-1.17,1.8-10,7.38-10.12,9S69.39,58,71,57.16s9.91-6.66,10.94-9.42Z" transform="translate(-1.73 -3.23)" fill="#f3d9bf"/>
          <path d="M85.08,33.28s-1-.77-1.9.61l.15-.1a1.66,1.66,0,0,1,2.38.82,5.27,5.27,0,0,1,0,3.61,34.94,34.94,0,0,1-1.42,4.49A21.6,21.6,0,0,1,78.74,51c-1.44,1.27-3,2.42-4.44,3.67-.5.43-1,.87-1.47,1.31,3-2.06,8.26-6.07,9.06-8.22h0c.92-1.43,4.68-7.37,5-9.61C87.25,35.57,86.45,33.92,85.08,33.28Z" transform="translate(-1.73 -3.23)" fill="#f3d9bf" style="mix-blend-mode: multiply"/>
          <g>
            <path d="M71.1,58.44A3.2,3.2,0,0,0,70.72,56,7.15,7.15,0,0,0,69,54.09l-.32.21a10.73,10.73,0,0,1-3.5,2.15c-2.24.86-3.19,1.57-3.15,2,0,.21.18.51.91.2a31.31,31.31,0,0,1,3.72-1.29,21.49,21.49,0,0,0-2.53,2.29c-1,1.14-1.05,1.68-.63,2s1-.66,1.77-1.27,2.13-1.75,2.13-1.75a23.14,23.14,0,0,0-1.93,3.45c-.14.43-.07.72.16.84s.5.07,1-.78,1.65-2.48,1.65-2.48a15.63,15.63,0,0,0-.51,2c-.14.85,0,1.67.38,1.72.23,0,.51-.38.64-1.51a7.24,7.24,0,0,1,.54-2A3.57,3.57,0,0,0,71.1,58.44Z" transform="translate(-1.73 -3.23)" fill="#f3d9bf"/>
            <path d="M70.15,55.18a7.16,7.16,0,0,0-1.41-1.28c-.6-.23-3.25-.16-4.18-.39h0a.71.71,0,0,0-.5.82,2,2,0,0,0,.09.35,1.55,1.55,0,0,0,.82.48,10.34,10.34,0,0,0,1.56.17,1.15,1.15,0,0,1,.36.07A2.29,2.29,0,0,0,67.26,57a2.44,2.44,0,0,0,1.31.79l1.68-2.43Z" transform="translate(-1.73 -3.23)" fill="#f3d9bf"/>
          </g>
        </g>
      </g>
    </g>
  </g>
</svg>
