<svg id="레이어_1" data-name="레이어 1" xmlns="http://www.w3.org/2000/svg" viewBox="0 0 665.87 409.46">
  <g id="Background_Complete" data-name="Background Complete">
    <path d="M95.64,115.44H19s3.81-5,8-5.58c0,0,8.17-24.33,21.85-24.5,12.72-.16,17.82,15,17.82,15s5.89-6.78,11.52-3.68,8.82,12,8.82,12S93.34,112,95.64,115.44Z" transform="translate(0 0)" fill="#ebebeb"/>
    <path d="M588.56,187.76H511.91s3.81-5,8-5.58c0,0,8.17-24.33,21.85-24.5,12.72-.16,17.82,15,17.82,15s5.89-6.78,11.52-3.68,8.82,12,8.82,12S586.26,184.35,588.56,187.76Z" transform="translate(0 0)" fill="#ebebeb"/>
    <path d="M308,67.11h96.93s0-6.2-13.36-7.41c0,0-12.19-27.07-30.8-23.43-11.56,2.26-17.56,18.18-17.56,18.18s-8.76-12.53-15.77-10.1S316.28,60.1,316.28,60.1,309.09,63.61,308,67.11Z" transform="translate(0 0)" fill="#ebebeb"/>
    <path d="M241.38,112.61h65.91s-6.22-5.79-9-5.79-10.81-19.43-21.08-18.6-15.78,15.3-15.78,15.3S248.86,99.59,241.38,112.61Z" transform="translate(0 0)" fill="#ebebeb"/>
    <path d="M67,146.06h56.36s-2.8-3.65-5.89-4.11c0,0-6-17.89-16.07-18-9.35-.11-13.1,11-13.1,11s-4.34-5-8.48-2.71-6.48,8.81-6.48,8.81S68.69,143.55,67,146.06Z" transform="translate(0 0)" fill="#ebebeb"/>
    <path d="M599.07,122.52h56.36s-2.8-3.64-5.89-4.1c0,0-6-17.89-16.07-18-9.35-.12-13.1,11-13.1,11s-4.34-5-8.48-2.7-6.48,8.81-6.48,8.81S600.76,120,599.07,122.52Z" transform="translate(0 0)" fill="#ebebeb"/>
  </g>
  <g id="Shadow">
    <ellipse cx="338.46" cy="343.43" rx="277.51" ry="26.75" fill="#ebebeb"/>
  </g>
  <g id="Sun">
    <circle cx="189.61" cy="113.75" r="19.09" fill="#ffc727" opacity="0.5" style="isolation: isolate"/>
    <circle cx="190.6" cy="113.61" r="13.8" fill="#ffc727"/>
  </g>
  <g id="Beach">
    <polygon points="8.54 252.73 90.71 252.49 172.87 252.4 337.21 252.23 501.54 252.4 583.71 252.48 665.87 252.73 583.71 252.97 501.54 253.06 337.21 253.23 172.87 253.06 90.71 252.97 8.54 252.73" fill="#263238"/>
    <path d="M186.21,252.62s8.12-13.14,8.46-22.38c.38-10.07-5.77-20.83-5.77-20.83l.47-.37s8.68,11.06,7.86,22.7c-.8,11.28-7.36,20.88-7.36,20.88Z" transform="translate(0 0)" fill="#455a64"/>
    <path d="M189,209s5.17-4.64,7.57-4.49,7.25,5.59,7.25,5.78-4.17-2.89-4.17-2.89l2.44,3.15-3.49-3.23,1.13,2.71-2-3,.56,2.86-1.94-2.71,1,2.1-1.53-1.71.57,1.52-1.32-1.35,1,1.95-1.76-1.8.71,1.58L194,208.42c-.15-.15.3,1.05.3,1.05l-1.46-1.5.33,1.35-.75-.79.15.79-.75-.79.17.72-1.14-.76.15.38Z" transform="translate(0 0)" fill="#455a64"/>
    <path d="M189.06,209s8.27.88,10.26,2.38,4.89,6.61,4.89,6.61L200,213.73,202.1,218l-3-4.54.6,3.76L197.52,213l.83,3.72-1.58-4.24.51,4-1.9-4.43.52,3.19-1.61-3.57.6,3.16-2.18-4.13.83,3.53-1.6-3.8.21,1.85L190.93,210l.43,1.5-1.39-2,.19,1.22Z" transform="translate(0 0)" fill="#455a64"/>
    <path d="M189.09,209s.45-5.71,2-7,6.42-2.81,6.42-2.81l-2.92,1.42,2.92-.26-4,.83,3.2.18-3.45.42,3.26.86-3.61-.26,1.92.67-2.41.23,2.78.38-3.26.45h2.27L191,205a13.84,13.84,0,0,1,2.23,0,15.51,15.51,0,0,1-2.49.75l1.37.19-1.56.26,1.17.45h-1.5l1.16.3-1.28.34.53.23-1,.46Z" transform="translate(0 0)" fill="#455a64"/>
    <path d="M189.21,209s-2.61,4.34-2,7.35,4,8.37,4,8.37l-1.69-3.41,2.36,2.17L189.21,220l2.65,1.54-2.37-2.41,2.15.79-2-1.84,2.18.83-2.19-1.72,2,.49-2.56-1.66,2.41.74-1.84-1.11,1.72.26-2.15-1.25,1.79.08-2.18-1.39,2,.52-2-1.16,1.65.11s-1.35-1-1.43-1,1.28.22,1.28.22l-1.11-1.25.62-.11Z" transform="translate(0 0)" fill="#455a64"/>
    <path d="M189.09,209s-2.45-5.61-4.8-6.81-6.56-1.11-6.56-1.11l3,.65L178,202l4.43.43-4.23.37,5.23.58-4.68.35,3.93.67-2.08.53,3.11-.13-2.58.53,3.35.38-2.35.57h4.08l-2.36.68,2.51-.05-1.56.4s2.21.47,2.38.47-1.3.1-1.3.1l2.43.51-.83.07Z" transform="translate(0 0)" fill="#455a64"/>
    <path d="M189.06,209s.09-6.94-.94-8.72a6.22,6.22,0,0,0-3.31-2.43l1.78,1.39-1.78-.24,1.86,1.13-2-.15,2.41,1.05-2-.22,1.8.82h-1.2l1.68,1-1.42-.33,1.6,1.13-1.48-.4,1.8,1.25-1.32-.42,1.72,1.23-1.27-.38,1.3.85-.78-.15,1,.85-.88-.4,1,1.05-.63-.22Z" transform="translate(0 0)" fill="#455a64"/>
    <path d="M189.21,209.16s-7.86-2.47-11.39-1.26-5.21,5.39-5.21,5.39l2.51-2.57-.81,2.78,2.26-3.34-.63,3.11,1.5-3.13-.52,3.23,1.73-3.41-.38,3.54,1.7-3.74-.45,2.71,1.71-3.1-1,3.65,2-3.65s-.57,3.32-.55,3.17,1.4-3,1.4-3l-.25,2.08,1.08-2-.2,1.51,1.25-1.8-.42,1.7,1.25-1.7-.2,1a15.55,15.55,0,0,1,1.34-1.09C187,209.22,189.21,209.16,189.21,209.16Z" transform="translate(0 0)" fill="#455a64"/>
    <path d="M189.21,209s-4.57,1.18-6,3.18-.12,9.45-.12,9.45v-4.31l1,2-.78-3.15,1.55,2.2-1.4-3.51,1.65,2.58-1.2-3.48,1.53,2.51-1-3.36,1.27,2.61-.47-3.18.92,1.92-.42-2.48.8,1.47-.25-2.14.49,1.18L187,211v.82l.51-1.63V211l.57-1.1Z" transform="translate(0 0)" fill="#455a64"/>
    <path d="M185.44,252.62h9.16s-.59-3.25,3.62-4.8a5.67,5.67,0,0,0-4.32,2.75s2.06-5.51,6.51-6.51a11.38,11.38,0,0,0-7.73,6.06s-.9-4.82,5.71-7.49c0,0-6,.45-8.24,7.89,0,0,1.2-6.46-3.76-9.16,0,0,3.11,3,2.66,6.91,0,0-1.36-4.71-7.12-4.51,0,0,5.61,1.8,6.06,5.61,0,0-2-3-5.15-3.11,0,0,2.85,1.36,3.3,2.71,0,0-1.8-1.65-3.36-.8C182.78,248.22,186.09,248.62,185.44,252.62Z" transform="translate(0 0)" fill="#455a64"/>
    <path d="M82,252.62s5.87-9.5,6.12-16.17c.27-7.27-4.18-15-4.18-15l.35-.27s6.27,8,5.67,16.41c-.58,8.15-5.32,15.08-5.32,15.08Z" transform="translate(0 0)" fill="#455a64"/>
    <path d="M84,221.13s3.73-3.35,5.46-3.24,5.24,4,5.24,4.18a30.33,30.33,0,0,1-3-2.1l1.76,2.29-2.52-2.34.81,2-1.46-2.18.41,2.07-1.39-2,.7,1.52-1.11-1.24.41,1.1-1-1,.76,1.41-1.27-1.3.51,1.14-.76-.79c-.11-.1.22.76.22.76l-1.06-1.08.24,1-.54-.57.11.57-.54-.57.12.51-.83-.54.11.27Z" transform="translate(0 0)" fill="#455a64"/>
    <path d="M84,221.1s6,.64,7.41,1.73S95,227.6,95,227.6l-3-3.08,1.49,3.08-2.14-3.28.43,2.71L90.21,224l.6,2.68-1.14-3.06.37,2.93-1.38-3.21.38,2.31L87.88,223l.43,2.28-1.57-3,.59,2.55-1.15-2.74.15,1.33-.88-1.63.31,1.08-1-1.42.14.88Z" transform="translate(0 0)" fill="#455a64"/>
    <path d="M84,221.13s.33-4.13,1.41-5.08,4.64-2,4.64-2l-2.12,1,2.12-.19-2.88.6,2.31.13-2.48.3,2.35.63-2.61-.19,1.38.48-1.73.17,2,.27-2.37.32h1.66l-2.31.6a8.77,8.77,0,0,1,1.62,0,11.41,11.41,0,0,1-1.81.54l1,.14L85.1,219l.84.33H84.85l.84.22-.92.24.38.17-.7.33Z" transform="translate(0 0)" fill="#455a64"/>
    <path d="M84.09,221.08s-1.88,3.13-1.45,5.3,2.88,6.06,2.88,6.06L84.3,230,86,231.54l-1.92-2.47L86,230.22l-1.72-1.73,1.55.57-1.41-1.33,1.58.59-1.58-1.22,1.41.36L84,226.26l1.74.54L84.41,226l1.24.19-1.56-.92,1.29.05-1.57-1,1.46.38-1.43-.84,1.19.08-1-.74.92.17-.83-.9.45-.08Z" transform="translate(0 0)" fill="#455a64"/>
    <path d="M84,221.13s-1.77-4-3.47-4.92a12.54,12.54,0,0,0-4.74-.8l2.15.47-2,.17,3.2.3-3,.27L80,217l-3.38.25,2.84.49-1.5.38,2.25-.09-1.87.38,2.43.27-1.7.42H82l-1.7.49h1.81l-1.13.29s1.6.34,1.72.34-.94.08-.94.08l1.76.36-.6.05Z" transform="translate(0 0)" fill="#455a64"/>
    <path d="M84,221.08s.06-5-.68-6.31A4.52,4.52,0,0,0,81,213l1.28,1L81,213.85l1.34.82-1.45-.11,1.74.76-1.41-.17,1.3.6H81.6l1.21.7-1-.23L83,217l-1.07-.29,1.31.91-1-.31,1.25.89-.93-.28.94.62-.56-.11.74.62-.63-.29.74.76-.45-.17Z" transform="translate(0 0)" fill="#455a64"/>
    <path d="M84.09,221.22s-5.68-1.78-8.23-.91-3.76,3.9-3.76,3.9l1.81-1.87-.58,2,1.63-2.4-.46,2.24,1.09-2.26-.38,2.3,1.25-2.46-.27,2.55,1.23-2.69-.33,1.95,1.23-2.24L77.65,224l1.41-2.64-.39,2.29c0-.1,1-2.17,1-2.17l-.18,1.5.78-1.41-.15,1.09.91-1.3-.31,1.23.9-1.23-.14.74a10.84,10.84,0,0,1,1-.79C82.56,221.29,84.09,221.22,84.09,221.22Z" transform="translate(0 0)" fill="#455a64"/>
    <path d="M84.09,221.13s-3.27.85-4.28,2.27-.09,6.83-.09,6.83v-3.12l.69,1.49-.56-2.28L81,227.91l-1-2.53,1.19,1.86-.87-2.51,1.11,1.8-.69-2.42.92,1.88-.34-2.3.67,1.4-.31-1.79.58,1-.18-1.54.35.85.17-1.11v.6l.36-1.18v.6l.42-.79Z" transform="translate(0 0)" fill="#455a64"/>
    <path d="M81.4,252.62H88s-.42-2.35,2.61-3.47a4.06,4.06,0,0,0-3.11,2s1.48-4,4.7-4.7a8.22,8.22,0,0,0-5.59,4.38s-.65-3.49,4.13-5.41c0,0-4.32.32-6,5.69,0,0,.87-4.66-2.71-6.62a6.78,6.78,0,0,1,1.92,5,4.92,4.92,0,0,0-5.14-3.26s4,1.3,4.38,4.05A5.16,5.16,0,0,0,79.48,248s2.06,1,2.39,2c0,0-1.3-1.19-2.43-.58C79.48,249.4,81.87,249.73,81.4,252.62Z" transform="translate(0 0)" fill="#455a64"/>
    <path d="M120.92,252.72h6.29s-10.63-9-12.31-17.91,1.31-12.75,1.31-12.75l-.65-.39a20.33,20.33,0,0,0-1.8,13.34C115.38,242.42,120.92,252.72,120.92,252.72Z" transform="translate(0 0)" fill="#455a64"/>
    <path d="M115.6,222.36s-5.67,2.1-7.48,3.78-2.23,8.46-2.23,8.46l1.2-4.72-.51,4,1.46-5.19-.13,5.11,1-6.45.09,5.24.65-5.54.47,4.23.21-4.48.43,3.43.52-4.16-.13,3.73,1.16-4.29-.22,2.7,1.27-3-.45,2.23.94-2.79-.21,1.55Z" transform="translate(0 0)" fill="#455a64"/>
    <path d="M115.6,222.36s3.3,1.93,3.77,4.64-.68,8.24-.68,8.24v-4.38l-1.1,2.92.63-4.25-1.07,3.14.44-4.19-1,2.21.69-3.56-1.08,1.67.78-2.92-1.12,1.72.64-3.09-.85,1.46.42-2.37-.68,1,.47-1.5Z" transform="translate(0 0)" fill="#455a64"/>
    <path d="M115.34,222.87s-2.24-4-5.8-5.28-7.43.6-7.43.6l4.16-.25L103.48,219l4-.39-3,1.6,4.29-1.07s-2.7,2.66-2.57,2.49,3.3-2.19,3.3-2.19l-1.84,2.88,2.87-2.35-1.76,2.86,2.67-2.14-2.18,2.52,3.18-1.55-1.68,1.68,2.36-1-1,1,2-1Z" transform="translate(0 0)" fill="#455a64"/>
    <path d="M115.6,222.36s.34-6.62-1.16-9.71-6.62-4.64-6.62-4.64l3.44,2.71-3.44-1.33,3.91,2.1s-3.18-.56-3.31-.6,3.78,1.46,3.78,1.46l-3.86-.08,4,.86-3.57.12,3.74.86-3.74.13,4.62.95-3.84-.3,3.84,1.16-3.24-.13,3.65,1.24-3-.26,3.18,1-1.93-.13,2.36,1-1.76.09,2,.56-1.22.21,1.57.64h-1.76l1.76.91Z" transform="translate(0 0)" fill="#455a64"/>
    <path d="M115.6,222.87s3.35-1.84,6.05-1.46,6.19,3.35,6.19,3.35l-2.24-1.11,1.08,1.84-1.85-2.06.6,2.71-1.2-2.58-.09,2.32-1.24-2.53v2.4l-1-2.4.08,2.79-1.33-2.79-.17,2-.65-2.32-.31,1.64-.59-1.46-.47,1.28-.34-1.63-.31,1.3-.6-1.17Z" transform="translate(0 0)" fill="#455a64"/>
    <path d="M115.63,222.14s-.42-6,.87-8.59,5.45-5.32,5.45-5.32L119.49,211l2.72-.76-3.32,1.72H122l-3.47.73a15.47,15.47,0,0,0,2.36.94c.26,0-2.79-.39-2.79-.39l2.16,1.55-2.64-.69,2.37,1.27-2.5-.39,1.92.88-2.26-.08s1.57.75,1.63.75l-2-.11,1.72,1.08-1.77-.11,1.55.73H116.7l1.06.38-1.27.3,1.22.13-1.26.32,1.13.24-1.18.17.84.28-1.1.19.65.39-.84.28.45.19Z" transform="translate(0 0)" fill="#455a64"/>
    <path d="M115.6,222.87s2.45-5.51,5.19-7.19,8.89-1.06,8.89-1.06l-5,.87,3.7,1.45-4.67-.62,3.19,1.52-4.27-1,2.89,1.74-4.22-1.26,3.35,2.1-4.13-1.55,2.69,2.35L120,218.29l2.48,2.32-2.94-1.8,1.62,2.25-2.22-1.61,1.36,1.91L118.41,220l1.11,1.64-1.6-.93,1,1.4-1.71-.89,1.09,1.17s-1.45-.69-1.54-.69.64.69.64.69l-1-.22Z" transform="translate(0 0)" fill="#455a64"/>
    <path d="M117.14,252.72s.38-2.44-3-5.08c0,0,2.64,1,3.38,3.12a5.76,5.76,0,0,0-4.25-5.09,6.05,6.05,0,0,1,5.22,4.12s-.28-4.57-3.87-6.57c0,0,3.46,1.32,5.16,6.3,0,0,2.53-3.64,6.59-4.13,0,0-4,1.6-4,4.68,0,0,2.92-3.9,6.53-3.59,0,0-4.12,1.1-4.12,4a4.68,4.68,0,0,1,4.38-2.35s-4.54,1.81-2.61,4.54Z" transform="translate(0 0)" fill="#455a64"/>
    <path d="M219.91,252.72h5.3s-9.06-7.68-10.49-15.26,1.15-10.87,1.15-10.87l-.55-.33a17.25,17.25,0,0,0-1.53,11.36C215.21,243.94,219.91,252.72,219.91,252.72Z" transform="translate(0 0)" fill="#455a64"/>
    <path d="M215.37,226.84s-4.83,1.8-6.37,3.23-1.9,7.21-1.9,7.21l1-4-.43,3.44,1.24-4.43-.11,4.36.84-5.49.08,4.46.54-4.72.41,3.61.18-3.83.37,2.93.44-3.55-.11,3.18,1-3.66-.18,2.31,1.08-2.53-.38,1.91.8-2.38-.18,1.32Z" transform="translate(0 0)" fill="#455a64"/>
    <path d="M215.37,226.84s2.82,1.65,3.22,4-.58,7-.58,7V234.1l-.94,2.49.54-3.62-.92,2.67.38-3.57-.85,1.89.58-3-.91,1.43.66-2.49-1,1.46.55-2.64-.74,1.25.37-2-.59.8.41-1.28Z" transform="translate(0 0)" fill="#455a64"/>
    <path d="M215.15,227.28s-1.9-3.44-4.94-4.5a9.39,9.39,0,0,0-6.33.51l3.55-.22-2.38.92,3.44-.33-2.63,1.39,3.66-.91s-2.31,2.26-2.2,2.12,2.82-1.87,2.82-1.87l-1.58,2.45,2.46-2-1.5,2.43,2.27-1.83L210,227.57l2.7-1.32-1.45,1.44,2-.85-.88.85,1.72-.85Z" transform="translate(0 0)" fill="#455a64"/>
    <path d="M215.37,226.84s.3-5.63-1-8.27-5.63-4-5.63-4l2.93,2.3-2.93-1.13,3.32,1.79s-2.7-.47-2.81-.51l3.22,1.24-3.26,0,3.36.73-3,.11,3.18.74-3.18.11,3.93.8-3.28-.26,3.28,1-2.76-.11,3.11,1.06-2.64-.18,2.71.84-1.65-.11,2,.84-1.5.07,1.68.48-1,.18,1.34.55h-1.5l1.5.77Z" transform="translate(0 0)" fill="#455a64"/>
    <path d="M215.37,227.28s2.86-1.57,5.16-1.24,5.28,2.85,5.28,2.85l-1.91-.95.92,1.58-1.61-1.77.52,2.32-1-2.2-.07,2-1.06-2.16v2l-.88-2,.07,2.38-1.13-2.38-.15,1.68-.55-2-.27,1.39-.5-1.24-.4,1.1-.29-1.39-.26,1.11-.51-1Z" transform="translate(0 0)" fill="#455a64"/>
    <path d="M215.4,226.66s-.36-5.12.74-7.32,4.65-4.54,4.65-4.54l-2.1,2.34,2.32-.62-2.8,1.47h2.65l-3,.62a12.84,12.84,0,0,0,2,.8c.22,0-2.38-.33-2.38-.33l1.84,1.32-2.25-.58,2,1.08-2.13-.33,1.63.75-1.92-.08s1.34.64,1.39.64l-1.68-.09,1.46.92-1.5-.09,1.32.62H216.3l.9.33-1.08.26,1,.11-1.08.27,1,.2-1,.15.71.24-.93.16.55.33-.72.24.39.16Z" transform="translate(0 0)" fill="#455a64"/>
    <path d="M215.37,227.28s2.1-4.7,4.43-6.13,7.58-.9,7.58-.9l-4.26.74,3.16,1.23-4-.52L225,223l-3.64-.88,2.46,1.49-3.61-1.08,2.86,1.79L219.55,223l2.25,2.06-2.74-1.65,2.11,2-2.51-1.54,1.39,1.92-1.9-1.37,1.16,1.63-1.6-1.16,1,1.4-1.36-.8.85,1.2-1.43-.81.94,1s-1.24-.58-1.32-.58.55.58.55.58l-.85-.18Z" transform="translate(0 0)" fill="#455a64"/>
    <path d="M216.69,252.72s.33-2.08-2.58-4.33a5.47,5.47,0,0,1,2.88,2.66,4.9,4.9,0,0,0-3.63-4.34,5.17,5.17,0,0,1,4.45,3.51s-.22-3.87-3.27-5.58c0,0,3,1.12,4.4,5.37a9,9,0,0,1,5.62-3.52s-3.4,1.36-3.44,4c0,0,2.48-3.33,5.56-3.06,0,0-3.51.94-3.51,3.43a4,4,0,0,1,3.73-2s-3.87,1.54-2.22,3.87Z" transform="translate(0 0)" fill="#455a64"/>
    <path d="M27.84,252.72h5.75s-9.79-8.3-11.33-16.5,1.25-11.73,1.25-11.73l-.59-.36a18.62,18.62,0,0,0-1.66,12.27C22.74,243.22,27.84,252.72,27.84,252.72Z" transform="translate(0 0)" fill="#455a64"/>
    <path d="M22.94,224.78s-5.22,1.94-6.88,3.48S14,236.05,14,236.05l1.11-4.35-.47,3.71L16,230.63l-.12,4.7.91-5.92.08,4.82.59-5.1.44,3.89.19-4.13.4,3.16.47-3.83-.12,3.44,1.07-3.95-.2,2.49,1.17-2.73-.41,2.05.86-2.56-.19,1.42Z" transform="translate(0 0)" fill="#455a64"/>
    <path d="M22.94,224.78s3,1.78,3.47,4.27-.63,7.59-.63,7.59v-4l-1,2.69.58-3.92-1,2.89.41-3.86-.93,2,.64-3.28-1,1.54.73-2.68-1,1.58.6-2.84L23,228.1l.39-2.17-.63.87.43-1.39Z" transform="translate(0 0)" fill="#455a64"/>
    <path d="M22.7,225.22s-2.06-3.71-5.34-4.86-6.84.56-6.84.56l3.84-.24-2.57,1,3.71-.36-2.84,1.51,3.95-1s-2.49,2.45-2.37,2.29,3-2,3-2l-1.7,2.65,2.67-2.15-1.6,2.6,2.45-2-2,2.29L20,224.09l-1.54,1.54,2.17-.91-1,.91,1.86-.91Z" transform="translate(0 0)" fill="#455a64"/>
    <path d="M22.94,224.78s.31-6.08-1.07-8.93-6.09-4.27-6.09-4.27l3.16,2.49-3.16-1.22,3.59,1.93s-2.92-.51-3-.55l3.48,1.34-3.55-.08,3.63.79-3.28.12,3.44.79-3.44.12,4.25.87-3.54-.28L20.9,219l-3-.12L21.21,220l-2.77-.24,2.92.91-1.77-.12,2.17.91-1.62.08,1.82.51-1.13.2,1.44.59H20.68l1.62.84Z" transform="translate(0 0)" fill="#455a64"/>
    <path d="M22.94,225.22s3.08-1.7,5.57-1.35,5.7,3.13,5.7,3.13l-2.06-1,1,1.7-1.7-1.9.56,2.49-1.11-2.37-.08,2.13-1.15-2.33v2.21l-.94-2.21.07,2.57-1.22-2.57-.16,1.82-.59-2.14-.29,1.51L26,225.56l-.44,1.19-.35-1.53-.28,1.19-.55-1.07Z" transform="translate(0 0)" fill="#455a64"/>
    <path d="M23,224.58s-.39-5.53.8-7.9,5-4.9,5-4.9l-2.26,2.53,2.5-.67L26,215.22h2.86l-3.2.67a14.15,14.15,0,0,0,2.18.87c.23,0-2.57-.36-2.57-.36l2,1.43-2.44-.61L27,218.39l-2.3-.36,1.76.81-2.07-.08s1.44.7,1.5.7l-1.82-.1,1.58,1-1.62-.1,1.43.67H24l1,.36-1.17.27,1.13.12-1.16.3,1,.21-1.08.16.77.26-1,.18.59.35-.77.26.42.18Z" transform="translate(0 0)" fill="#455a64"/>
    <path d="M22.94,225.22s2.27-5,4.78-6.58,8.18-1,8.18-1l-4.6.8,3.41,1.33-4.3-.55,2.94,1.39-3.93-1,2.65,1.6-3.86-1.14,3.08,1.93-3.79-1.43,2.43,2.22-3-1.77,2.28,2.15-2.71-1.66L28,223.64l-2-1.49,1.22,1.74-1.73-1.25,1,1.51L25,223.29l.91,1.29-1.53-.87,1,1.07s-1.33-.63-1.42-.63.6.63.6.63l-.92-.2Z" transform="translate(0 0)" fill="#455a64"/>
    <path d="M24.35,252.72s.36-2.25-2.78-4.68c0,0,2.43,1,3.11,2.88a5.31,5.31,0,0,0-3.91-4.7,5.56,5.56,0,0,1,4.8,3.8s-.24-4.18-3.53-6c0,0,3.18,1.21,4.75,5.79,0,0,2.33-3.35,6.06-3.79,0,0-3.67,1.47-3.71,4.3,0,0,2.68-3.59,6-3.31,0,0-3.79,1-3.79,3.71a4.28,4.28,0,0,1,4-2.16s-4.14,1.66-2.37,4.16Z" transform="translate(0 0)" fill="#455a64"/>
    <path d="M0,252.78s37.66-5.38,55.85-6.44,91.7,3.34,94.11,3.76,72.63-1.84,90-2.55,303.76,5.3,303.76,5.3Z" transform="translate(0 0)" fill="#455a64"/>
  </g>
  <g id="Trees">
    <path d="M607.74,80.43s-.53,45.19,14.47,93.57c8.65,27.9,26.82,56.86,42,78.83H639s-21.79-54-26.61-78.21c-10.74-54.07-6.55-95-6.55-95Z" transform="translate(0 0)" fill="#ffc727"/>
    <path d="M607.74,80.43s-.53,45.19,14.47,93.57c8.65,27.9,26.82,56.86,42,78.83H639s-21.79-54-26.61-78.21c-10.74-54.07-6.55-95-6.55-95Z" transform="translate(0 0)" opacity="0.3" style="isolation: isolate"/>
    <path d="M632.42,236c.08.2.15.4.22.59,1.22,0,2.45,0,3.67-.06,2.1,0,4.21-.1,6.31-.23-2.1-.13-4.21-.18-6.31-.23C635,236,633.72,236,632.42,236Z" transform="translate(0 0)" fill="#ffc727"/>
    <path d="M634.64,226.68c1.05.07,2.1.1,3.15.16l3.15.08c2.11.06,4.21.07,6.31.07h.17l-.37-.61c-2,0-4.07,0-6.11.07l-3.15.08Z" transform="translate(0 0)" fill="#ffc727"/>
    <path d="M637.91,222.6c1,.07,2.1.1,3.15.15l3.15.09h.73l-.29-.49h-.44l-3.15.09C640,222.5,639,222.53,637.91,222.6Z" transform="translate(0 0)" fill="#ffc727"/>
    <path d="M619.21,199a1.18,1.18,0,0,0,.12.36c1.39,0,2.78-.09,4.17-.17C622.08,199.14,620.65,199.09,619.21,199Z" transform="translate(0 0)" fill="#ffc727"/>
    <path d="M617.43,193.44l.18.55h2.06c2.1,0,4.19-.11,6.29-.24-2.1-.12-4.19-.18-6.29-.23Z" transform="translate(0 0)" fill="#ffc727"/>
    <path d="M611.21,168.13a.6.6,0,0,0,.07.34c1.27,0,2.54-.09,3.81-.17C613.75,168.22,612.46,168.22,611.21,168.13Z" transform="translate(0 0)" fill="#ffc727"/>
    <path d="M608.51,143.37c1,.07,2.1.1,3.15.16l2.89.08-.09-.46-2.8.07C610.61,143.27,609.56,143.3,608.51,143.37Z" transform="translate(0 0)" fill="#ffc727"/>
    <path d="M605.6,120.85a.61.61,0,0,1,0,.19c.63,0,1.26-.06,1.88-.1Z" transform="translate(0 0)" fill="#ffc727"/>
    <path d="M610.91,140.34c1,.07,2,.1,3,.14l-.06-.29C612.89,140.22,611.9,140.27,610.91,140.34Z" transform="translate(0 0)" fill="#ffc727"/>
    <path d="M639.41,51.5l-7.54-1.82,6.7,4.64a30.24,30.24,0,0,1-5,9L626,59.94l5.34,5.87a32.1,32.1,0,0,1-2.74,2.48l-4.41-2.22,2.49,3.69a42.17,42.17,0,0,1-6.2,3.62l-3.59-4,2,4.7a64.42,64.42,0,0,1-13.22,4.08L636.9,24a50,50,0,0,1,3.31,12.72h-3.3l3.49,1.83c.11,1.38.17,2.83.15,4.32L632.72,42l7.63,4.41A35.2,35.2,0,0,1,639.41,51.5Z" transform="translate(0 0)" fill="#455a64"/>
    <path d="M650.77,79.33l-2.86-3.43,1.49,4.7A23.52,23.52,0,0,1,644.34,84L641,77.66l.27,7.57a25.76,25.76,0,0,1-3.46.87l-2.19-4.55-.2,4.88a31.9,31.9,0,0,1-6.18-.06l-1.19-7.92-2,7.46c-1-.19-2.12-.43-3.23-.72V80L620,84.4A75.81,75.81,0,0,1,606,78.12l51-8.52A26.6,26.6,0,0,1,650.77,79.33Z" transform="translate(0 0)" fill="#37474f"/>
    <path d="M606,78.22a88.84,88.84,0,0,1-11.6-15.15l5.56-3.3-6.8,1.14a60,60,0,0,1-2.69-5.53l5.67-3.74-6.85.73c-.56-1.57-1-3.11-1.42-4.64l9.85-3.56L586.8,42.49a43.17,43.17,0,0,1-.18-10.16h0l12.82-2.89-12.05-2c.18-.86.39-1.71.62-2.54l6.94.26-6.22-2.58a46.14,46.14,0,0,1,2.48-5.89l9.91,2.09-8.31-5.07A52.42,52.42,0,0,1,604.17,0Z" transform="translate(0 0)" fill="#37474f"/>
    <path d="M587.67,71.22l2.11-5.52L585.36,70h0c-.86-.47-1.71-1-2.56-1.47l2.3-3.82-3.66,3q-2.06-1.29-4.05-2.75l3.53-4.59-5.77,2.85a45.39,45.39,0,0,1-6.64-6.58l7.15-5.9-9,3.4a30.21,30.21,0,0,1-3.45-6.77l7.06-4.67-7.9,1.94a25.76,25.76,0,0,1-.7-4l10.59-4.7-10.64-.64a34.34,34.34,0,0,1,.91-5.41l7.63-.46-6.9-2.09A52.44,52.44,0,0,1,568.64,16S579.37,58.22,606,78.22A95.64,95.64,0,0,1,587.67,71.22Z" transform="translate(0 0)" fill="#455a64"/>
    <path d="M592.08,83.14l-1.27-2.63.46,2.74c-.77.1-1.52.16-2.25.19l-.88-3.5-1,3.52a24.8,24.8,0,0,1-3.1-.28l.49-5.79-2.8,5.31a22.72,22.72,0,0,1-6-2.56l.93-4.43-2.33,3.51a25.1,25.1,0,0,1-2.16-1.69L575,72.79l-4.38,3.31a32.36,32.36,0,0,1-3.21-3.81L570,69.43l-3.21,1.91c-.34-.51-.66-1-1-1.49l1.72-1.58-2.28.63a37.9,37.9,0,0,1-3.3-7.39C576.17,75.51,606,78.14,606,78.14A43,43,0,0,1,592.08,83.14Z" transform="translate(0 0)" fill="#37474f"/>
    <path d="M631.3,99.33l-.76-2.44-.31,2.54a20.19,20.19,0,0,1-2.91,0l.24-4.21-1.68,4.06a19.28,19.28,0,0,1-4.28-1.12l.64-4.14-2.65,3.2A22.35,22.35,0,0,1,617,95.61l1.73-3.16L616,94.83a22.48,22.48,0,0,1-1.85-1.67l2.4-3.79-4.25,1.76c-.57-.68-1.12-1.41-1.67-2.19l2-1.74L610,88a49.47,49.47,0,0,1-4.87-10s18.5,15.89,34.22,18.89A23,23,0,0,1,631.3,99.33Z" transform="translate(0 0)" fill="#455a64"/>
    <path d="M598.08,95l-2.74-2.71L597,96.12a16.88,16.88,0,0,1-2.61,2L592,96l1.25,2.77a13.54,13.54,0,0,1-1.39.65l-2.56-3.84.73,4.43a16.8,16.8,0,0,1-4.63.52L584,97.26l-.16,3.1q-1.08-.12-2.07-.33l-.5-3.14-.68,2.85a23.53,23.53,0,0,1-6.28-2.67c16.75-2.26,31.16-17.25,31.16-17.25C603.59,87,601,91.81,598.08,95Z" transform="translate(0 0)" fill="#455a64"/>
    <path d="M613.13,90.05a6.27,6.27,0,1,1-4.84-7.43,6.27,6.27,0,0,1,4.84,7.43Z" transform="translate(0 0)" fill="#ffc727"/>
    <path d="M613.13,90.05a6.27,6.27,0,1,1-4.84-7.43,6.27,6.27,0,0,1,4.84,7.43Z" transform="translate(0 0)" opacity="0.4" style="isolation: isolate"/>
    <path d="M609,83.48a6.28,6.28,0,1,1-4.86-7.43h0A6.28,6.28,0,0,1,609,83.48Z" transform="translate(0 0)" fill="#ffc727"/>
    <path d="M609,83.48a6.28,6.28,0,1,1-4.86-7.43h0A6.28,6.28,0,0,1,609,83.48Z" transform="translate(0 0)" opacity="0.3" style="isolation: isolate"/>
    <path d="M615.36,83.67a6.28,6.28,0,1,1-4.86-7.43h0A6.28,6.28,0,0,1,615.36,83.67Z" transform="translate(0 0)" fill="#ffc727"/>
    <path d="M615.36,83.67a6.28,6.28,0,1,1-4.86-7.43h0A6.28,6.28,0,0,1,615.36,83.67Z" transform="translate(0 0)" opacity="0.2" style="isolation: isolate"/>
    <path d="M547.58,124.85a201.77,201.77,0,0,0,13.81,69.46c8.24,20.71,60.9,42.21,75.34,58.52h-24S556.62,212.77,552,194.77c-10.23-40.14-6.24-70.49-6.24-70.49Z" transform="translate(0 0)" fill="#ffc727"/>
    <path d="M547.58,124.85a201.77,201.77,0,0,0,13.81,69.46c8.24,20.71,60.9,42.21,75.34,58.52h-24S556.62,212.77,552,194.77c-10.23-40.14-6.24-70.49-6.24-70.49Z" transform="translate(0 0)" opacity="0.3" style="isolation: isolate"/>
    <path d="M596.14,240.33c.18.15.37.29.55.42h2.85c2,0,4-.09,6-.18-2-.09-4-.14-6-.18Z" transform="translate(0 0)" fill="#ffc727"/>
    <path d="M600.54,233.42c1,.05,2,.07,3,.12l3,.05c1.29,0,2.59,0,3.88,0l-.72-.44h-3.16l-3,.06C602.54,233.34,601.54,233.37,600.54,233.42Z" transform="translate(0 0)" fill="#ffc727"/>
    <path d="M607.29,235c1,0,2,.07,3,.11l2.51.06-.52-.33-2,0C609.28,234.88,608.29,234.91,607.29,235Z" transform="translate(0 0)" fill="#ffc727"/>
    <path d="M564.83,212.91l.24.25c1.2,0,2.39-.07,3.58-.12C567.38,213,566.1,213,564.83,212.91Z" transform="translate(0 0)" fill="#ffc727"/>
    <path d="M561,208.76l.33.38h.9c2,0,4-.08,6-.18-2-.08-4-.13-6-.17Z" transform="translate(0 0)" fill="#ffc727"/>
    <path d="M550.83,190l.06.25c1.21,0,2.43-.06,3.64-.12C553.29,190,552.07,190,550.83,190Z" transform="translate(0 0)" fill="#ffc727"/>
    <path d="M548.31,171.57c1,.05,2,.08,3,.12l2.75.06-.09-.34-2.66.05C550.31,171.5,549.31,171.52,548.31,171.57Z" transform="translate(0 0)" fill="#ffc727"/>
    <path d="M545.54,154.85V155l1.79-.08Z" transform="translate(0 0)" fill="#ffc727"/>
    <path d="M550.59,169.32c1,.05,1.93.08,2.89.11l-.06-.22C552.48,169.22,551.54,169.27,550.59,169.32Z" transform="translate(0 0)" fill="#ffc727"/>
    <path d="M565.21,97l-6.13,0,6,2.27a24,24,0,0,1-2.08,7.85L556.56,106l5.22,3.48a26.41,26.41,0,0,1-1.63,2.43l-3.83-.85,2.62,2.35a32,32,0,0,1-4.06,4L551.36,115l2.47,3.21a51.31,51.31,0,0,1-9.36,5.67L558,76.33a39.68,39.68,0,0,1,4.91,9.14l-2.55.59,3,.73c.35,1,.68,2.14.95,3.29l-6.17.88,6.71,1.92A27.85,27.85,0,0,1,565.21,97Z" transform="translate(0 0)" fill="#455a64"/>
    <path d="M579.21,116.11,576.36,114l2,3.32a18.57,18.57,0,0,1-3.24,3.56l-3.76-4.21,1.66,5.76a19.83,19.83,0,0,1-2.49,1.33L568,120.72l.78,3.78a24.91,24.91,0,0,1-4.75,1.14l-2.43-5.85-.15,6.12c-.83,0-1.7.08-2.61.07l-1-4-1.25,3.91a60.37,60.37,0,0,1-12-2.12l37.47-16.32A21,21,0,0,1,579.21,116.11Z" transform="translate(0 0)" fill="#37474f"/>
    <path d="M544.65,123.85a70.32,70.32,0,0,1-11.81-9.39l3.63-3.6-5,2.18c-1.15-1.24-2.19-2.49-3.13-3.73l3.63-4-5.1,1.91c-.73-1.1-1.39-2.2-2-3.29l6.87-4.62-8.66.8A34.26,34.26,0,0,1,521,92.35h0l9.28-4.68-9.62.8V86.4L526,85.27l-5.27-.79a40.21,40.21,0,0,1,.75-5l8-.29-7.35-2.3a41.25,41.25,0,0,1,6.06-12.67Z" transform="translate(0 0)" fill="#37474f"/>
    <path d="M529.28,122l.56-4.64-2.56,4.15h0c-.74-.19-1.49-.4-2.24-.63l1-3.38-2.23,3c-1.22-.39-2.43-.83-3.63-1.33L522,115l-3.86,3.27a35.71,35.71,0,0,1-6.35-3.78l4.35-5.9-6.25,4.34a24.15,24.15,0,0,1-3.94-4.5l4.52-4.93-5.69,3a21.93,21.93,0,0,1-1.3-2.93l7.22-5.64-8.28,1.55a27.16,27.16,0,0,1-.34-4.32l5.76-1.82L502.15,93a41.1,41.1,0,0,1,1.94-9.76s16.33,30.34,40.56,40.58A75.1,75.1,0,0,1,529.28,122Z" transform="translate(0 0)" fill="#455a64"/>
    <path d="M535,130.3l-1.48-1.78.88,2c-.57.22-1.13.41-1.69.58l-1.34-2.52-.07,2.88a19.83,19.83,0,0,1-2.43.39l-.73-4.54L527,131.92a18.19,18.19,0,0,1-5.13-.8l-.13-3.57-1.1,3.14a20.91,20.91,0,0,1-2-.88l1.27-4.19-2.66,3.4a25.63,25.63,0,0,1-3.2-2.3l1.4-2.69-2.1,2.09-1-1,1-1.54-1.63.92a29.76,29.76,0,0,1-3.95-5c13.62,8,37,4.29,37,4.29A34.34,34.34,0,0,1,535,130.3Z" transform="translate(0 0)" fill="#37474f"/>
    <path d="M568.15,135.22l-1-1.73.25,2a15.61,15.61,0,0,1-2.24.56l-.62-3.28-.51,3.44a15.75,15.75,0,0,1-3.5,0l-.3-3.31-1.41,3a15.79,15.79,0,0,1-2.3-.74l.72-2.75-1.64,2.35a18,18,0,0,1-1.74-.92l1.11-3.38L552,132.63c-.56-.41-1.13-.86-1.7-1.36l1.22-1.73-1.88,1.13a39.67,39.67,0,0,1-5.66-6.74s17.24,8.63,29.87,7.92A18.17,18.17,0,0,1,568.15,135.22Z" transform="translate(0 0)" fill="#455a64"/>
    <path d="M541.84,138.22l-2.63-1.54,2,2.64a13.62,13.62,0,0,1-1.62,2l-2.19-1.23,1.49,1.89a7.62,7.62,0,0,1-.94.76l-2.7-2.45,1.41,3.26a12.79,12.79,0,0,1-3.45,1.28l-1.7-2.19.48,2.41c-.57.07-1.12.12-1.65.14l-1-2.31v2.31a19,19,0,0,1-5.34-.84c12.42-4.95,20.6-19.22,20.6-19.22C544.53,131,543.45,135.22,541.84,138.22Z" transform="translate(0 0)" fill="#455a64"/>
    <path d="M552.43,131.56a5,5,0,1,1-5.21-4.78h.08A5,5,0,0,1,552.43,131.56Z" transform="translate(0 0)" fill="#ffc727"/>
    <path d="M552.43,131.56a5,5,0,1,1-5.21-4.78h.08A5,5,0,0,1,552.43,131.56Z" transform="translate(0 0)" opacity="0.4" style="isolation: isolate"/>
    <path d="M548,127.32a5,5,0,1,1-5.21-4.78h.08A5,5,0,0,1,548,127.32Z" transform="translate(0 0)" fill="#ffc727"/>
    <path d="M548,127.32a5,5,0,1,1-5.21-4.78h.08A5,5,0,0,1,548,127.32Z" transform="translate(0 0)" opacity="0.3" style="isolation: isolate"/>
    <path d="M552.92,126.22a5,5,0,1,1-5.22-4.77h.08A5,5,0,0,1,552.92,126.22Z" transform="translate(0 0)" fill="#ffc727"/>
    <path d="M552.92,126.22a5,5,0,1,1-5.22-4.77h.08A5,5,0,0,1,552.92,126.22Z" transform="translate(0 0)" opacity="0.2" style="isolation: isolate"/>
    <path d="M92.37,124.85a202,202,0,0,1-13.82,69.46C70.32,215,17.66,236.52,3.21,252.83h24s56.11-40.06,60.7-58.06c10.3-40.14,6.3-70.49,6.3-70.49Z" transform="translate(0 0)" fill="#ffc727"/>
    <path d="M92.37,124.85a202,202,0,0,1-13.82,69.46C70.32,215,17.66,236.52,3.21,252.83h24s56.11-40.06,60.7-58.06c10.3-40.14,6.3-70.49,6.3-70.49Z" transform="translate(0 0)" opacity="0.3" style="isolation: isolate"/>
    <path d="M43.8,240.33c-.18.15-.37.29-.55.42H40.4c-2,0-4-.09-6-.18,2-.09,4-.14,6-.18Z" transform="translate(0 0)" fill="#ffc727"/>
    <path d="M39.4,233.42c-1,.05-2,.07-3,.12l-3,.05c-1.29,0-2.58,0-3.87,0l.68-.42h3.16l3,.06C37.4,233.34,38.41,233.37,39.4,233.42Z" transform="translate(0 0)" fill="#ffc727"/>
    <path d="M32.66,235c-1,0-2,.07-3,.11l-2.52.06.52-.33,2,0C30.66,234.88,31.65,234.91,32.66,235Z" transform="translate(0 0)" fill="#ffc727"/>
    <path d="M75.11,212.91a1.88,1.88,0,0,1-.24.25c-1.2,0-2.38-.07-3.58-.12C72.56,213,73.84,213,75.11,212.91Z" transform="translate(0 0)" fill="#ffc727"/>
    <path d="M79,208.76l-.33.38h-.9c-2,0-4-.08-6-.18,2-.08,4-.13,6-.17Z" transform="translate(0 0)" fill="#ffc727"/>
    <path d="M89.11,190l-.06.25c-1.21,0-2.43-.06-3.64-.12C86.65,190,87.87,190,89.11,190Z" transform="translate(0 0)" fill="#ffc727"/>
    <path d="M91.63,171.57c-1,.05-2,.08-3,.12l-2.75.06.09-.34,2.66.05C89.63,171.5,90.63,171.52,91.63,171.57Z" transform="translate(0 0)" fill="#ffc727"/>
    <path d="M94.4,154.85V155l-1.79-.08Z" transform="translate(0 0)" fill="#ffc727"/>
    <path d="M89.35,169.32c-1,.05-1.93.08-2.88.11a.81.81,0,0,1,0-.22C87.46,169.22,88.41,169.27,89.35,169.32Z" transform="translate(0 0)" fill="#ffc727"/>
    <path d="M74.75,97l6.14,0-6,2.27A24,24,0,0,0,77,107.12L83.4,106l-5.22,3.48a26.41,26.41,0,0,0,1.63,2.43l3.83-.85L81,113.39a32,32,0,0,0,4.06,4L88.6,115l-2.5,3.2a51.31,51.31,0,0,0,9.36,5.67L81.93,76.32A39.68,39.68,0,0,0,77,85.46l2.55.59-3,.73c-.35,1-.68,2.14-1,3.29l6.17.88L75,92.87A29.34,29.34,0,0,0,74.75,97Z" transform="translate(0 0)" fill="#455a64"/>
    <path d="M60.7,116.11,63.55,114l-2,3.32a18.57,18.57,0,0,0,3.24,3.56l3.76-4.21-1.66,5.76a21.22,21.22,0,0,0,2.49,1.33l2.56-3.07-.79,3.78a24.91,24.91,0,0,0,4.75,1.14l2.44-5.85.14,6.12c.84,0,1.7.08,2.61.07l1-4,1.25,3.91a60.37,60.37,0,0,0,12-2.12L57.82,107.46A21,21,0,0,0,60.7,116.11Z" transform="translate(0 0)" fill="#37474f"/>
    <path d="M95.29,123.85a69.81,69.81,0,0,0,11.81-9.39l-3.63-3.6,5,2.18a46.44,46.44,0,0,0,3.13-3.73l-3.63-4,5.11,1.88c.73-1.1,1.39-2.2,2-3.29l-6.87-4.58,8.66.8A34.26,34.26,0,0,0,119,92.36h0l-9.28-4.68,9.62.8V86.41l-5.37-1.13,5.27-.79a38.42,38.42,0,0,0-.75-5l-8-.29,7.34-2.3a41.12,41.12,0,0,0-6.08-12.7Z" transform="translate(0 0)" fill="#37474f"/>
    <path d="M110.66,122l-.56-4.64,2.57,4.15h0c.74-.19,1.49-.4,2.24-.63l-1-3.38,2.23,3c1.22-.39,2.43-.83,3.64-1.33L118,115l3.88,3.29a35.71,35.71,0,0,0,6.35-3.78l-4.34-5.9,6.24,4.34a23.79,23.79,0,0,0,3.94-4.5l-4.52-4.93,5.69,3a22.52,22.52,0,0,0,1.3-2.93l-7.28-5.64,8.28,1.55a27.16,27.16,0,0,0,.34-4.32l-5.76-1.82,5.69-.28a41.1,41.1,0,0,0-1.94-9.76s-16.33,30.34-40.56,40.58A76,76,0,0,0,110.66,122Z" transform="translate(0 0)" fill="#455a64"/>
    <path d="M105,130.3l1.48-1.78-.88,2c.57.22,1.13.41,1.69.58l1.34-2.52.07,2.88a19.83,19.83,0,0,0,2.43.39l.74-4.54,1.13,4.61a18.19,18.19,0,0,0,5.13-.8l.13-3.57,1.11,3.14c.68-.26,1.34-.56,2-.88l-1.28-4.19,2.72,3.38a25.63,25.63,0,0,0,3.2-2.3l-1.4-2.69,2.1,2.09,1-1-1-1.54,1.63.92a29.76,29.76,0,0,0,4-5c-13.62,8-37,4.29-37,4.29A34.11,34.11,0,0,0,105,130.3Z" transform="translate(0 0)" fill="#37474f"/>
    <path d="M71.79,135.22l1.06-1.73-.26,2a15.61,15.61,0,0,0,2.24.56l.62-3.28.51,3.44a15.75,15.75,0,0,0,3.5,0l.3-3.31,1.41,3a15.79,15.79,0,0,0,2.3-.74l-.72-2.75,1.64,2.35a16,16,0,0,0,1.74-.92L85,130.46l2.92,2.17c.56-.41,1.13-.86,1.7-1.36l-1.22-1.73,1.89,1.13A39.61,39.61,0,0,0,96,123.93s-17.24,8.63-29.87,7.92A18.17,18.17,0,0,0,71.79,135.22Z" transform="translate(0 0)" fill="#455a64"/>
    <path d="M98.11,138.22l2.62-1.55-2,2.64a14.76,14.76,0,0,0,1.62,2l2.19-1.23L101.05,142a9.76,9.76,0,0,0,.94.76l2.7-2.45-1.41,3.26a12.79,12.79,0,0,0,3.45,1.28l1.7-2.19L108,145c.56.07,1.11.12,1.65.14l1-2.31v2.31a18.9,18.9,0,0,0,5.33-.84c-12.42-5-20.6-19.22-20.6-19.22C95.41,131,96.49,135.22,98.11,138.22Z" transform="translate(0 0)" fill="#455a64"/>
    <path d="M87.51,131.56a5,5,0,1,0,5.21-4.78h-.07A5,5,0,0,0,87.51,131.56Z" transform="translate(0 0)" fill="#ffc727"/>
    <path d="M87.51,131.56a5,5,0,1,0,5.21-4.78h-.07A5,5,0,0,0,87.51,131.56Z" transform="translate(0 0)" opacity="0.4" style="isolation: isolate"/>
    <path d="M92,127.32a5,5,0,1,0,5.21-4.78h-.07A5,5,0,0,0,92,127.32Z" transform="translate(0 0)" fill="#ffc727"/>
    <path d="M92,127.32a5,5,0,1,0,5.21-4.78h-.07A5,5,0,0,0,92,127.32Z" transform="translate(0 0)" opacity="0.3" style="isolation: isolate"/>
    <path d="M87,126.22a5,5,0,1,0,5.22-4.77h-.09A5,5,0,0,0,87,126.22Z" transform="translate(0 0)" fill="#ffc727"/>
    <path d="M87,126.22a5,5,0,1,0,5.22-4.77h-.09A5,5,0,0,0,87,126.22Z" transform="translate(0 0)" opacity="0.2" style="isolation: isolate"/>
  </g>
  <g id="Birds">
    <path d="M225.32,127a21.93,21.93,0,0,1,3-1.27,12.78,12.78,0,0,1,3.22-.75,2.81,2.81,0,0,1,1,.12,1.65,1.65,0,0,1,.5.28l.35.29a14.48,14.48,0,0,1,1.17,1.18,28.35,28.35,0,0,1,2,2.55l-.8-.28a23,23,0,0,1,3.3-.7,12.32,12.32,0,0,1,1.72-.12,4.65,4.65,0,0,1,.91.07,2.15,2.15,0,0,1,.5.12,3.12,3.12,0,0,1,.49.23A5.72,5.72,0,0,1,244,130a15,15,0,0,1,1,1.37,21.63,21.63,0,0,1,1.54,2.94c-.71-.84-1.39-1.7-2.12-2.5a15.07,15.07,0,0,0-1.11-1.15,5.13,5.13,0,0,0-1.16-.91,3.14,3.14,0,0,0-1.29-.12,13.26,13.26,0,0,0-1.54.21c-1,.18-2.09.44-3.1.72l-.51.13-.29-.41c-.59-.85-1.24-1.69-1.88-2.5-.31-.4-.65-.78-1-1.15l-.26-.24-.12-.1h0a1.56,1.56,0,0,0-.57-.11,15.11,15.11,0,0,0-3,.3C227.41,126.59,226.37,126.81,225.32,127Z" transform="translate(0 0)" fill="#263238"/>
    <path d="M237,158.46a34,34,0,0,1,4-2.73,18.65,18.65,0,0,1,4.52-2,4,4,0,0,1,1.51-.13,2.09,2.09,0,0,1,.49.13l.33.15c.2.1.4.2.59.32a19.39,19.39,0,0,1,2.08,1.4,47.75,47.75,0,0,1,3.71,3.14l-1.26-.18a37.29,37.29,0,0,1,4.64-2,21.85,21.85,0,0,1,2.49-.68,8.87,8.87,0,0,1,1.36-.17c.25,0,.51,0,.76,0a5.38,5.38,0,0,1,.79.2,8.44,8.44,0,0,1,2.28,1.46,24.94,24.94,0,0,1,1.83,1.73,31.28,31.28,0,0,1,3.11,3.88c-1.28-1-2.54-2.09-3.84-3.06a22.79,22.79,0,0,0-2-1.37,8,8,0,0,0-2-1,4.35,4.35,0,0,0-1.93.19,17.33,17.33,0,0,0-2.2.76,42.6,42.6,0,0,0-4.35,2l-.71.35-.55-.53c-1.07-1.1-2.26-2.1-3.4-3.1a18.84,18.84,0,0,0-1.8-1.4c-.14-.09-.3-.2-.44-.27l-.2-.11h-.08a2.48,2.48,0,0,0-.86,0,23.38,23.38,0,0,0-4.39,1.33C239.92,157.22,238.45,157.86,237,158.46Z" transform="translate(0 0)" fill="#263238"/>
    <path d="M483.21,85.69A24,24,0,0,1,485.92,84,12.58,12.58,0,0,1,489,82.69a2.8,2.8,0,0,1,1,0,2,2,0,0,1,.33.09l.22.11c.14.07.26.15.38.22a16.37,16.37,0,0,1,1.36,1c.85.69,1.62,1.42,2.41,2.18l-.84-.15A27.18,27.18,0,0,1,497,84.92a13.53,13.53,0,0,1,1.67-.4,7,7,0,0,1,.92-.08h.5a4.61,4.61,0,0,1,.53.15,6.27,6.27,0,0,1,1.49,1,16.7,16.7,0,0,1,1.18,1.2,19.79,19.79,0,0,1,2,2.65c-.83-.72-1.65-1.45-2.49-2.12-.42-.34-.85-.67-1.29-1a5.2,5.2,0,0,0-1.29-.7,2.82,2.82,0,0,0-1.29.09,12.63,12.63,0,0,0-1.48.45c-1,.36-2,.78-3,1.22l-.48.22-.36-.37c-.72-.74-1.49-1.46-2.26-2.15a12.23,12.23,0,0,0-1.16-1l-.29-.19-.14-.08a0,0,0,0,0-.05,0,1.88,1.88,0,0,0-.58,0,16.37,16.37,0,0,0-3,.79Z" transform="translate(0 0)" fill="#263238"/>
    <path d="M456.84,81.42a34.2,34.2,0,0,1,3-3.79,18.17,18.17,0,0,1,3.72-3.28,3.86,3.86,0,0,1,1.39-.57,1.46,1.46,0,0,1,.51,0h.36a3.36,3.36,0,0,1,.66.13q1.22.3,2.4.72c1.54.56,3,1.22,4.48,1.91l-1.26.2a37.26,37.26,0,0,1,3.84-3.27,21.7,21.7,0,0,1,2.18-1.39,9.4,9.4,0,0,1,1.25-.57,4.73,4.73,0,0,1,.74-.19,5.47,5.47,0,0,1,.81,0,8.8,8.8,0,0,1,2.61.71c.79.34,1.53.72,2.26,1.12a29.44,29.44,0,0,1,4.12,2.78c-1.53-.61-3-1.25-4.57-1.78a22.58,22.58,0,0,0-2.29-.73,8,8,0,0,0-2.17-.36,4.56,4.56,0,0,0-1.79.75,18,18,0,0,0-1.87,1.38c-1.23,1-2.44,2.08-3.58,3.16l-.57.55-.68-.34c-1.39-.7-2.84-1.34-4.26-2-.7-.3-1.41-.57-2.13-.8l-.5-.13h-.31a2.42,2.42,0,0,0-.83.25,23.26,23.26,0,0,0-3.8,2.57C459.3,79.38,458.09,80.41,456.84,81.42Z" transform="translate(0 0)" fill="#263238"/>
    <path d="M199.33,150.73a37.7,37.7,0,0,1,3-3.78,18.8,18.8,0,0,1,3.72-3.29,4.4,4.4,0,0,1,1.4-.57,2.17,2.17,0,0,1,.51,0h.36c.22,0,.44.08.66.13a19.91,19.91,0,0,1,2.39.72c1.54.56,3,1.21,4.48,1.9l-1.26.21a35.26,35.26,0,0,1,3.84-3.27,20.62,20.62,0,0,1,2.18-1.39,9.52,9.52,0,0,1,1.26-.57,4.64,4.64,0,0,1,.73-.2h.81a8.8,8.8,0,0,1,2.61.71,23.73,23.73,0,0,1,2.26,1.12,31,31,0,0,1,4.13,2.77c-1.54-.61-3-1.24-4.58-1.78-.76-.27-1.52-.53-2.29-.73a7.94,7.94,0,0,0-2.17-.35,4.36,4.36,0,0,0-1.79.75,19.16,19.16,0,0,0-1.87,1.38c-1.23,1-2.44,2.07-3.57,3.16l-.58.55-.68-.34c-1.39-.7-2.83-1.35-4.26-2a22.51,22.51,0,0,0-2.12-.8,2.93,2.93,0,0,1-.51-.13l-.23-.05h-.08a2.68,2.68,0,0,0-.83.26,23.61,23.61,0,0,0-3.79,2.57C201.8,148.69,200.58,149.72,199.33,150.73Z" transform="translate(0 0)" fill="#263238"/>
  </g>
  <g id="Character_2" data-name="Character 2">
    <path d="M553.93,298.49s-47.81,22.1-87.85,14.14c-19.27-3.84-25-26.23-20-34s23.57-18.29,33.47-24.94a13.39,13.39,0,0,0,4.49-6.15h36.3s7.91,9,3.9,16a2.46,2.46,0,0,1-.22.34l12.76-2.66Z" transform="translate(0 0)" fill="#f7a9a0"/>
    <path d="M524.26,263.6c-2,2.2-31.8,1.95-31.8,1.95S490,256.27,480.57,253l2.46-5.37h37.33S530.31,256.91,524.26,263.6Z" transform="translate(0 0)" fill="#263238"/>
    <path d="M598.73,312.36c.13,2.3-6.45,2.84-9.17,1.3a63,63,0,0,1-6.23-5.31c-6.48-6-15.43-14.65-15.43-14.65l-35.5,11.82-5.79-42.12s18.51-4.54,19.42-4.88L553,256l.42-.15c10.25-3.73,18.74-6.54,19.59-5.91C575.27,251.55,598.6,310,598.73,312.36Z" transform="translate(0 0)" fill="#f7a9a0"/>
    <path d="M624.63,321.47c.13,2.3-6.46,2.84-9.17,1.3a61.72,61.72,0,0,1-6.23-5.31c-6.48-5.95-15.44-14.65-15.44-14.65l-35.5,11.82-17.72-34.78s16.08-6.45,31.36-12.22l6.92-2.57.42-.15c10.25-3.73,18.74-6.54,19.59-5.91C601.21,260.66,624.5,319.15,624.63,321.47Z" transform="translate(0 0)" fill="#f7a9a0"/>
    <path d="M490.58,247.62h57.77s7.28,18.28,3.27,25.3-44.87,16.39-44.87,16.39l57-18.56,15.13,37C520,329,495,325.47,482.05,321.35,471,317.82,460.78,297,466,289.42c7.19-10.52,31.64-28.06,31.64-28.06Z" transform="translate(0 0)" fill="#f7a9a0"/>
    <path d="M549.55,247.59H489.62l8,13.8-5.16,4.16s26.16-4.2,43.5,14.45c0,0,16.13-4.74,17.32-8.44C555.94,263.31,549.55,247.59,549.55,247.59Z" transform="translate(0 0)" fill="#263238"/>
    <path d="M518.89,252.22c0,1.1-.54,2-1.2,2s-1.19-.89-1.19-2,.54-2,1.19-2S518.89,251.1,518.89,252.22Z" transform="translate(0 0)" fill="#ffc727"/>
    <ellipse cx="515.28" cy="253.19" rx="1.19" ry="1.99" transform="translate(-28.11 438.52) rotate(-45)" fill="#ffc727"/>
    <path d="M514.29,254.4c1.1,0,2,.54,2,1.2s-.89,1.19-2,1.19-2-.54-2-1.19S513.21,254.4,514.29,254.4Z" transform="translate(0 0)" fill="#ffc727"/>
    <path d="M514.45,257.16c.77-.78,1.78-1,2.24-.56s.22,1.47-.56,2.24-1.78,1-2.25.57S513.67,257.93,514.45,257.16Z" transform="translate(0 0)" fill="#ffc727"/>
    <path d="M516.5,259c0-1.1.54-2,1.19-2s1.2.89,1.2,2-.54,2-1.2,2S516.5,260.09,516.5,259Z" transform="translate(0 0)" fill="#ffc727"/>
    <path d="M519.26,258.84c-.78-.77-1-1.78-.56-2.24s1.47-.22,2.24.56,1,1.78.56,2.25S520,259.62,519.26,258.84Z" transform="translate(0 0)" fill="#ffc727"/>
    <path d="M521.1,256.79c-1.1,0-2-.54-2-1.19s.89-1.2,2-1.2,2,.54,2,1.2S522.21,256.79,521.1,256.79Z" transform="translate(0 0)" fill="#ffc727"/>
    <path d="M520.94,254c-.77.78-1.78,1-2.24.56s-.22-1.47.56-2.24,1.78-1,2.24-.56S521.72,253.22,520.94,254Z" transform="translate(0 0)" fill="#ffc727"/>
    <circle cx="517.69" cy="255.6" r="2.04" fill="#263238"/>
    <path d="M544,261.5c0,1.1-.54,2-1.19,2s-1.2-.88-1.2-2,.54-2,1.2-2S544,260.4,544,261.5Z" transform="translate(0 0)" fill="#ffc727"/>
    <path d="M541.21,261.65c.78.78,1,1.78.57,2.25s-1.48.21-2.25-.56-1-1.78-.56-2.25S540.45,260.88,541.21,261.65Z" transform="translate(0 0)" fill="#ffc727"/>
    <path d="M539.38,263.71c1.1,0,2,.53,2,1.19s-.89,1.19-2,1.19-2-.53-2-1.19S538.29,263.71,539.38,263.71Z" transform="translate(0 0)" fill="#ffc727"/>
    <path d="M539.54,266.46c.77-.77,1.78-1,2.25-.56s.21,1.47-.57,2.25-1.78,1-2.24.56S538.76,267.22,539.54,266.46Z" transform="translate(0 0)" fill="#ffc727"/>
    <path d="M541.59,268.3c0-1.1.54-2,1.2-2s1.19.88,1.19,2-.54,2-1.19,2S541.59,269.4,541.59,268.3Z" transform="translate(0 0)" fill="#ffc727"/>
    <path d="M544.35,268.15c-.78-.78-1-1.78-.56-2.25s1.47-.21,2.24.56,1,1.78.57,2.25S545.12,268.92,544.35,268.15Z" transform="translate(0 0)" fill="#ffc727"/>
    <path d="M546.21,266.09c-1.1,0-2-.53-2-1.19s.89-1.19,2-1.19,2,.53,2,1.19S547.29,266.09,546.21,266.09Z" transform="translate(0 0)" fill="#ffc727"/>
    <ellipse cx="545.18" cy="262.5" rx="1.99" ry="1.19" transform="translate(-25.93 462.39) rotate(-45)" fill="#ffc727"/>
    <circle cx="542.78" cy="264.9" r="2.04" fill="#263238"/>
    <path d="M497.6,261.41a254.78,254.78,0,0,0-22.45,17.66c-3.11,2.72-6.38,5.44-8.73,8.89a14.56,14.56,0,0,0-2.29,5.15,13.94,13.94,0,0,0,.3,6.45A42,42,0,0,0,471.09,313c.08.11.26,0,.18-.11a38.83,38.83,0,0,1-5.63-11.77,16.68,16.68,0,0,1-.79-7.08,13.1,13.1,0,0,1,2.13-5.23c2.21-3.37,5.42-6.06,8.39-8.72,3.4-3,6.85-6,10.4-8.86,4-3.19,8-6.33,12.13-9.38A.28.28,0,0,0,497.6,261.41Z" transform="translate(0 0)" fill="#263238"/>
    <path d="M499.21,292.63c2.52-1.1,5.13-2,7.7-3l2.8-1a47.9,47.9,0,0,1-4.73,1,.12.12,0,0,1-.06-.24,28.13,28.13,0,0,1,4.79-1.17c.73-.15,1.46-.27,2.2-.38l2.75-1c5.21-1.85,10.45-3.63,15.68-5.45q15.72-5.46,31.5-10.75l8.81-2.93c3-1,6-1.84,8.94-2.83a.07.07,0,0,1,0,.14c-2.64,1-5.24,2-7.89,3L564,270.8c-5.21,1.88-10.43,3.7-15.65,5.54q-15.66,5.52-31.35,10.9c-2.89,1-5.79,2-8.7,2.93s-6,2-9,2.75C499.21,293,499.07,292.7,499.21,292.63Z" transform="translate(0 0)" fill="#263238"/>
    <path d="M596.21,305.22c-.91-.69-1.78-1.42-2.63-2.17l.26.06c-1.94.76-3.91,1.44-5.9,2.07s-4,1.19-6.06,1.63c1.91-.87,3.86-1.62,5.83-2.31s4-1.33,6-1.88l.16-.05.1.11A23.08,23.08,0,0,1,596.21,305.22Z" transform="translate(0 0)" fill="#263238"/>
    <path d="M496.12,191.28c-23.23,15.87-47,26.81-54.92,23.45-10.67-4.52-28.29-25.45-36.43-37.17-2.4-3.44,24.76-21.52,27.32-17.84,3.1,4.44,18.75,27.68,19.18,28,.92.72,32-7.8,39.61-9.36C503.54,175.77,506.43,184.22,496.12,191.28Z" transform="translate(0 0)" fill="#f7a9a0"/>
    <path d="M396.21,182.56c5.78,4.85,21.5,10.15,25.79,10s14.21-26.64,11.86-30.34-23.07-18.57-30.77-18.74S390.21,177.53,396.21,182.56Z" transform="translate(0 0)" fill="#f7a9a0"/>
    <rect x="406.75" y="132.84" width="5.09" height="41.3" transform="translate(-27.75 162.14) rotate(-21.69)" fill="#455a64"/>
    <polygon points="405.72 103.72 387.93 99.66 377.79 114.83 388.42 141.56 416.35 130.45 405.72 103.72" fill="#455a64"/>
    <path d="M432.49,183.08l-5.7-14.32-19.71,7.83,5.7,14.33Zm-5.65-1.94-11.29,4.49-2.82-7.1L424,174Z" transform="translate(0 0)" fill="#455a64"/>
    <polygon points="386.1 112.21 394.51 133.37 392.69 134.1 386.1 112.21" fill="#37474f"/>
    <polygon points="397.81 107.55 406.23 128.71 408.05 127.99 397.81 107.55" fill="#37474f"/>
    <polygon points="390.4 105.89 401.32 130.67 399.49 131.39 390.4 105.89" fill="#37474f"/>
    <path d="M414.88,146.08c1.3,3.79-3.91,3.15-3.91,3.15s7.27,2.73,7.1,7.15c-.19,4.26-6.44,3.26-6.89,3.19.38.15,7,2.83,6.36,7.26-.66,4.6-6.77,2.51-7.17,2.38.32.25,4.47,3.67,3.22,6.92-2.14,5.59-13-2.86-17.77-2.06,0,0,.43,8.25.4,8.49,0,0-10.49-7.82-11.21-14.33a4.17,4.17,0,0,1,2.74-4.46s-3.66-2.15-3.27-5.64c.21-1.8,3.26-3.07,3.26-3.07s-2.86-1.84-2.32-4.93c.43-2.47,3.43-3.36,3.43-3.36s-1.93-3-.68-5.43C390.69,136.54,412.11,138,414.88,146.08Z" transform="translate(0 0)" fill="#f7a9a0"/>
    <path d="M389.3,146.56a.06.06,0,1,1,0-.12,37.3,37.3,0,0,1,22,2.79c.21.11.14.5-.12.43A76,76,0,0,0,389.3,146.56Z" transform="translate(0 0)" fill="#263238"/>
    <path d="M387.64,155c-.08,0-.09-.14,0-.15,7.38-1.25,16.65-.06,23.78,4.53.25.16.31.54,0,.38C406.46,157.08,394.58,154.88,387.64,155Z" transform="translate(0 0)" fill="#263238"/>
    <path d="M410.76,169.7c-7-4.14-14.65-5.61-22.7-6-.11,0-.09-.15,0-.17,4-.89,9.1-.1,13,.84a21.39,21.39,0,0,1,9.81,5.09C411,169.56,410.91,169.79,410.76,169.7Z" transform="translate(0 0)" fill="#263238"/>
    <path d="M411,149.22a23.62,23.62,0,0,1,3.83,2.31,8.2,8.2,0,0,1,2.8,3.24,2.63,2.63,0,0,1,0,1.93,3.94,3.94,0,0,1-1.13,1.63,4.75,4.75,0,0,1-3.81.79l-3.24-.55,2.85,1.65A13.3,13.3,0,0,1,415.7,163a4.78,4.78,0,0,1,1.39,3.67,2.75,2.75,0,0,1-2.35,2.53,8.28,8.28,0,0,1-4.12-.55L407,167.26l3,2.45a12.51,12.51,0,0,1,2.21,2.33,5.11,5.11,0,0,1,1.11,2.79A2.45,2.45,0,0,1,412,177.1a5.47,5.47,0,0,1-3.05.22,44.29,44.29,0,0,1-6.48-1.84c-1.08-.36-2.17-.72-3.27-1a8,8,0,0,0-3.39-.4,8.91,8.91,0,0,1,3.3.7c1.06.38,2.11.82,3.16,1.26a36.58,36.58,0,0,0,6.52,2.22,6.46,6.46,0,0,0,3.67-.14,3.55,3.55,0,0,0,2-3.28,6.32,6.32,0,0,0-1.29-3.49,13.84,13.84,0,0,0-2.43-2.64l-.65,1.11a9.52,9.52,0,0,0,4.86.69,3.94,3.94,0,0,0,2.38-1.27,4.51,4.51,0,0,0,1-2.44,6,6,0,0,0-1.77-4.65,14.57,14.57,0,0,0-3.76-3l-.39,1.09a5.7,5.7,0,0,0,4.66-1.23,4.9,4.9,0,0,0,1.3-2.09,3.54,3.54,0,0,0-.17-2.46,8.47,8.47,0,0,0-3.24-3.29A20.48,20.48,0,0,0,411,149.22Z" transform="translate(0 0)" fill="#263238"/>
    <path d="M433.05,161.16s-16.75-30.72-25.16-19.59c-2.49,3.31-8.8,19.88-5.5,21.21,4.27,1.71,8.19-4.71,10-9.13,0,0,3.56,10.42,11.55,10.1A21.73,21.73,0,0,0,433.05,161.16Z" transform="translate(0 0)" fill="#f7a9a0"/>
    <path d="M408.65,140.69a17,17,0,0,0-2.83,4,36.66,36.66,0,0,0-2.05,4.46,55.38,55.38,0,0,0-2.83,9.41,9.07,9.07,0,0,0-.16,2.6,3.38,3.38,0,0,0,.45,1.42,2.43,2.43,0,0,0,.52.63,2.77,2.77,0,0,0,.7.42,4.14,4.14,0,0,0,2.86,0,7.85,7.85,0,0,0,2.3-1.36,14.75,14.75,0,0,0,3.16-4,33.33,33.33,0,0,0,2.16-4.46l-1.07-.05a20.32,20.32,0,0,0,1.67,3.37,18.8,18.8,0,0,0,2.25,3,12.56,12.56,0,0,0,2.93,2.3,9.33,9.33,0,0,0,3.48,1.18,10.72,10.72,0,0,1-3.27-1.52,12.49,12.49,0,0,1-2.6-2.43,18.87,18.87,0,0,1-2-3,19.38,19.38,0,0,1-1.39-3.25l-.43-1.39-.63,1.34a35.4,35.4,0,0,1-2.21,4.23,14.41,14.41,0,0,1-2.93,3.58c-1.12.93-2.61,1.6-3.77,1.11-1-.33-1-2.11-.76-3.61a46.35,46.35,0,0,1,1-4.68c.4-1.56.83-3.12,1.33-4.65C405.63,146.39,406.69,143.29,408.65,140.69Z" transform="translate(0 0)" fill="#263238"/>
    <path d="M441.06,214.66l.14.07c7.92,3.35,31.7-7.58,54.91-23.45,7.56-5.16,8-11.09,2.76-12.86Z" transform="translate(0 0)" fill="#263238"/>
    <path d="M549.55,247.59c0-.08-66.52,0-66.52,0-.17-.26.16-51.45,5.78-66.17,1.9-5,9.66-9.15,17.86-4C528.9,191.41,549.51,247.67,549.55,247.59Z" transform="translate(0 0)" fill="#f7a9a0"/>
    <path d="M549.56,247.59c0-.08-66.52,0-66.52,0a480,480,0,0,1,2.31-48.26c.84-7.47,2-14,3.46-17.91,1.91-5,9.66-9.15,17.87-4s15.91,15.7,22.65,27.2C541.13,224.79,549.51,247.59,549.56,247.59Z" transform="translate(0 0)" fill="#f7a9a0"/>
    <path d="M549.56,247.59c0-.08-66.52,0-66.52,0a480,480,0,0,1,2.31-48.26l19.4-.55c-.26.12,15.81,16.37,24.58,5.85C541.13,224.79,549.51,247.59,549.56,247.59Z" transform="translate(0 0)" fill="#263238"/>
    <path d="M504.75,198.78a81,81,0,0,1-2.9-10.26c-1-4.89-.51-13.46-.51-13.46h-1.8s-2.74,10.21,3.52,23.71Z" transform="translate(0 0)" fill="#263238"/>
    <path d="M487.62,199.22s-.63-14.67,1.45-19.61c0,0-3.35,7.42-2.76,19.61Z" transform="translate(0 0)" fill="#263238"/>
    <path d="M527.81,211.54c0,1.09-.53,2-1.19,2s-1.19-.89-1.19-2,.53-2,1.19-2S527.81,210.44,527.81,211.54Z" transform="translate(0 0)" fill="#ffc727"/>
    <path d="M525.06,211.69c.77.78,1,1.78.56,2.25s-1.47.21-2.25-.56-1-1.79-.56-2.25S524.28,210.92,525.06,211.69Z" transform="translate(0 0)" fill="#ffc727"/>
    <path d="M523.21,213.75c1.1,0,2,.53,2,1.19s-.89,1.19-2,1.19-2-.53-2-1.19S522.12,213.75,523.21,213.75Z" transform="translate(0 0)" fill="#ffc727"/>
    <path d="M523.37,216.5c.78-.77,1.79-1,2.25-.56s.21,1.47-.56,2.25-1.78,1-2.25.56S522.6,217.28,523.37,216.5Z" transform="translate(0 0)" fill="#ffc727"/>
    <path d="M525.43,218.34c0-1.1.53-2,1.19-2s1.19.89,1.19,2-.53,2-1.19,2S525.43,219.44,525.43,218.34Z" transform="translate(0 0)" fill="#ffc727"/>
    <path d="M528.21,218.22c-.77-.78-1-1.78-.56-2.25s1.47-.21,2.25.56,1,1.78.56,2.25S529,219,528.21,218.22Z" transform="translate(0 0)" fill="#ffc727"/>
    <path d="M530,216.13c-1.09,0-2-.53-2-1.19s.89-1.19,2-1.19,2,.53,2,1.19S531.12,216.13,530,216.13Z" transform="translate(0 0)" fill="#ffc727"/>
    <path d="M529.87,213.38c-.78.77-1.78,1-2.25.56s-.21-1.47.56-2.25,1.79-1,2.25-.56S530.65,212.6,529.87,213.38Z" transform="translate(0 0)" fill="#ffc727"/>
    <circle cx="526.62" cy="214.94" r="2.04" fill="#263238"/>
    <path d="M500.14,238.22c0,1.1-.54,2-1.2,2s-1.19-.89-1.19-2,.54-2,1.19-2S500.14,237.16,500.14,238.22Z" transform="translate(0 0)" fill="#ffc727"/>
    <path d="M497.38,238.41c.78.77,1,1.78.56,2.24s-1.47.22-2.24-.56-1-1.78-.57-2.24S496.61,237.63,497.38,238.41Z" transform="translate(0 0)" fill="#ffc727"/>
    <path d="M495.54,240.46c1.1,0,2,.54,2,1.2s-.89,1.19-2,1.19-2-.54-2-1.19S494.44,240.46,495.54,240.46Z" transform="translate(0 0)" fill="#ffc727"/>
    <path d="M495.7,243.22c.77-.78,1.78-1,2.24-.56s.22,1.47-.56,2.24-1.78,1-2.25.57S494.92,244,495.7,243.22Z" transform="translate(0 0)" fill="#ffc727"/>
    <path d="M497.75,245.06c0-1.1.54-2,1.19-2s1.2.89,1.2,2-.54,2-1.2,2S497.75,246.15,497.75,245.06Z" transform="translate(0 0)" fill="#ffc727"/>
    <ellipse cx="501.34" cy="244.06" rx="1.19" ry="1.99" transform="translate(-25.74 425.99) rotate(-45)" fill="#ffc727"/>
    <path d="M502.35,242.85c-1.1,0-2-.54-2-1.19s.89-1.2,2-1.2,2,.54,2,1.2S503.44,242.85,502.35,242.85Z" transform="translate(0 0)" fill="#ffc727"/>
    <path d="M502.21,240.09c-.77.78-1.78,1-2.25.56s-.21-1.47.57-2.24,1.78-1,2.24-.56S503,239.32,502.21,240.09Z" transform="translate(0 0)" fill="#ffc727"/>
    <circle cx="498.94" cy="241.66" r="2.04" fill="#263238"/>
    <path d="M504.58,205.35c0,1.1-.53,2-1.19,2s-1.19-.89-1.19-2,.53-2,1.19-2S504.58,204.22,504.58,205.35Z" transform="translate(0 0)" fill="#ffc727"/>
    <path d="M501.83,205.51c.77.77,1,1.78.56,2.25s-1.47.21-2.25-.57-1-1.78-.56-2.24S501.05,204.73,501.83,205.51Z" transform="translate(0 0)" fill="#ffc727"/>
    <path d="M500,207.56c1.1,0,2,.54,2,1.2s-.88,1.19-2,1.19-2-.54-2-1.19S498.89,207.56,500,207.56Z" transform="translate(0 0)" fill="#ffc727"/>
    <path d="M500.14,210.32c.78-.78,1.78-1,2.25-.56s.21,1.47-.56,2.24-1.78,1-2.25.57S499.37,211.09,500.14,210.32Z" transform="translate(0 0)" fill="#ffc727"/>
    <path d="M502.21,212.16c0-1.1.53-2,1.19-2s1.19.89,1.19,2-.53,2-1.19,2S502.21,213.22,502.21,212.16Z" transform="translate(0 0)" fill="#ffc727"/>
    <path d="M505,212c-.77-.77-1-1.78-.56-2.24s1.47-.22,2.25.56,1,1.78.56,2.25S505.73,212.78,505,212Z" transform="translate(0 0)" fill="#ffc727"/>
    <path d="M506.79,210c-1.1,0-2-.54-2-1.19s.88-1.2,2-1.2,2,.54,2,1.2S507.89,210,506.79,210Z" transform="translate(0 0)" fill="#ffc727"/>
    <path d="M506.64,207.22c-.78.78-1.78,1-2.25.57s-.21-1.48.56-2.25,1.78-1,2.25-.56S507.41,206.42,506.64,207.22Z" transform="translate(0 0)" fill="#ffc727"/>
    <circle cx="503.39" cy="208.76" r="2.04" fill="#263238"/>
    <ellipse cx="516.28" cy="226.69" rx="1.19" ry="1.99" fill="#ffc727"/>
    <path d="M514.72,226.84c.77.78,1,1.79.56,2.25s-1.47.22-2.25-.56-1-1.78-.56-2.25S513.94,226.07,514.72,226.84Z" transform="translate(0 0)" fill="#ffc727"/>
    <path d="M512.88,228.9c1.09,0,2,.53,2,1.19s-.89,1.19-2,1.19-2-.53-2-1.19S511.78,228.9,512.88,228.9Z" transform="translate(0 0)" fill="#ffc727"/>
    <ellipse cx="513.87" cy="232.51" rx="1.99" ry="1.19" transform="translate(-13.9 431.46) rotate(-45)" fill="#ffc727"/>
    <path d="M515.09,233.49c0-1.09.53-2,1.19-2s1.19.89,1.19,2-.53,2-1.19,2S515.09,234.59,515.09,233.49Z" transform="translate(0 0)" fill="#ffc727"/>
    <path d="M517.84,233.34c-.77-.78-1-1.78-.56-2.25s1.47-.21,2.25.56,1,1.79.56,2.25S518.62,234.12,517.84,233.34Z" transform="translate(0 0)" fill="#ffc727"/>
    <path d="M519.68,231.28c-1.1,0-2-.53-2-1.19s.89-1.19,2-1.19,2,.53,2,1.19S520.78,231.28,519.68,231.28Z" transform="translate(0 0)" fill="#ffc727"/>
    <path d="M519.53,228.53c-.78.78-1.78,1-2.25.56s-.21-1.47.56-2.25,1.78-1,2.25-.56S520.3,227.75,519.53,228.53Z" transform="translate(0 0)" fill="#ffc727"/>
    <circle cx="516.28" cy="230.1" r="2.04" fill="#263238"/>
    <path d="M492.51,220.82c0,1.09-.53,2-1.19,2s-1.19-.89-1.19-2,.53-2,1.19-2S492.51,219.72,492.51,220.82Z" transform="translate(0 0)" fill="#ffc727"/>
    <ellipse cx="488.91" cy="221.81" rx="1.19" ry="1.99" transform="translate(-13.64 410.68) rotate(-45)" fill="#ffc727"/>
    <path d="M487.92,223c1.1,0,2,.53,2,1.19s-.89,1.19-2,1.19-2-.53-2-1.19S486.82,223,487.92,223Z" transform="translate(0 0)" fill="#ffc727"/>
    <path d="M488.07,225.78c.78-.77,1.79-1,2.25-.56s.22,1.47-.56,2.25-1.78,1-2.25.56S487.3,226.56,488.07,225.78Z" transform="translate(0 0)" fill="#ffc727"/>
    <path d="M490.13,227.62c0-1.1.53-2,1.19-2s1.19.89,1.19,2-.53,2-1.19,2S490.13,228.72,490.13,227.62Z" transform="translate(0 0)" fill="#ffc727"/>
    <path d="M492.88,227.47c-.77-.78-1-1.78-.56-2.25s1.47-.21,2.25.56,1,1.78.56,2.25S493.66,228.22,492.88,227.47Z" transform="translate(0 0)" fill="#ffc727"/>
    <path d="M494.72,225.41c-1.09,0-2-.53-2-1.19s.89-1.19,2-1.19,2,.53,2,1.19S495.82,225.41,494.72,225.41Z" transform="translate(0 0)" fill="#ffc727"/>
    <path d="M494.57,222.66c-.78.77-1.78,1-2.25.56s-.21-1.47.56-2.25,1.79-1,2.25-.56S495.35,221.88,494.57,222.66Z" transform="translate(0 0)" fill="#ffc727"/>
    <circle cx="491.32" cy="224.22" r="2.04" fill="#263238"/>
    <path d="M538.59,237.06c0,1.1-.53,2-1.19,2s-1.19-.89-1.19-2,.53-2,1.19-2S538.59,236,538.59,237.06Z" transform="translate(0 0)" fill="#ffc727"/>
    <path d="M535.84,237.22c.77.77,1,1.78.56,2.24s-1.47.22-2.25-.56-1-1.78-.56-2.25S535.06,236.44,535.84,237.22Z" transform="translate(0 0)" fill="#ffc727"/>
    <path d="M534,239.27c1.09,0,2,.54,2,1.19s-.89,1.2-2,1.2-2-.54-2-1.2S532.9,239.27,534,239.27Z" transform="translate(0 0)" fill="#ffc727"/>
    <ellipse cx="534.99" cy="242.87" rx="1.99" ry="1.19" transform="translate(-15.04 449.43) rotate(-45)" fill="#ffc727"/>
    <path d="M536.21,243.87c0-1.1.53-2,1.19-2s1.19.89,1.19,2-.53,2-1.19,2S536.21,245,536.21,243.87Z" transform="translate(0 0)" fill="#ffc727"/>
    <path d="M539,243.71c-.77-.77-1-1.78-.56-2.25s1.47-.21,2.25.57,1,1.78.56,2.24S539.74,244.49,539,243.71Z" transform="translate(0 0)" fill="#ffc727"/>
    <path d="M540.8,241.66c-1.1,0-2-.54-2-1.2s.89-1.19,2-1.19,2,.54,2,1.19S541.9,241.66,540.8,241.66Z" transform="translate(0 0)" fill="#ffc727"/>
    <path d="M540.65,238.9c-.78.78-1.79,1-2.25.56s-.21-1.47.56-2.24,1.78-1,2.25-.57S541.42,238.13,540.65,238.9Z" transform="translate(0 0)" fill="#ffc727"/>
    <circle cx="537.39" cy="240.47" r="2.04" fill="#263238"/>
    <path d="M499.33,176.11c0,1.34-4.09,11-10,12.09-1.91.36-4.31-10-4.31-10l-.35-.72-4.92-10.11,12.19-12.51S499.33,175.54,499.33,176.11Z" transform="translate(0 0)" fill="#f7a9a0"/>
    <path d="M479.81,167.41l4.91,10.1.35.73s.44,1.86,1.09,4c7.61-3,9.82-9.83,10.43-14.29-2.08-6-4.6-13-4.6-13Z" transform="translate(0 0)" fill="#263238"/>
    <path d="M490.21,129.55c1.36,1.93,13.87.8,17.49-8.57s-5.56-17.73-14.25-10.91C487.94,114.38,487.3,125.46,490.21,129.55Z" transform="translate(0 0)" fill="#263238"/>
    <path d="M505.48,109.79a13.92,13.92,0,0,0-8.79-2.53,8.37,8.37,0,0,0-7.08,4.43,17,17,0,0,0-1.76,8.82,27,27,0,0,0,.64,4.64,12.51,12.51,0,0,0,1.7,4.4,11.17,11.17,0,0,1-2.53-4.15,21.21,21.21,0,0,1-1.18-4.77,16.26,16.26,0,0,1,1.59-9.79,9.63,9.63,0,0,1,3.6-3.73,9.8,9.8,0,0,1,5-1.22A12.23,12.23,0,0,1,505.48,109.79Z" transform="translate(0 0)" fill="#263238"/>
    <path d="M459.41,147.69c-5.87,23.35,7.45,29.51,12.49,30.77,4.57,1.15,20.29,4.47,28.54-18.16s-.74-32.73-11.06-35.9S465.29,124.34,459.41,147.69Z" transform="translate(0 0)" fill="#f7a9a0"/>
    <path d="M480.21,161c-.17-.3-1.83-.34-3.28-.65s-2.67-.88-2.88-.69c-.43.38-.9,2.09-.45,2.49,1.85,1.65,5.68,1.6,6.06,1.15A2.84,2.84,0,0,0,480.21,161Z" transform="translate(0 0)" fill="#fff"/>
    <path d="M465,158c0-.29-1.12-.38-2-.71s-1.54-.91-1.73-.74c-.39.34-1.18,1.93-1,2.32.78,1.6,3.35,1.68,3.73,1.27A4.2,4.2,0,0,0,465,158Z" transform="translate(0 0)" fill="#fff"/>
    <path d="M468.36,154.37c.49.2-.58,5.69-1.14,5.92s-1,0-1-.64S467.81,154.15,468.36,154.37Z" transform="translate(0 0)" fill="#fff"/>
    <path d="M462.75,147.85a17.65,17.65,0,0,0,1.78-.07,2.88,2.88,0,0,0,1.79-.41.9.9,0,0,0,.19-1.1,2.26,2.26,0,0,0-2.11-.9,3.33,3.33,0,0,0-2.26.8,1,1,0,0,0,0,1.41A1,1,0,0,0,462.75,147.85Z" transform="translate(0 0)" fill="#263238"/>
    <path d="M479.81,151.65a16.69,16.69,0,0,1-1.65-.66,2.82,2.82,0,0,1-1.55-1,.9.9,0,0,1,.19-1.1,2.27,2.27,0,0,1,2.29-.14,3.34,3.34,0,0,1,1.86,1.52,1,1,0,0,1-.51,1.32A1,1,0,0,1,479.81,151.65Z" transform="translate(0 0)" fill="#263238"/>
    <path d="M476.88,154.46c2.8.34,1.92,5.92-.67,5.61S474.53,154.22,476.88,154.46Z" transform="translate(0 0)" fill="#263238"/>
    <path d="M477.93,154.93c.44.39.83,1,1.4,1.18s1.28-.33,1.81-.82c.06,0,.1,0,.09.08-.16,1.07-.74,2.1-1.91,2.08s-1.67-1.09-1.77-2.2C477.53,155,477.75,154.77,477.93,154.93Z" transform="translate(0 0)" fill="#263238"/>
    <path d="M464.51,151.9c-2.75-.63-3.8,4.92-1.25,5.5S466.82,152.42,464.51,151.9Z" transform="translate(0 0)" fill="#263238"/>
    <path d="M463.29,152c-.5.21-1,.66-1.56.6s-1-.76-1.23-1.41c0-.07-.08,0-.1,0-.23,1.06-.09,2.23.89,2.63s1.75-.42,2.21-1.43C463.58,152.28,463.49,152,463.29,152Z" transform="translate(0 0)" fill="#263238"/>
    <path d="M473.55,169.55c-.46.36-.94.87-1.58.85a4.56,4.56,0,0,1-1.82-.64.06.06,0,0,0-.08,0,0,0,0,0,0,0,.05,2.36,2.36,0,0,0,2.1,1.19,1.87,1.87,0,0,0,1.54-1.39C473.74,169.55,473.62,169.49,473.55,169.55Z" transform="translate(0 0)" fill="#263238"/>
    <path d="M467.4,162.09s-.8,2.52-1,3.73c0,.11.26.22.67.31h.05a5.84,5.84,0,0,0,6-1.2.14.14,0,0,0,0-.18.13.13,0,0,0-.13,0,8.84,8.84,0,0,1-5.53.61c0-.35,1.51-4.31,1.31-4.31-.83,0-2.31.12-2.86.16.48-1.64,2.06-6.25,2.93-9.25.05-.18-.23-.3-.3-.13a81.23,81.23,0,0,0-4,10.21C464.35,162.3,466.88,162.22,467.4,162.09Z" transform="translate(0 0)" fill="#263238"/>
    <path d="M467.33,165.22a7.21,7.21,0,0,0,2.13,2.93,3.18,3.18,0,0,0,1.85.66c1.47,0,1.86-1.2,1.92-2.34a7.33,7.33,0,0,0-.13-1.81A9.37,9.37,0,0,1,467.33,165.22Z" transform="translate(0 0)" fill="#263238"/>
    <path d="M469.46,168.15a3.18,3.18,0,0,0,1.85.66c1.47,0,1.86-1.2,1.92-2.34A3.34,3.34,0,0,0,469.46,168.15Z" transform="translate(0 0)" fill="#ff9cbd"/>
    <path d="M498.21,165.22A10.15,10.15,0,0,1,494.4,156a25.53,25.53,0,0,1-8.66-10.56c.06.54.47,4.38.74,6.34-14.46-5.71-16.73-18.43-16.73-18.43-5.88,4.1-7.5,7.12-8.53,8.59,0,0,1.8-9.52,7.83-15,7.37-6.7,15-3.74,15-3.74a21,21,0,0,1,19.44,10.46C511.07,146.45,498.21,165.22,498.21,165.22Z" transform="translate(0 0)" fill="#263238"/>
    <path d="M475.58,147.07a27.31,27.31,0,0,0,7.13,4.36h0a23.46,23.46,0,0,1-9.66-8.94,23.19,23.19,0,0,1-2.31-5.28,16.48,16.48,0,0,1-.81-6.27.12.12,0,0,0-.23-.07.09.09,0,0,0,0,.07,19.21,19.21,0,0,0,0,6.33A16.91,16.91,0,0,0,472,143a19,19,0,0,0,3.59,4.11Z" transform="translate(0 0)" fill="#263238"/>
    <path d="M493.86,154.45s-5.69-4.33-5.35-1.92a4.84,4.84,0,0,0,1.8,3.35s-.05,2.82.93,3,3.35-2.42,3.18-3.07A7.34,7.34,0,0,0,493.86,154.45Z" transform="translate(0 0)" fill="#ffc727"/>
    <path d="M493.86,154.45a8,8,0,0,1,.56,1.4c.08.31-.43,1.09-1.09,1.78a9.83,9.83,0,0,1-1.14-1.57,4.13,4.13,0,0,1,.21-2.64C493.21,154,493.86,154.45,493.86,154.45Z" transform="translate(0 0)" fill="#050400" opacity="0.1" style="isolation: isolate"/>
    <path d="M495,154s2.52-8.07,4.26-6.06a4,4,0,0,1,1,4s2.53,2,1.63,3-5.85,1.22-6.23.62A6.31,6.31,0,0,1,495,154Z" transform="translate(0 0)" fill="#ffc727"/>
    <path d="M497.09,154.22a3.4,3.4,0,0,1,.22,1.61c-.9,0-1.62-.12-1.75-.33a5.74,5.74,0,0,1-.6-1.5s.16-.53.44-1.28A3.84,3.84,0,0,1,497.09,154.22Z" transform="translate(0 0)" fill="#050400" opacity="0.1" style="isolation: isolate"/>
    <path d="M496.36,154.44a1.92,1.92,0,1,1-2.5-1.06,1.92,1.92,0,0,1,2.5,1.06Z" transform="translate(0 0)" fill="#ffc727"/>
    <path d="M493.32,161.82s6.39-6.58,9.46-4.19S500.21,170.15,496,171a4.08,4.08,0,0,1-5-2.92s0,0,0-.08Z" transform="translate(0 0)" fill="#f7a9a0"/>
    <path d="M501.09,160.5c.07,0,.06.09,0,.1-3,.68-4.83,3-6.28,5.52,1-.9,2.2-1.28,3.42-.08a.09.09,0,0,1,0,.13.11.11,0,0,1-.08,0,2.51,2.51,0,0,0-2.86.42,11.38,11.38,0,0,0-1.66,2c-.17.22-.6,0-.46-.25v-.06C493.69,164.74,497.21,160.22,501.09,160.5Z" transform="translate(0 0)" fill="#263238"/>
    <path d="M504.8,142.39c-.78,2.23,7.4,11.76,17.13,9.27s11.22-14.81.62-17.93C515.85,131.76,506.45,137.67,504.8,142.39Z" transform="translate(0 0)" fill="#263238"/>
    <path d="M529.76,143.38a13.88,13.88,0,0,0-3-8.63,8.35,8.35,0,0,0-7.72-3.19,16.84,16.84,0,0,0-8.21,3.69,25.19,25.19,0,0,0-3.4,3.21,12.76,12.76,0,0,0-2.6,3.93,11.22,11.22,0,0,1,1.91-4.46,20.35,20.35,0,0,1,3.2-3.73,16.39,16.39,0,0,1,8.9-4.4,9.31,9.31,0,0,1,9,4.13A12.18,12.18,0,0,1,529.76,143.38Z" transform="translate(0 0)" fill="#263238"/>
    <path d="M513.21,190.64c1.06,21.33-7.43,67.09-15.93,70.9-15.67,7-53.72-18.78-61.52-23.41-3.33-2,19-29.18,22.56-27.14,3.13,1.78,20.67,17.94,23.35,16.39,1.1-.64,8.14-18.53,18.75-36.37C508.55,177.35,512.89,184.33,513.21,190.64Z" transform="translate(0 0)" fill="#f7a9a0"/>
    <path d="M464.5,217.81s-1.63-1.4-9-10.14c-5.1-6-21.4-17.5-42.44-10.34-8.07,2.75-9.66,9.6-.78,8.24,6.26-1,10.51-2.17,12.64-1.91,0,0-6.58,7.12-5.42,12.61a103.62,103.62,0,0,0,4,14.15,22.72,22.72,0,0,0,2.71-.52,11.84,11.84,0,0,0,9.52,8.23Z" transform="translate(0 0)" fill="#f7a9a0"/>
    <path d="M449.7,202.68c-4.1-.63-12.81-1.81-20.27-.3-8.28,1.67-23.8,7.13-22.5,13.24,1,4.48,7.06,2.91,7.06,2.91s-5.93,3.61-4.19,7.46c1.59,3.52,6.24,2,6.24,2s-3.22,2.81-1,5.9c2.63,3.72,9-2.78,14.87-1.31C431.21,232.92,449.7,202.68,449.7,202.68Z" transform="translate(0 0)" fill="#f7a9a0"/>
    <path d="M432.66,210.84c-4,0-12.9,2.44-18.61,7.52-.13.12-.12.28,0,.2a83,83,0,0,1,18.61-7.64S432.71,210.84,432.66,210.84Z" transform="translate(0 0)" fill="#263238"/>
    <path d="M434.11,219.22c-3.4.39-12.52,3.27-18.13,8.62-.13.12-.1.28,0,.2a88.92,88.92,0,0,1,18.11-8.74C434.21,219.32,434.21,219.22,434.11,219.22Z" transform="translate(0 0)" fill="#263238"/>
    <path d="M419.21,195.72a32.18,32.18,0,0,1,11.05-1,36.11,36.11,0,0,1,10.9,2.46,18.42,18.42,0,0,1,2.56,1.16,20.89,20.89,0,0,1,2.47,1.32l2.37,1.49c.77.53,1.49,1.13,2.22,1.71a42,42,0,0,1,4.08,3.81,8,8,0,0,1,.93,1l.87,1.09,1.72,2.18h0l1,.76-1.08-.65h0c-1.28-1.33-2.47-2.74-3.8-4a43,43,0,0,0-4.19-3.55,40,40,0,0,0-20.08-8c-.91-.13-1.83-.14-2.74-.22s-1.84,0-2.75,0A35.35,35.35,0,0,0,419.21,195.72Z" transform="translate(0 0)" fill="#263238"/>
    <path d="M472.56,258.27c1.55.48,3.09,1,4.64,1.41s3.09.89,4.65,1.29,3.12.74,4.69,1.06,3.17.53,4.78.71a24.77,24.77,0,0,1-4.87-.14,37.43,37.43,0,0,1-4.79-.91,46.49,46.49,0,0,1-4.65-1.47A35.92,35.92,0,0,1,472.56,258.27Z" transform="translate(0 0)" fill="#263238"/>
    <path d="M512.82,205.22a14,14,0,0,1,.39-6.44,12.58,12.58,0,0,1,.18,3.24A12.43,12.43,0,0,1,512.82,205.22Z" transform="translate(0 0)" fill="#263238"/>
    <path d="M514.36,199.6a1.57,1.57,0,0,1,0,.86,4.33,4.33,0,0,1-.3.78,4,4,0,0,1-1,1.3,6.43,6.43,0,0,1,.58-1.53c.12-.23.24-.47.38-.69S514.21,199.86,514.36,199.6Z" transform="translate(0 0)" fill="#263238"/>
  </g>
  <g id="Character_1" data-name="Character 1">
    <path d="M151.72,204.4c20.8,24.76,46.91,81.22,50.21,89.77,2.23,5.81-28.19,18.3-29.11,14.13-1.19-5.34-25.28-64.21-29.31-95.81C141.75,198.66,147.52,199.4,151.72,204.4Z" transform="translate(0 0)" fill="#ad6359"/>
    <path d="M171.74,304.35c.8,2.86,3.36,15,5.68,16.64s15.09,2.34,21.53,2.84,7.83-1.2,7.9-3.42-13.4-3.69-13.4-3.69,17.62,6.56,22.09,7.76,14.71,4.64,16.51,1c.81-1.64-1.92-3.57-1.92-3.57s4.29,1.62,5.15-.51c1-2.42-2.39-4-2.39-4s2.7.76,2.92-1.25c.49-4.51-16.48-8.05-16.48-8.05s12.63,7.4,13.33,3.75c1-5.06-25.48-12.74-28.11-15.18a19.08,19.08,0,0,1-4.05-5.88Z" transform="translate(0 0)" fill="#ad6359"/>
    <path d="M206.66,321.53a2,2,0,0,0-.47-1.77,5.52,5.52,0,0,0-1.49-1.14,21.29,21.29,0,0,0-3.6-1.48c-2.48-.84-5-1.5-7.58-2.37a31.49,31.49,0,0,1,7.87,1.51,14.77,14.77,0,0,1,3.68,1.74,5.25,5.25,0,0,1,1.48,1.49A2.05,2.05,0,0,1,206.66,321.53Z" transform="translate(0 0)" fill="#263238"/>
    <path d="M230.13,321.9c-1.82-.6-3.6-1.26-5.39-1.93s-3.55-1.37-5.32-2.06l-5.3-2.12q-2.64-1.07-5.32-2.1a44.5,44.5,0,0,1,5.56,1.44c1.82.57,3.61,1.25,5.39,1.94s3.53,1.44,5.26,2.26S228.46,321,230.13,321.9Z" transform="translate(0 0)" fill="#263238"/>
    <path d="M213.5,309.53a36.37,36.37,0,0,1,5.15,1.12,52.54,52.54,0,0,1,5,1.7,47,47,0,0,1,4.78,2.22,36.24,36.24,0,0,1,4.48,2.77c-1.61-.7-3.18-1.46-4.78-2.14s-3.2-1.37-4.81-2l-4.87-1.88C216.82,310.7,215.21,310.12,213.5,309.53Z" transform="translate(0 0)" fill="#263238"/>
    <path d="M216.49,305.43A35,35,0,0,1,232,312.1c-2.6-1.16-5.11-2.36-7.69-3.45S219.11,306.51,216.49,305.43Z" transform="translate(0 0)" fill="#263238"/>
    <path d="M189.06,323.09c-5.23-.48-10.27-1.11-11.65-2.1-1.89-1.36-4-9.73-5.08-14.29v-.05c-3.68-11.06-25-64.57-28.81-94.16-1.05-8.29.59-11.34,3-11.39,3.64,10.29,22.67,64.21,34.63,98.8.86,2.47,1.68,4.83,2.45,7.1C185.86,313.6,187.76,319.16,189.06,323.09Z" transform="translate(0 0)" fill="#263238"/>
    <path d="M86.21,320.44s47.81,22.1,87.84,14.14c19.28-3.84,25-26.23,20-33.94-5.14-7.89-23.57-18.3-33.47-24.95a13.53,13.53,0,0,1-4.5-6.15H119.8s-7.91,9-3.9,16a2.56,2.56,0,0,0,.22.35l-12.74-2.67Z" transform="translate(0 0)" fill="#ad6359"/>
    <path d="M184.87,291.82a38.17,38.17,0,0,1,7,5.41,17.87,17.87,0,0,1,2.85,3.52c.18.34.36.7.53,1.05a6.23,6.23,0,0,1,.37,1.13,21.27,21.27,0,0,1,.4,2.23,23.91,23.91,0,0,1-.65,8.95,27.47,27.47,0,0,1-1.52,4.21,26.78,26.78,0,0,1-2.3,3.81,30.09,30.09,0,0,0,3-8.21,26.9,26.9,0,0,0,.39-8.63,19.15,19.15,0,0,0-.36-2.12c-.08-.34-.2-.65-.3-1l-.45-.94a19.71,19.71,0,0,0-2.57-3.45,41.21,41.21,0,0,0-3.11-3.09C187.14,293.7,186,292.76,184.87,291.82Z" transform="translate(0 0)" fill="#263238"/>
    <path d="M115.9,285.55c2,2.2,31.7,19.92,31.7,19.92s21-14.12,39.69-12.45c0,0-25.87-17.42-27.31-18.47-2-1.44-2.85-5-2.85-5H119.8S109.84,278.86,115.9,285.55Z" transform="translate(0 0)" fill="#37474f"/>
    <path d="M178.32,288a55.13,55.13,0,0,0-27.45,7.85,60.09,60.09,0,0,0-6.78,4.85c-.09.07,0,.22.1.15a63.07,63.07,0,0,1,12.46-7,68.55,68.55,0,0,1,13.56-4.3,65.8,65.8,0,0,1,8.15-1.16.2.2,0,0,0,.13-.25A.19.19,0,0,0,178.32,288Z" transform="translate(0 0)" fill="#263238"/>
    <path d="M41.43,334.31c-.13,2.3,6.45,2.84,9.17,1.3a63,63,0,0,0,6.23-5.31c6.48-5.95,15.43-14.65,15.43-14.65l35.5,11.82,5.79-42.12S95,280.82,94.13,280.48l-6.92-2.57-.42-.16c-10.25-3.73-18.74-6.54-19.6-5.91C64.89,273.5,41.56,332,41.43,334.31Z" transform="translate(0 0)" fill="#ad6359"/>
    <path d="M15.53,343.42c-.13,2.3,6.45,2.84,9.17,1.3a63,63,0,0,0,6.23-5.31c6.48-6,15.44-14.65,15.44-14.65l35.49,11.82L99.59,301.8s-16.08-6.45-31.38-12.21c-2.35-.89-4.67-1.75-6.92-2.58l-.42-.15c-10.25-3.73-18.74-6.54-19.59-5.91C39,282.61,15.66,341.1,15.53,343.42Z" transform="translate(0 0)" fill="#ad6359"/>
    <path d="M149.58,269.57H91.81s-7.28,18.28-3.27,25.3,44.87,16.35,44.87,16.35l-57-18.55-15.13,37c58.9,21.26,83.86,17.73,96.83,13.6,11.08-3.53,21.26-24.32,16.07-31.92-7.19-10.53-31.64-28.07-31.64-28.07Z" transform="translate(0 0)" fill="#ad6359"/>
    <path d="M90.61,269.54h59.93l-8,13.8c10.69,8.29,20.27,16.36,20.27,16.36s-15.3-4.48-37.86,9.52c0,0-10.64-3.82-20.75-7.22-8.22-2.77-16.14-4.73-17.33-8.44C84.21,285.22,90.61,269.54,90.61,269.54Z" transform="translate(0 0)" fill="#37474f"/>
    <path d="M114.21,273.32c0-.16-.27-.27-.35-.09-.3.76-.41,1.6-.66,2.37s-.49,1.7-.78,2.54a9.87,9.87,0,0,1-2.73,4.24,10.61,10.61,0,0,1-4.61,2.17,28.88,28.88,0,0,1-5.39.81.09.09,0,0,0,0,.18,14,14,0,0,0,2.81.22,18.78,18.78,0,0,0,3-.13,10.34,10.34,0,0,0,5.08-2,9.42,9.42,0,0,0,2.92-4.55,14,14,0,0,0,.61-2.79A14.74,14.74,0,0,0,114.21,273.32Z" transform="translate(0 0)" fill="#263238"/>
    <path d="M149.46,271.38c-.53.82-1.12,1.62-1.68,2.42s-1.09,1.72-1.61,2.59c-.92,1.53-1.74,3.15-2.76,4.61a4.24,4.24,0,0,1-1.59,1.5c-.62.3-1.6.38-1.94-.37a2.89,2.89,0,0,1,.27-2c.36-.9.73-1.79,1.1-2.68.85-2,1.61-4.1,2.36-6.17,0-.1-.11-.15-.16-.07a55.22,55.22,0,0,0-3.36,6.13c-.68,1.47-2,3.56-1.34,5.26s2.9,1.54,4.16.58c1.47-1.11,2.29-3,3.13-4.54.61-1.18,1.25-2.35,1.84-3.54s1.08-2.44,1.66-3.63C149.56,271.37,149.49,271.33,149.46,271.38Z" transform="translate(0 0)" fill="#263238"/>
    <path d="M152.29,294.46a40.94,40.94,0,0,0-16.53,2.76,84.16,84.16,0,0,0-15.1,7.47c-.1.07,0,.2.1.16,5-2.37,10-4.93,15.25-6.83a56.8,56.8,0,0,1,16.28-3.49C152.35,294.54,152.35,294.46,152.29,294.46Z" transform="translate(0 0)" fill="#263238"/>
    <path d="M142.56,283.36A254.78,254.78,0,0,1,165,301c3.11,2.73,6.38,5.44,8.73,8.89a14.61,14.61,0,0,1,2.29,5.16,14,14,0,0,1-.3,6.44A41.77,41.77,0,0,1,169.06,335c-.07.11-.25,0-.17-.11a38.35,38.35,0,0,0,5.62-11.77,16.51,16.51,0,0,0,.8-7.08,13.25,13.25,0,0,0-2.13-5.23c-2.21-3.37-5.42-6.06-8.39-8.72-3.4-3-6.85-6-10.4-8.85-4-3.2-8-6.34-12.14-9.38C142,283.63,142.21,283.14,142.56,283.36Z" transform="translate(0 0)" fill="#263238"/>
    <path d="M140.91,314.58c-2.52-1.1-5.13-2-7.7-3-.93-.35-1.87-.69-2.8-1,1.56.35,3.14.79,4.73,1a.12.12,0,0,0,.06-.24,30,30,0,0,0-4.75-1.18c-.73-.15-1.46-.27-2.2-.38l-2.75-1c-5.21-1.84-10.45-3.63-15.68-5.44q-15.72-5.47-31.5-10.75c-2.93-1-5.87-2-8.81-2.94s-6-1.84-9-2.82c-.08,0-.11.1,0,.13l7.89,3,7.71,2.78c5.2,1.88,10.43,3.71,15.65,5.54q15.66,5.52,31.35,10.9c2.89,1,5.79,2,8.7,2.93s5.95,2,9,2.75C141,314.93,141.09,314.65,140.91,314.58Z" transform="translate(0 0)" fill="#263238"/>
    <path d="M43.92,327.13c.73-.88,1.49-1.73,2.27-2.55l.1-.11.16,0c2,.55,4,1.19,6,1.88s3.92,1.45,5.83,2.32c-2.06-.45-4.06-1-6.06-1.64s-4-1.3-5.9-2.07l.26-.06C45.7,325.7,44.83,326.43,43.92,327.13Z" transform="translate(0 0)" fill="#263238"/>
    <rect x="214.64" y="241.34" width="5.09" height="41.3" transform="translate(-119.47 212.27) rotate(-41.94)" fill="#ffc727"/>
    <polygon points="260.19 287.29 255.93 305.04 237.83 307.38 218.61 285.99 240.97 265.9 260.19 287.29" fill="#ffc727"/>
    <path d="M185.21,242.22l10.31,11.47,15.77-14.18L201,228.05Zm20.12-2.56-9,8.12-5.12-5.68,9-8.12Z" transform="translate(0 0)" fill="#ffc727"/>
    <polygon points="243.87 301.1 228.65 284.16 227.19 285.47 243.87 301.1" opacity="0.1" style="isolation: isolate"/>
    <polygon points="253.25 292.68 238.03 275.74 239.49 274.42 253.25 292.68" opacity="0.1" style="isolation: isolate"/>
    <polygon points="251.44 300.05 234.09 279.27 232.63 280.58 251.44 300.05" opacity="0.1" style="isolation: isolate"/>
    <path d="M90.61,269.54c0-.08,66.52,0,66.52,0,.16-.25-.16-51.44-5.78-66.17-1.9-5-9.67-9.15-17.86-4C111.26,213.36,90.65,269.62,90.61,269.54Z" transform="translate(0 0)" fill="#ad6359"/>
    <path d="M137,198.66c0,1.34,4.09,11,10,12.1,1.91.35,4.31-10,4.31-10l.35-.73,4.92-10.1-12.19-12.51S137,198.09,137,198.66Z" transform="translate(0 0)" fill="#ad6359"/>
    <path d="M156.53,190l-4.91,10.1-.35.73s-.44,1.87-1.08,4c-7.62-3-9.83-9.83-10.44-14.3,2.08-6,4.6-13,4.6-13Z" transform="translate(0 0)" fill="#263238"/>
    <path d="M179.21,176.13c-.72,24.07-15.22,26.35-20.41,26.19-4.71-.15-20.74-1.25-22.5-25.27s9.65-31.28,20.45-31.52S179.89,152.06,179.21,176.13Z" transform="translate(0 0)" fill="#ad6359"/>
    <path d="M159.68,177.34c-2.91-.18-3.06,5.66-.36,5.83S162.12,177.49,159.68,177.34Z" transform="translate(0 0)" fill="#263238"/>
    <path d="M172.75,178.22c2.92.07,2.57,5.9-.14,5.84S170.31,178.14,172.75,178.22Z" transform="translate(0 0)" fill="#263238"/>
    <path d="M157.84,173.9c.65-.15,1.22-.39,1.85-.6a3.16,3.16,0,0,0,1.77-1,1,1,0,0,0-.13-1.21,2.48,2.48,0,0,0-2.49-.32,3.6,3.6,0,0,0-2.14,1.52,1.07,1.07,0,0,0,1.14,1.61Z" transform="translate(0 0)" fill="#263238"/>
    <path d="M175.21,174.48a17.31,17.31,0,0,1-1.87-.53,3.15,3.15,0,0,1-1.79-.91,1,1,0,0,1,.08-1.22,2.48,2.48,0,0,1,2.48-.4,3.59,3.59,0,0,1,2.19,1.45,1.06,1.06,0,0,1-.33,1.46A1,1,0,0,1,175.21,174.48Z" transform="translate(0 0)" fill="#263238"/>
    <path d="M158.14,192.84c.27.54.49,1.24,1.09,1.51a5,5,0,0,0,2,.21.06.06,0,0,1,0,.08l0,0a2.42,2.42,0,0,1-2.49.17,1.92,1.92,0,0,1-.82-2A.13.13,0,0,1,158.14,192.84Z" transform="translate(0 0)" fill="#263238"/>
    <path d="M167.47,187.65s.08,2.69-.06,3.94c0,.12-.32.14-.75.12h0a6,6,0,0,1-5.52-2.85c-.08-.13.09-.24.2-.15a9,9,0,0,0,5.26,2.14c.12-.33-.28-4.65-.09-4.59a27.57,27.57,0,0,1,2.77,1c0-1.75-.29-6.71-.31-9.89a.17.17,0,0,1,.34,0,83.41,83.41,0,0,1,1.13,11.15A9.93,9.93,0,0,1,167.47,187.65Z" transform="translate(0 0)" fill="#263238"/>
    <path d="M166.35,191.58a7.37,7.37,0,0,1-3.18,1.91,3.34,3.34,0,0,1-2-.11c-1.4-.55-1.27-1.87-.88-3a7.81,7.81,0,0,1,.85-1.65A9.52,9.52,0,0,0,166.35,191.58Z" transform="translate(0 0)" fill="#263238"/>
    <path d="M163.21,193.49a3.34,3.34,0,0,1-2-.11c-1.4-.55-1.27-1.87-.88-3A3.55,3.55,0,0,1,163.21,193.49Z" transform="translate(0 0)" fill="#ff9cbd"/>
    <path d="M132.27,176.83c6.77,2.57,12.87-4.58,13.25-11.71,0,0,17.65,8,23-6.5a15.13,15.13,0,0,0,10,10.23l.42,6.06c2.05,0,5.67-4.73,2.33-10.32,0,0,1.9-7.46-2.19-13.51a10.52,10.52,0,0,0-10.36-4.78,15.85,15.85,0,0,0-10.33-6.08c-7-1.18-11.68,4.15-11.68,4.15s-9.63-1-13.14,5a14,14,0,0,0-1.47,11.34s-3,1.85-3.55,7.72C128.21,172.22,130.21,176.06,132.27,176.83Z" transform="translate(0 0)" fill="#263238"/>
    <path d="M168.49,157.22a17.37,17.37,0,0,1-1.05,3.61,14.74,14.74,0,0,1-1.72,3.29,9.69,9.69,0,0,1-5.85,4c-2.37.67-4.88.13-7.29-.34-1.18-.4-2.4-.72-3.56-1.18s-2.32-1-3.5-1.46c1.09.64,2.21,1.24,3.32,1.86a23.72,23.72,0,0,0,3.55,1.43c2.46.64,5.08,1.21,7.68.55a10.13,10.13,0,0,0,6.22-4.49A15.32,15.32,0,0,0,168.49,157.22Z" transform="translate(0 0)" fill="#263238"/>
    <path d="M146.71,144.38a18,18,0,0,0-7.22-.57,10.62,10.62,0,0,0-6.58,3.23,12,12,0,0,0-1.92,3.19,10.88,10.88,0,0,0-.89,3.59,9.89,9.89,0,0,0,2,6.9,11,11,0,0,1-1.32-6.83,12.15,12.15,0,0,1,2.79-6.26,9.17,9.17,0,0,1,2.71-2.08,14.3,14.3,0,0,1,3.32-1.07A22.91,22.91,0,0,1,146.71,144.38Z" transform="translate(0 0)" fill="#263238"/>
    <path d="M168.65,146.3a18.07,18.07,0,0,1,5.72.59,10.85,10.85,0,0,1,4.84,2.72,11.1,11.1,0,0,1,2.72,4.84,19.63,19.63,0,0,1,.67,5.71,14.56,14.56,0,0,0,0-5.88,9.87,9.87,0,0,0-8.06-8.05A13.93,13.93,0,0,0,168.65,146.3Z" transform="translate(0 0)" fill="#263238"/>
    <path d="M175.39,168.58a20.38,20.38,0,0,1-4.67-4.69,12.11,12.11,0,0,1-1.47-2.89,14.58,14.58,0,0,1-.7-3.26,8.31,8.31,0,0,0,0,3.44,9,9,0,0,0,1.4,3.21,11.26,11.26,0,0,0,2.39,2.53A10.52,10.52,0,0,0,175.39,168.58Z" transform="translate(0 0)" fill="#263238"/>
    <path d="M140.75,179.41s-4.34-8.08-7.95-6.61-1,12.75,2.86,14.69a4.08,4.08,0,0,0,5.59-1.39,1.09,1.09,0,0,1,.08-.15Z" transform="translate(0 0)" fill="#ad6359"/>
    <path d="M133.65,176a.06.06,0,0,0,0,.08l0,0c2.66,1.45,3.82,4.21,4.54,7-.71-1.13-1.78-1.82-3.27-1a.09.09,0,0,0,0,.13.06.06,0,0,0,.06,0,2.49,2.49,0,0,1,2.64,1.19,12,12,0,0,1,1,2.37c.1.26.57.18.51-.12v-.06C139.6,182.12,137.42,176.82,133.65,176Z" transform="translate(0 0)" fill="#263238"/>
    <path d="M155.57,183.22c.24-.25,1.85.16,3.33.26s2.81-.11,3,.13c.3.48.29,2.25-.24,2.51-2.24,1.09-5.91,0-6.16-.54A2.82,2.82,0,0,1,155.57,183.22Z" transform="translate(0 0)" fill="#fff"/>
    <path d="M171,184.52c.11-.28,1.19-.06,2.12-.14s1.73-.45,1.87-.23a4,4,0,0,1,.33,2.49c-1.19,1.34-3.68.71-3.93.21A4.24,4.24,0,0,1,171,184.52Z" transform="translate(0 0)" fill="#fff"/>
    <path d="M168.74,180.11c-.54.06-1,5.63-.53,6s1,.31,1.11-.36S169.32,180.05,168.74,180.11Z" transform="translate(0 0)" fill="#fff"/>
    <path d="M124.34,212.65c-5.79,20.56-7.71,67.06-.28,72.67,13.72,10.34,56.56-6.35,65.2-9.12,3.68-1.19-12-32.67-16-31.48-3.45,1-24.15,12.88-26.41,10.77-.93-.87-3.81-19.88-10.18-39.63C131.84,200.74,126.05,206.57,124.34,212.65Z" transform="translate(0 0)" fill="#ad6359"/>
    <path d="M165.77,250s1.9-1,11-7.87c6.32-4.75,24.75-12.3,43.68-.62,7.25,4.47,7.27,11.51-1.08,8.2-5.89-2.33-9.77-4.45-11.9-4.67,0,0,4.83,8.4,2.48,13.5a102,102,0,0,1-7.09,12.88,19.6,19.6,0,0,1-2.53-1.11,11.8,11.8,0,0,1-11.07,5.93Z" transform="translate(0 0)" fill="#ad6359"/>
    <path d="M183.56,238.54c4.14.3,12.89,1.08,19.83,4.22,7.7,3.48,21.61,12.26,19,17.92-1.92,4.15-7.53,1.26-7.53,1.26s5,4.84,2.42,8.21c-2.33,3.07-6.53.58-6.53.58s2.52,3.46-.3,6c-3.39,3-8.11-4.7-14.2-4.59C194.86,272.14,183.56,238.54,183.56,238.54Z" transform="translate(0 0)" fill="#ad6359"/>
    <path d="M198.35,250.28c3.85.92,12,5.26,16.48,11.49.1.14,0,.29-.07.18a82.7,82.7,0,0,0-16.44-11.59S198.31,250.27,198.35,250.28Z" transform="translate(0 0)" fill="#263238"/>
    <path d="M195.07,258.16c3.23,1.14,11.47,6,15.76,12.45.09.14,0,.29-.08.18A89.43,89.43,0,0,0,195,258.22S195,258.15,195.07,258.16Z" transform="translate(0 0)" fill="#263238"/>
    <path d="M119.82,271.75a105.25,105.25,0,0,1-.9-10.93c-.15-3.65-.14-7.31,0-11s.36-7.31.78-10.94c.19-1.82.44-3.64.69-5.45s.59-3.61.92-5.4c-.27,3.64-.62,7.27-.84,10.91s-.42,7.28-.55,10.92-.19,7.28-.22,10.92S119.71,268.1,119.82,271.75Z" transform="translate(0 0)" fill="#263238"/>
    <path d="M138.92,223.1l3.9,14.94c1.35,5,2.55,10,4.18,14.81.21.6.43,1.2.68,1.76a3.14,3.14,0,0,0,.39.69h0l.41-.09a34.57,34.57,0,0,0,3.58-1.27l7.08-3c4.71-2.06,9.39-4.19,14.09-6.29h0a51.42,51.42,0,0,1,4.4-3.05c-1.45,1-2.82,2.17-4.2,3.3h0c-4.57,2.36-9.2,4.61-13.87,6.79-2.35,1.07-4.69,2.12-7.08,3.11a36.74,36.74,0,0,1-3.68,1.34,3.64,3.64,0,0,0-.53.12H148a.37.37,0,0,1-.21,0,.53.53,0,0,1-.17-.08l-.19-.16a3.52,3.52,0,0,1-.56-1c-.27-.62-.49-1.23-.7-1.85-.81-2.47-1.47-5-2.13-7.45s-1.27-5-1.84-7.5C141,233.22,139.87,228.16,138.92,223.1Z" transform="translate(0 0)" fill="#263238"/>
    <path d="M119.8,231.65v3.23a24.37,24.37,0,0,0,.27,3.19,5.81,5.81,0,0,1-.58-1.55,9,9,0,0,1-.19-1.63A10.8,10.8,0,0,1,119.8,231.65Z" transform="translate(0 0)" fill="#263238"/>
    <path d="M140.61,225.16a16.27,16.27,0,0,1,.13,5.61,15.5,15.5,0,0,1-.32-2.8A14.7,14.7,0,0,1,140.61,225.16Z" transform="translate(0 0)" fill="#263238"/>
    <path d="M170.87,282.31c1.5-.63,3-1.23,4.52-1.78s3-1.12,4.56-1.64l4.59-1.53c1.53-.5,3.1-1,4.57-1.49h.17a19.37,19.37,0,0,0,2.85,0,8.63,8.63,0,0,0,2.79-.62,7.67,7.67,0,0,1-2.73,1.07,16.2,16.2,0,0,1-2.95.28h.17a47.57,47.57,0,0,1-4.56,1.75c-1.56.54-3.06,1-4.6,1.52s-3.1.92-4.66,1.34S172.46,282,170.87,282.31Z" transform="translate(0 0)" fill="#263238"/>
  </g>
  <g id="Sand_Castle" data-name="Sand Castle">
    <path d="M350.06,322H459s-21.85-15.36-29.87-15.36-20.57,6-20.57,6-14.74-12-24.39-12S350.06,322,350.06,322Z" transform="translate(0 0)" fill="#ffc727"/>
    <path d="M350.06,322H459s-21.85-15.36-29.87-15.36-20.57,6-20.57,6-14.74-12-24.39-12S350.06,322,350.06,322Z" transform="translate(0 0)" fill="#fff" opacity="0.3" style="isolation: isolate"/>
    <path d="M207.69,343.43h97.78s-19.62-13.79-26.82-13.79-18.47,5.4-18.47,5.4-13.24-10.82-21.9-10.82S207.69,343.43,207.69,343.43Z" transform="translate(0 0)" fill="#ffc727"/>
    <path d="M207.69,343.43h97.78s-19.62-13.79-26.82-13.79-18.47,5.4-18.47,5.4-13.24-10.82-21.9-10.82S207.69,343.43,207.69,343.43Z" transform="translate(0 0)" fill="#fff" opacity="0.3" style="isolation: isolate"/>
    <path d="M353.42,157H312.77l-2,93.6h44.64Zm-12,43.54H324.81V186.36a8.28,8.28,0,0,1,8.28-8.28h0a8.28,8.28,0,0,1,8.28,8.28Z" transform="translate(0 0)" fill="#ffc727"/>
    <g opacity="0.5">
      <path d="M353.42,157H312.77l-2,93.6h44.64Zm-12,43.54H324.81V186.36a8.28,8.28,0,0,1,8.28-8.28h0a8.28,8.28,0,0,1,8.28,8.28Z" transform="translate(0 0)" fill="#fff"/>
    </g>
    <path d="M338.35,180a8.21,8.21,0,0,0-2.82-.5h0a8.28,8.28,0,0,0-8.28,8.28v12.8h-2.44V186.36a8.28,8.28,0,0,1,8.28-8.28h0A8.21,8.21,0,0,1,338.35,180Z" transform="translate(0 0)" fill="#ffc727"/>
    <polygon points="353.49 160.96 312.67 161.96 312.77 157 353.41 157 353.49 160.96" fill="#ffc727"/>
    <polygon points="355.41 250.6 310.77 250.6 311.57 213.33 354.59 212.08 355.41 250.6" fill="#ffc727"/>
    <polygon points="361.6 157 304.58 157 333.09 120.91 361.6 157" fill="#ffc727"/>
    <polygon points="361.6 157 304.58 157 333.09 120.91 361.6 157" fill="#fff" opacity="0.5" style="isolation: isolate"/>
    <polygon points="388.57 214.14 388.57 289.91 277.61 289.91 277.61 214.14 284.2 214.14 284.2 220.87 290.66 220.87 290.66 214.14 297.25 214.14 297.25 220.87 303.71 220.87 303.71 214.14 310.3 214.14 310.3 220.87 316.75 220.87 316.75 214.14 323.34 214.14 323.34 220.87 329.8 220.87 329.8 214.14 336.39 214.14 336.39 220.87 342.84 220.87 342.84 214.14 349.44 214.14 349.44 220.87 355.88 220.87 355.88 214.14 362.47 214.14 362.47 220.87 368.93 220.87 368.93 214.14 375.52 214.14 375.52 220.87 381.98 220.87 381.98 214.14 388.57 214.14" fill="#ffc727"/>
    <g opacity="0.5">
      <polygon points="388.57 214.14 388.57 289.91 277.61 289.91 277.61 214.14 284.2 214.14 284.2 220.87 290.66 220.87 290.66 214.14 297.25 214.14 297.25 220.87 303.71 220.87 303.71 214.14 310.3 214.14 310.3 220.87 316.75 220.87 316.75 214.14 323.34 214.14 323.34 220.87 329.8 220.87 329.8 214.14 336.39 214.14 336.39 220.87 342.84 220.87 342.84 214.14 349.44 214.14 349.44 220.87 355.88 220.87 355.88 214.14 362.47 214.14 362.47 220.87 368.93 220.87 368.93 214.14 375.52 214.14 375.52 220.87 381.98 220.87 381.98 214.14 388.57 214.14" fill="#fff"/>
    </g>
    <polygon points="388.57 233.32 388.57 289.91 277.61 289.91 277.61 233.32 292.3 233.32 294.57 262.43 371.61 262.43 373.88 233.32 388.57 233.32" fill="#ffc727"/>
    <polygon points="375.52 264.07 375.52 342.1 290.66 342.1 290.66 264.07 297.25 264.07 297.25 270.8 303.71 270.8 303.71 264.07 310.3 264.07 310.3 270.8 316.75 270.8 316.75 264.07 323.34 264.07 323.34 270.8 329.8 270.8 329.8 264.07 336.39 264.07 336.39 270.8 342.84 270.8 342.84 264.07 349.44 264.07 349.44 270.8 355.88 270.8 355.88 264.07 362.47 264.07 362.47 270.8 368.93 270.8 368.93 264.07 375.52 264.07" fill="#ffc727"/>
    <polygon points="375.52 264.07 375.52 342.1 290.66 342.1 290.66 264.07 297.25 264.07 297.25 270.8 303.71 270.8 303.71 264.07 310.3 264.07 310.3 270.8 316.75 270.8 316.75 264.07 323.34 264.07 323.34 270.8 329.8 270.8 329.8 264.07 336.39 264.07 336.39 270.8 342.84 270.8 342.84 264.07 349.44 264.07 349.44 270.8 355.88 270.8 355.88 264.07 362.47 264.07 362.47 270.8 368.93 270.8 368.93 264.07 375.52 264.07" fill="#fff" opacity="0.5" style="isolation: isolate"/>
    <polygon points="296.63 342.1 290.66 342.1 290.66 264.07 292.13 264.07 292.5 270.8 296.63 342.1" fill="#ffc727"/>
    <polygon points="369.55 342.1 375.52 342.1 375.52 264.07 374.06 264.07 373.69 270.8 369.55 342.1" fill="#ffc727"/>
    <path d="M352.3,321.09v21H313.89v-21a19.2,19.2,0,0,1,19.2-19.2h0a19.2,19.2,0,0,1,19.21,19.19Z" transform="translate(0 0)" fill="#ffc727"/>
    <polygon points="293.43 346.61 243.2 346.61 245.45 240.66 245.45 233.93 252.04 233.93 252.04 240.66 258.5 240.66 258.5 233.93 265.09 233.93 265.09 240.66 271.54 240.66 271.54 233.93 278.14 233.93 278.14 240.66 284.58 240.66 284.58 233.93 291.18 233.93 291.18 240.66 293.43 346.61" fill="#ffc727"/>
    <g opacity="0.5">
      <polygon points="293.43 346.61 243.2 346.61 245.45 240.66 245.45 233.93 252.04 233.93 252.04 240.66 258.5 240.66 258.5 233.93 265.09 233.93 265.09 240.66 271.54 240.66 271.54 233.93 278.14 233.93 278.14 240.66 284.58 240.66 284.58 233.93 291.18 233.93 291.18 240.66 293.43 346.61" fill="#fff"/>
    </g>
    <polygon points="422.99 346.61 372.75 346.61 375 240.66 375 233.93 381.6 233.93 381.6 240.66 388.04 240.66 388.04 233.93 394.65 233.93 394.65 240.66 401.09 240.66 401.09 233.93 407.68 233.93 407.68 240.66 414.14 240.66 414.14 233.93 420.73 233.93 420.73 240.66 422.99 346.61" fill="#ffc727"/>
    <g opacity="0.5">
      <polygon points="422.99 346.61 372.75 346.61 375 240.66 375 233.93 381.6 233.93 381.6 240.66 388.04 240.66 388.04 233.93 394.65 233.93 394.65 240.66 401.09 240.66 401.09 233.93 407.68 233.93 407.68 240.66 414.14 240.66 414.14 233.93 420.73 233.93 420.73 240.66 422.99 346.61" fill="#fff"/>
    </g>
    <path d="M320,255.07a.64.64,0,1,0,.64.64A.64.64,0,0,0,320,255.07Z" transform="translate(0 0)" fill="#ffc727"/>
    <path d="M272,336a.64.64,0,1,0,.64.64A.64.64,0,0,0,272,336Z" transform="translate(0 0)" fill="#ffc727"/>
    <path d="M295,218.35l-.1-.2a.29.29,0,0,0-.42-.08.3.3,0,0,0-.08.08,1.24,1.24,0,0,0-.1.2C293.93,219.11,295.36,219.11,295,218.35Z" transform="translate(0 0)" fill="#ffc727"/>
    <path d="M307.65,337.63a1.14,1.14,0,0,0-.1-.19.28.28,0,0,0-.38-.11.29.29,0,0,0-.11.11,1.14,1.14,0,0,0-.1.19C306.59,338.39,308,338.39,307.65,337.63Z" transform="translate(0 0)" fill="#ffc727"/>
    <path d="M325.56,259a.5.5,0,1,0,.5.5A.5.5,0,0,0,325.56,259Z" transform="translate(0 0)" fill="#ffc727"/>
    <path d="M411.21,272.89a.5.5,0,1,0,.5.5A.5.5,0,0,0,411.21,272.89Z" transform="translate(0 0)" fill="#ffc727"/>
    <path d="M298.12,311.22a.5.5,0,1,0,.5.5A.5.5,0,0,0,298.12,311.22Z" transform="translate(0 0)" fill="#ffc727"/>
    <path d="M358.1,240.39a.66.66,0,0,0-.93,0l0,0a.92.92,0,0,0-.24.92.76.76,0,0,0,.94.49.77.77,0,0,0,.49-.49A.92.92,0,0,0,358.1,240.39Z" transform="translate(0 0)" fill="#ffc727"/>
    <path d="M277.35,332.38a.69.69,0,0,0-1,0l0,0a1,1,0,0,0-.23.93.74.74,0,0,0,1.42,0A1,1,0,0,0,277.35,332.38Z" transform="translate(0 0)" fill="#ffc727"/>
    <path d="M254.06,281.81a.69.69,0,0,0-1,0l0,0a1,1,0,0,0-.23.93.74.74,0,0,0,1.42,0A1,1,0,0,0,254.06,281.81Z" transform="translate(0 0)" fill="#ffc727"/>
    <path d="M309.74,302.22a.64.64,0,1,0-.64-.64A.64.64,0,0,0,309.74,302.22Z" transform="translate(0 0)" fill="#ffc727"/>
    <path d="M319.42,198.13a.65.65,0,1,0-.56-.56A.64.64,0,0,0,319.42,198.13Z" transform="translate(0 0)" fill="#ffc727"/>
    <path d="M412.26,262.22a.64.64,0,1,0-.64-.64A.64.64,0,0,0,412.26,262.22Z" transform="translate(0 0)" fill="#ffc727"/>
    <path d="M340.76,134.64a.64.64,0,1,0-.64-.64A.64.64,0,0,0,340.76,134.64Z" transform="translate(0 0)" fill="#ffc727"/>
    <path d="M384.64,289.91a.64.64,0,1,0-.64-.64A.64.64,0,0,0,384.64,289.91Z" transform="translate(0 0)" fill="#ffc727"/>
    <path d="M418.21,267a1.14,1.14,0,0,0,.1.19.29.29,0,0,0,.4.1.32.32,0,0,0,.1-.1l.09-.19C419.29,266.22,417.86,266.22,418.21,267Z" transform="translate(0 0)" fill="#ffc727"/>
    <path d="M322.44,142.63a1.24,1.24,0,0,0,.1.2.28.28,0,0,0,.4.09.2.2,0,0,0,.09-.09,1.24,1.24,0,0,0,.1-.2C323.5,141.87,322.07,141.87,322.44,142.63Z" transform="translate(0 0)" fill="#ffc727"/>
    <path d="M318.05,192.35a1.14,1.14,0,0,0,.1.19.28.28,0,0,0,.38.11.29.29,0,0,0,.11-.11,1.14,1.14,0,0,0,.1-.19C319.11,191.59,317.68,191.59,318.05,192.35Z" transform="translate(0 0)" fill="#ffc727"/>
    <path d="M416.12,322.11a1.14,1.14,0,0,0,.1.19.29.29,0,0,0,.4.1.32.32,0,0,0,.1-.1l.1-.19C417.21,321.35,415.76,321.35,416.12,322.11Z" transform="translate(0 0)" fill="#ffc727"/>
    <path d="M304.21,298.32a.5.5,0,1,0-.5-.5A.5.5,0,0,0,304.21,298.32Z" transform="translate(0 0)" fill="#ffc727"/>
    <path d="M345,173.82a.5.5,0,1,0-.5-.5A.5.5,0,0,0,345,173.82Z" transform="translate(0 0)" fill="#ffc727"/>
    <path d="M349.92,154a.5.5,0,1,0-.5-.5A.5.5,0,0,0,349.92,154Z" transform="translate(0 0)" fill="#ffc727"/>
    <path d="M319.56,148.9a.69.69,0,0,0,1,0l0,0a.89.89,0,0,0,.23-.93.74.74,0,0,0-1.42,0A1,1,0,0,0,319.56,148.9Z" transform="translate(0 0)" fill="#ffc727"/>
    <path d="M303.27,227.36a.69.69,0,0,0,1,0l0,0a.94.94,0,0,0,.23-.92.74.74,0,0,0-1.42,0A.91.91,0,0,0,303.27,227.36Z" transform="translate(0 0)" fill="#ffc727"/>
    <path d="M380.38,332.81a.67.67,0,0,0,.95.05s0,0,.05-.05a.94.94,0,0,0,.23-.92.74.74,0,0,0-1.42,0A.91.91,0,0,0,380.38,332.81Z" transform="translate(0 0)" fill="#ffc727"/>
    <path d="M362,279.46a.67.67,0,0,0,1,.05l0-.05a.94.94,0,0,0,.23-.92.74.74,0,0,0-1.42,0A.94.94,0,0,0,362,279.46Z" transform="translate(0 0)" fill="#ffc727"/>
    <path d="M209.21,352.22h71.63s-14.38-10.1-19.65-10.1-13.53,3.95-13.53,3.95-9.7-7.9-16-7.9S209.21,352.22,209.21,352.22Z" transform="translate(0 0)" fill="#ffc727"/>
    <path d="M209.21,352.22h71.63s-14.38-10.1-19.65-10.1-13.53,3.95-13.53,3.95-9.7-7.9-16-7.9S209.21,352.22,209.21,352.22Z" transform="translate(0 0)" fill="#fff" opacity="0.5" style="isolation: isolate"/>
    <path d="M395.1,346.88h71.63s-14.37-10.1-19.64-10.1-13.54,4-13.54,4-9.7-7.9-16-7.9S395.1,346.88,395.1,346.88Z" transform="translate(0 0)" fill="#ffc727"/>
    <path d="M395.1,346.88h71.63s-14.37-10.1-19.64-10.1-13.54,4-13.54,4-9.7-7.9-16-7.9S395.1,346.88,395.1,346.88Z" transform="translate(0 0)" fill="#fff" opacity="0.5" style="isolation: isolate"/>
    <path d="M394.92,369.12H497.51s-20.59-13.48-28.14-13.48S450,360.91,450,360.91s-13.89-10.55-23-10.55S394.92,369.12,394.92,369.12Z" transform="translate(0 0)" fill="#ffc727"/>
    <path d="M394.92,369.12H497.51s-20.59-13.48-28.14-13.48S450,360.91,450,360.91s-13.89-10.55-23-10.55S394.92,369.12,394.92,369.12Z" transform="translate(0 0)" fill="#fff" opacity="0.5" style="isolation: isolate"/>
    <path d="M146.78,361.68H249.36s-20.58-13.46-28.15-13.46-19.38,5.28-19.38,5.28-13.89-10.56-23-10.56S146.78,361.68,146.78,361.68Z" transform="translate(0 0)" fill="#ffc727"/>
    <path d="M146.78,361.68H249.36s-20.58-13.46-28.15-13.46-19.38,5.28-19.38,5.28-13.89-10.56-23-10.56S146.78,361.68,146.78,361.68Z" transform="translate(0 0)" fill="#fff" opacity="0.5" style="isolation: isolate"/>
    <path d="M419.63,340.82c.28,3.89-1.08,7.57-.8,7.89s1.89.86,1.1,1.65-1.91.52-2.56,1a.49.49,0,0,0-.13.12c-.56.57-.81,2.16-1.83,2.2s-.92-2-.92-2a22.87,22.87,0,0,1-5.32-.9c-2.55-.8-6.11-2.74-5.77-4.29s2.25-1.33,2.48-2.11-1.32-2.63-.43-3.73a1.47,1.47,0,0,1,1.06-.49c1.14-.12,2.65.38,3.12.07.65-.44-.07-3.29,1.51-3.84s2.27,1.68,3.33,1.4,1.24-1.9,2.53-1.94S419.34,336.92,419.63,340.82Z" transform="translate(0 0)" fill="#fff"/>
    <path d="M413.37,349.06a.32.32,0,0,0-.05.44.31.31,0,0,0,.4.07.32.32,0,0,0,0-.44A.31.31,0,0,0,413.37,349.06Z" transform="translate(0 0)" fill="#fff"/>
    <path d="M412.46,348.4a21.69,21.69,0,0,1-5.62-3.42c-.32-.24-.73.23-.41.48a22.8,22.8,0,0,0,5.76,3.51C412.56,349.1,412.84,348.54,412.46,348.4Z" transform="translate(0 0)" fill="#ebebeb"/>
    <path d="M411,341.34a.31.31,0,0,0-.52.35l4.27,6.33a.31.31,0,0,0,.43.08.3.3,0,0,0,.09-.43Z" transform="translate(0 0)" fill="#ebebeb"/>
    <path d="M415.14,339.85a22.8,22.8,0,0,1,1,7.52c0,.4.6.36.63,0a23.24,23.24,0,0,0-1.06-7.68C415.63,339.22,415,339.46,415.14,339.85Z" transform="translate(0 0)" fill="#ebebeb"/>
    <path d="M415,338.65a.31.31,0,0,0,.35.52C415.69,339,415.32,338.42,415,338.65Z" transform="translate(0 0)" fill="#ebebeb"/>
    <path d="M257.93,324.56c-2.48,1.93-5.56,2.66-5.65,3s.27,1.66-.61,1.48-1.21-1.05-1.8-1.29h-.13c-.64-.11-1.82.43-2.3-.24s.95-1.52.95-1.52a18.36,18.36,0,0,1-1.78-4c-.6-2.07-.89-5.33.3-5.8s1.9.93,2.53.73,1.17-2.07,2.31-2a1.16,1.16,0,0,1,.8.5c.59.71.93,1.95,1.35,2.12.59.24,2.18-1.51,3.25-.7s-.12,2.27.55,2.86,1.83,0,2.44.83S260.42,322.62,257.93,324.56Z" transform="translate(0 0)" fill="#fff"/>
    <path d="M249.6,324a.25.25,0,1,0,.14.33A.25.25,0,0,0,249.6,324Z" transform="translate(0 0)" fill="#fff"/>
    <path d="M249.64,323.14a17.46,17.46,0,0,1-.22-5.3c0-.32-.48-.39-.5-.06a18,18,0,0,0,.22,5.43C249.21,323.52,249.71,323.46,249.64,323.14Z" transform="translate(0 0)" fill="#ebebeb"/>
    <path d="M253.72,319a.25.25,0,0,0-.46-.2l-2.34,5.7a.24.24,0,0,0,.17.31.24.24,0,0,0,.29-.12Z" transform="translate(0 0)" fill="#ebebeb"/>
    <path d="M256.58,321.12a18.54,18.54,0,0,1-4.6,4.05c-.28.16,0,.56.31.4a19,19,0,0,0,4.69-4.15C257.21,321.22,256.79,320.87,256.58,321.12Z" transform="translate(0 0)" fill="#ebebeb"/>
    <path d="M257.31,320.48a.24.24,0,0,0-.31.17.24.24,0,0,0,.12.29.24.24,0,0,0,.31-.17A.24.24,0,0,0,257.31,320.48Z" transform="translate(0 0)" fill="#ebebeb"/>
  </g>
  <g id="Buckets">
    <polygon points="167.69 394.14 123.59 394.14 117.9 342.39 173.38 342.39 167.69 394.14" fill="#455a64"/>
    <polygon points="173.38 342.38 172.78 347.82 118.77 350.36 117.89 342.38 173.38 342.38" fill="#37474f"/>
    <path d="M159.08,346.37a1.05,1.05,0,0,1,1.07,1,64.31,64.31,0,0,1-3.15,19.8c-3.61,10.2-10.1,15.58-18.77,15.58a15.1,15.1,0,0,1-10.9-4.46c-9.51-9.34-9.44-30.05-9.44-30.92a1.05,1.05,0,0,1,1.07-1h0a1,1,0,0,1,1.05.95v.05c0,.21-.06,20.73,8.82,29.45a13,13,0,0,0,9.39,3.85c19.23,0,19.79-29.9,19.79-33.31a1,1,0,0,1,1-1Z" transform="translate(0 0)" fill="#c7c7c7"/>
    <rect x="113.77" y="338.97" width="63.73" height="6.25" fill="#455a64"/>
    <path d="M119.12,339h53.47s-10.73-7.54-14.67-7.54-10.1,3-10.1,3-7.24-5.9-12-5.9S119.12,339,119.12,339Z" transform="translate(0 0)" fill="#ffc727"/>
    <path d="M119.12,339h53.47s-10.73-7.54-14.67-7.54-10.1,3-10.1,3-7.24-5.9-12-5.9S119.12,339,119.12,339Z" transform="translate(0 0)" fill="#fff" opacity="0.5" style="isolation: isolate"/>
    <polygon points="522.11 292.67 566.21 292.67 571.9 344.42 516.42 344.42 522.11 292.67" fill="#ffc727"/>
    <polygon points="516.41 344.43 517.02 338.99 571.02 336.45 571.91 344.43 516.41 344.43" opacity="0.1" style="isolation: isolate"/>
    <rect x="512.29" y="341.59" width="63.73" height="6.25" fill="#ffc727"/>
    <path d="M531.44,340.43c-.58,0-.83.28-.55.61a68.71,68.71,0,0,0,12.89,11.61c8.62,6,17.76,9.13,26.43,9.13,4.22,0,7.15-.88,8.71-2.62,4.91-5.47-5.34-17.61-5.78-18.12a2.29,2.29,0,0,0-1.57-.61h0c-.58,0-.82.28-.54.62.1.12,10.26,12.14,5.67,17.26-1.35,1.5-3.87,2.26-7.5,2.26C550,360.57,534.7,343,533,341A2.39,2.39,0,0,0,531.44,340.43Z" transform="translate(0 0)" fill="#c7c7c7"/>
  </g>
  <g id="Crab">
    <polygon points="242.3 378.21 242.34 382.53 244.19 381.98 243.2 378.12 242.3 378.21" fill="#ffc727"/>
    <path d="M242.36,375.05a1.86,1.86,0,1,0,2,1.62A1.86,1.86,0,0,0,242.36,375.05Z" transform="translate(0 0)" fill="#263238"/>
    <path d="M242.08,375.8a.1.1,0,0,0-.07-.13h0a1,1,0,0,0-.73,1c0,.42.19,1.17.68,1.21a.19.19,0,0,0,.2-.15c.05-.31-.22-.63-.25-1A2.21,2.21,0,0,1,242.08,375.8Z" transform="translate(0 0)" fill="#fff"/>
    <polygon points="252.32 376.2 253.81 380.25 251.89 380.39 251.44 376.43 252.32 376.2" fill="#ffc727"/>
    <path d="M251.21,373.27a1.86,1.86,0,1,1-1.24,2.14A1.86,1.86,0,0,1,251.21,373.27Z" transform="translate(0 0)" fill="#263238"/>
    <path d="M251.21,373.64a1.11,1.11,0,0,0-1,.81,1.25,1.25,0,0,0,.33,1.39c.2.16.43,0,.42-.26a2.8,2.8,0,0,1,0-1,4.21,4.21,0,0,1,.34-.75.12.12,0,0,0,0-.17Z" transform="translate(0 0)" fill="#fff"/>
    <path d="M233.21,375.51s-5,8.44-2.59,12.62,8.18,3.39,8.18,3.39l-.31,2.85s-7.62.24-9.79-5.18S232.64,375,232.64,375Z" transform="translate(0 0)" fill="#ffc727"/>
    <path d="M235.92,369.51l1.65-10.74s-7.31.22-9.25,5.62,1,10.49,4.64,11.53,9.86-.66,10.23-7.91Z" transform="translate(0 0)" fill="#ffc727"/>
    <path d="M261.35,368.83s7.3,6.54,6.27,11.25-6.79,5.7-6.79,5.7L262,388.4s7.35-2.06,7.79-7.88-8-12.34-8-12.34Z" transform="translate(0 0)" fill="#ffc727"/>
    <path d="M256.94,363.92l-4.8-9.75s7-2,10.51,2.59,2.19,10.3-1,12.39-9.6,2.33-12.14-4.47Z" transform="translate(0 0)" fill="#ffc727"/>
    <path d="M237.09,396.41c-1.75-.47-5,1.15-6.25,2.66-.62.73.2,1.66,1.08,1.28,1.16-.51,2.64-2.45,5.37-3.28C237.6,397,237.38,396.49,237.09,396.41Z" transform="translate(0 0)" fill="#ffc727"/>
    <path d="M237.81,400.39c-1.81,0-4.43,2.51-5.24,4.32a.85.85,0,0,0,.44,1.12.86.86,0,0,0,1-.2c1-.81,1.83-3.1,4.22-4.67C238.46,400.78,238.1,400.38,237.81,400.39Z" transform="translate(0 0)" fill="#ffc727"/>
    <path d="M240.46,402.79c-1.71.59-3.44,3.75-3.66,5.72a.85.85,0,0,0,.74.95.86.86,0,0,0,.88-.5c.66-1.07.79-3.51,2.57-5.74C241.21,403,240.74,402.69,240.46,402.79Z" transform="translate(0 0)" fill="#ffc727"/>
    <path d="M264.1,391.65c1.29-1.26,4.89-1.4,6.75-.7a.85.85,0,0,1,.48,1.1.86.86,0,0,1-.8.54c-1.26.12-3.5-.87-6.29-.27C263.92,392.39,263.89,391.86,264.1,391.65Z" transform="translate(0 0)" fill="#ffc727"/>
    <path d="M265.4,395.48c1.6-.85,5.08,0,6.67,1.24a.85.85,0,0,1-.78,1.48c-1.23-.24-3.1-1.82-6-2C265,396.13,265.14,395.61,265.4,395.48Z" transform="translate(0 0)" fill="#ffc727"/>
    <path d="M264.21,398.86c1.79-.31,4.83,1.61,6,3.23.56.79-.35,1.64-1.19,1.18-1.11-.61-2.4-2.69-5-3.78C263.68,399.37,264,398.91,264.21,398.86Z" transform="translate(0 0)" fill="#ffc727"/>
    <path d="M239,383.64c-3.53,4.93-3.65,17.8.73,21.36s22.35-.48,25.17-5.55-2.08-16.6-8-19.68C253,377.72,241.47,380.22,239,383.64Z" transform="translate(0 0)" fill="#ffc727"/>
  </g>
</svg>
