{
    "asset": {
        "copyright": "2020 (c) Adobe Inc.",
        "generator": "Adobe Dimension - 3de52ae4ccc0c25be48106335282fae5a6a58dee",
        "version": "2.0"
    },
    "accessors": [
        {
            "bufferView": 0,
            "componentType": 5126,
            "count": 16320,
            "type": "VEC3",
            "max": [
                0.0980873629450798,
                0.08999999612569809,
                0.0980873629450798
            ],
            "min": [
                -0.0980873629450798,
                0.0,
                -0.0980873629450798
            ]
        },
        {
            "bufferView": 1,
            "componentType": 5126,
            "count": 16320,
            "type": "VEC3"
        },
        {
            "bufferView": 2,
            "componentType": 5126,
            "count": 16320,
            "type": "VEC2"
        },
        {
            "bufferView": 3,
            "componentType": 5125,
            "count": 16320,
            "type": "SCALAR",
            "max": [
                16319.0
            ],
            "min": [
                0.0
            ]
        },
        {
            "bufferView": 4,
            "componentType": 5126,
            "count": 2148,
            "type": "VEC3",
            "max": [
                0.09999999403953552,
                0.25,
                0.09999999403953552
            ],
            "min": [
                -0.09999999403953552,
                0.0,
                -0.09999999403953552
            ]
        },
        {
            "bufferView": 5,
            "componentType": 5126,
            "count": 2148,
            "type": "VEC3"
        },
        {
            "bufferView": 6,
            "componentType": 5126,
            "count": 2148,
            "type": "VEC2"
        },
        {
            "bufferView": 7,
            "componentType": 5125,
            "count": 2148,
            "type": "SCALAR",
            "max": [
                2147.0
            ],
            "min": [
                0.0
            ]
        },
        {
            "bufferView": 8,
            "componentType": 5126,
            "count": 22752,
            "type": "VEC3",
            "max": [
                0.09999999403953552,
                0.17999999225139619,
                0.09999999403953552
            ],
            "min": [
                -0.09999999403953552,
                0.0,
                -0.09999999403953552
            ]
        },
        {
            "bufferView": 9,
            "componentType": 5126,
            "count": 22752,
            "type": "VEC3"
        },
        {
            "bufferView": 10,
            "componentType": 5126,
            "count": 22752,
            "type": "VEC2"
        },
        {
            "bufferView": 11,
            "componentType": 5125,
            "count": 22752,
            "type": "SCALAR",
            "max": [
                22751.0
            ],
            "min": [
                0.0
            ]
        }
    ],
    "bufferViews": [
        {
            "buffer": 0,
            "byteOffset": 0,
            "byteLength": 195840,
            "target": 34962
        },
        {
            "buffer": 0,
            "byteOffset": 195840,
            "byteLength": 195840,
            "target": 34962
        },
        {
            "buffer": 0,
            "byteOffset": 391680,
            "byteLength": 130560,
            "target": 34962
        },
        {
            "buffer": 0,
            "byteOffset": 522240,
            "byteLength": 65280,
            "target": 34963
        },
        {
            "buffer": 0,
            "byteOffset": 587520,
            "byteLength": 25776,
            "target": 34962
        },
        {
            "buffer": 0,
            "byteOffset": 613296,
            "byteLength": 25776,
            "target": 34962
        },
        {
            "buffer": 0,
            "byteOffset": 639072,
            "byteLength": 17184,
            "target": 34962
        },
        {
            "buffer": 0,
            "byteOffset": 656256,
            "byteLength": 8592,
            "target": 34963
        },
        {
            "buffer": 0,
            "byteOffset": 664848,
            "byteLength": 273024,
            "target": 34962
        },
        {
            "buffer": 0,
            "byteOffset": 937872,
            "byteLength": 273024,
            "target": 34962
        },
        {
            "buffer": 0,
            "byteOffset": 1210896,
            "byteLength": 182016,
            "target": 34962
        },
        {
            "buffer": 0,
            "byteOffset": 1392912,
            "byteLength": 91008,
            "target": 34963
        }
    ],
    "buffers": [
        {
            "byteLength": 1483920,
            "uri": "dn_level1_binary.bin"
        }
    ],
    "cameras": [
        {
            "perspective": {
                "znear": 0.000011454968444013503,
                "yfov": 0.6024156808853149,
                "zfar": 2.0,
                "aspectRatio": 1.3333333730697632
            },
            "type": "perspective",
            "name": "render_camera"
        }
    ],
    "images": [
        {
            "name": "basecolor_image_texture",
            "uri": "basecolor_image_texture.jpg",
            "mimeType": "image/jpeg"
        },
        {
            "name": "roughness_image_texture_metallic_image_texture",
            "uri": "roughness_image_texture_metallic_image_texture.png",
            "mimeType": "image/png"
        },
        {
            "name": "normal_image_texture",
            "uri": "normal_image_texture.png",
            "mimeType": "image/png"
        }
    ],
    "materials": [
        {
            "pbrMetallicRoughness": {
                "baseColorTexture": {
                    "index": 0
                },
                "metallicRoughnessTexture": {
                    "index": 1
                }
            },
            "normalTexture": {
                "index": 2
            },
            "name": "금속 조각 충전 플라스틱 4",
            "doubleSided": true
        }
    ],
    "meshes": [
        {
            "name": "PROCEDURAL_MESHES_CONE#",
            "primitives": [
                {
                    "attributes": {
                        "POSITION": 0,
                        "NORMAL": 1,
                        "TEXCOORD_0": 2
                    },
                    "indices": 3,
                    "material": 0
                }
            ]
        },
        {
            "name": "PROCEDURAL_MESHES_CUBE#",
            "primitives": [
                {
                    "attributes": {
                        "TEXCOORD_0": 6,
                        "NORMAL": 5,
                        "POSITION": 4
                    },
                    "indices": 7,
                    "material": 0
                }
            ]
        },
        {
            "name": "PROCEDURAL_MESHES_CONE#",
            "primitives": [
                {
                    "attributes": {
                        "POSITION": 8,
                        "NORMAL": 9,
                        "TEXCOORD_0": 10
                    },
                    "indices": 11,
                    "material": 0
                }
            ]
        }
    ],
    "nodes": [
        {
            "translation": [
                0.5,
                0.29999998211860659,
                0.5
            ],
            "rotation": [
                -0.12059047073125839,
                0.379409521818161,
                0.04995020851492882,
                0.9159756302833557
            ],
            "scale": [
                1.0,
                1.0,
                0.9999999403953552
            ],
            "camera": 0,
            "name": "render_camera_n3d"
        },
        {
            "translation": [
                0.0,
                0.3579999804496765,
                0.0
            ],
            "scale": [
                0.9999998807907105,
                1.5513298511505128,
                0.9999998807907105
            ],
            "mesh": 0,
            "name": "원뿔 2"
        },
        {
            "translation": [
                -6.394884346555194e-16,
                0.0,
                0.0
            ],
            "scale": [
                1.0,
                1.0000001192092896,
                0.9999998807907105
            ],
            "mesh": 1,
            "name": "큐브"
        },
        {
            "translation": [
                0.0,
                0.25,
                0.0
            ],
            "scale": [
                1.002592921257019,
                0.5999997854232788,
                1.0025930404663087
            ],
            "mesh": 2,
            "name": "원뿔"
        }
    ],
    "samplers": [
        {},
        {},
        {}
    ],
    "scenes": [
        {
            "nodes": [
                0,
                1,
                2,
                3
            ],
            "name": "scene"
        }
    ],
    "textures": [
        {
            "name": "basecolor_image_texture",
            "sampler": 0,
            "source": 0
        },
        {
            "name": "roughness_image_texture_metallic_image_texture",
            "sampler": 1,
            "source": 1
        },
        {
            "name": "normal_image_texture",
            "sampler": 2,
            "source": 2
        }
    ],
    "scene": 0
}